<?xml version="1.0" encoding="utf-8"?>
<!-- Generator: Adobe Illustrator 23.0.3, SVG Export Plug-In . SVG Version: 6.00 Build 0)  -->
<svg version="1.1" id="Layer_1" xmlns="http://www.w3.org/2000/svg" xmlns:xlink="http://www.w3.org/1999/xlink" x="0px" y="0px"
	 viewBox="0 0 15 15" style="enable-background:new 0 0 15 15;" xml:space="preserve">
<style type="text/css">
	.st0{fill:#6699FF;}
	.st1{fill:#6699FF;stroke:#333333;stroke-linecap:round;stroke-linejoin:round;}
</style>
<g transform="matrix( 1, 0, 0, 1, 0,0) ">
	<g>
		<g id="Layer0_28_FILL">
			<path class="st0" d="M12.3,12.3c1.3-1.3,2-2.9,2-4.8c0-1.9-0.7-3.5-2-4.8c-1.3-1.3-2.9-2-4.8-2S4,1.3,2.7,2.7
				c-1.3,1.3-2,2.9-2,4.8c0,1.9,0.7,3.5,2,4.8c1.3,1.3,2.9,2,4.8,2S11,13.7,12.3,12.3z"/>
		</g>
	</g>
	<g>
		<path id="Layer0_28_1_STROKES" class="st1" d="M14.3,7.5c0,1.9-0.7,3.5-2,4.8c-1.3,1.3-2.9,2-4.8,2s-3.5-0.7-4.8-2
			c-1.3-1.3-2-2.9-2-4.8c0-1.9,0.7-3.5,2-4.8c1.3-1.3,2.9-2,4.8-2s3.5,0.7,4.8,2C13.7,4,14.3,5.6,14.3,7.5z"/>
	</g>
</g>
</svg>
