<?xml version="1.0" encoding="utf-8"?>
<!-- Generator: Adobe Illustrator 23.0.3, SVG Export Plug-In . SVG Version: 6.00 Build 0)  -->
<svg version="1.1" id="Layer_1" xmlns="http://www.w3.org/2000/svg" xmlns:xlink="http://www.w3.org/1999/xlink" x="0px" y="0px"
	 viewBox="0 0 1200 557" style="enable-background:new 0 0 1200 557;" xml:space="preserve">
<style type="text/css">
	.st0{fill:#EDEDED;}
</style>
<path class="st0" d="M0,109.51c0,0,136.96,49.15,111.94,230.22c0,0,111.53-181.07,248.78-47.42c0,0,51.47-77.6,152.26-63.81
	c2.03,0.28,21.26-19.08,24.09-20.94c13.69-9.01,28.91-15.89,44.85-19.72c47.06-11.31,100.47,2.99,131.23,41.52
	c0,0,66.49-94.85,150.13-18.11c-2.15-1.98-1.34-18.87-1.29-21.8C863.3,116.83,921.8,66.32,991.26,59.1
	c58.69-6.1,122.31,20.13,130.1,84.91c-6.92-57.55,22.5-121.25,78.64-143.99v496.64H0V109.51z"/>
<rect y="492" class="st0" width="1200" height="191"/>
</svg>
