<?xml version="1.0" encoding="utf-8"?>
<!-- Generator: Adobe Illustrator 23.0.3, SVG Export Plug-In . SVG Version: 6.00 Build 0)  -->
<svg version="1.1" id="Layer_1" xmlns="http://www.w3.org/2000/svg" xmlns:xlink="http://www.w3.org/1999/xlink" x="0px" y="0px"
	 viewBox="0 0 590 590" style="enable-background:new 0 0 590 590;" xml:space="preserve">
<style type="text/css">
	.st0{fill:none;stroke:#333333;stroke-linecap:round;stroke-linejoin:round;}
</style>
<g transform="matrix( 1, 0, 0, 1, 0,0) ">
	<g>
		<path id="Layer1_0_1_STROKES" class="st0" d="M16.1,249.1c0.5,0.1,1,0.1,1.5,0.2c3-18.3,7.8-35.9,14.3-52.8
			c6.2-16.2,14-31.7,23.3-46.6c6.9-11,14.6-21.6,23.3-31.9c5.7-6.8,11.8-13.4,18.2-19.9c4.3-4.4,8.7-8.6,13.2-12.6
			c12.7-11.5,26.1-21.6,40-30.3c15.1-9.5,30.8-17.3,47.3-23.5c18.1-6.8,37-11.6,56.8-14.5c14-2,28.4-3,43.3-3
			c20.1,0,39.5,1.8,58.1,5.6c16.3,3.2,32.1,7.9,47.3,13.9c15.9,6.4,31.2,14.4,45.8,23.9c13.5,8.8,26.4,18.9,38.8,30.3
			c3.5,3.3,7,6.6,10.4,10.1c7.2,7.3,14,14.7,20.3,22.4c8.4,10.2,15.9,20.8,22.7,31.8c9,14.8,16.6,30.3,22.6,46.4
			c6.1,16.5,10.7,33.7,13.6,51.6c0.4-0.1,0.7-0.1,1.1-0.1 M517.8,120.4c-0.3,0.1-0.6,0.3-0.9,0.4c-5.1,2.4-10.4,4.8-15.7,7.1
			c7.3,10.3,13.8,21,19.5,32c6.6-2.4,13.2-4.9,19.7-7.6 M520.8,159.9c-6.4,2.3-13,4.6-19.6,6.6c6.4,14.4,11.6,29.3,15.6,44.9
			c7.7-1.8,15.3-3.8,22.8-5.9C534.7,189.7,528.4,174.4,520.8,159.9z M431.3,69.2c-3.4,1.9-7.1,3.8-10.9,5.7
			c-0.2,0.1-0.5,0.2-0.7,0.3c6.9,7.5,13.6,15.7,20.1,24.8c1.8,2.6,3.6,5.2,5.4,7.8c5.5-2.1,10.9-4.3,16.2-6.6
			c-0.6-0.8-1.3-1.6-1.9-2.3C450.4,87.8,441,78,431.3,69.2c-11.7-10.5-23.9-19.5-36.6-26.9c-1.9,1.7-4.1,3.3-6.5,4.8
			c10.9,7.8,21.4,17.2,31.4,28.1c-4.8,2.2-9.7,4.3-14.8,6.3c4.9,6.7,9.8,13.9,14.5,21.7c2.2,3.7,4.3,7.4,6.4,11.2
			c6.6-2,13-4.2,19.3-6.6c7.2,10.7,13.7,21.9,19.4,33.4c6.8-2.1,13.5-4.4,20.1-6.8c-6.9-11.5-14.7-22.6-23.3-33.3
			c2.4-1.1,4.9-2.2,7.3-3.3c2-0.9,3.9-1.9,5.8-2.9c-11-11.7-22.4-22-34.3-31.1C437.3,65.7,434.4,67.4,431.3,69.2z M487.1,87.9
			c-4,2.4-8.3,4.7-12.8,7c1.2,1.3,2.4,2.6,3.6,3.9c8.5,9.4,16.3,19.1,23.4,29.1c-5.5,2.3-11,4.4-16.6,6.5
			c6.2,10.3,11.7,21,16.6,32.1c-7.5,2.3-15.2,4.6-23,6.6c5.1,14.1,9.3,28.8,12.5,44c8.8-1.8,17.5-3.7,26.1-5.8
			c3.7,14.3,6.5,29.2,8.4,44.5c8.4-0.8,16.7-1.7,25.1-2.6c-2.3-16.5-5.8-32.4-10.6-47.8c7.9-2.2,15.7-4.5,23.4-6.9 M448.3,57.7
			c-2.6,2.1-5.3,4.2-8.3,6.2c-13.2-10-27-18.5-41.4-25.3c-1.2,1.3-2.5,2.5-3.9,3.7c-13.2-7.7-26.9-13.6-41.2-17.9
			c-0.6,1-1.4,2-2.3,3c12.8,4.7,25.1,11.3,37,19.7c-2.8,1.9-5.9,3.7-9.4,5.5c9,8.1,17.7,17.7,26,29c-5.4,2-11,3.9-16.6,5.6
			c2.5,4.4,5,9.1,7.4,14.1c3,6.1,5.9,12.4,8.6,18.9c7.3-1.7,14.5-3.7,21.5-5.8c5.9,10.7,11.1,21.8,15.9,33.3
			c7.8-1.9,15.4-4.1,22.9-6.4c5.1,10.3,9.7,20.9,13.7,31.9c-8.3,2.2-16.8,4.2-25.4,6.1c4.1,13.8,7.5,28.1,10.1,42.9
			c9.4-1.6,18.7-3.3,27.8-5.1c2.9,13.4,5,27.1,6.4,41.4c9.4-0.8,18.7-1.7,28.1-2.6c1.6,13.6,2.4,27.6,2.5,42c0,0.4,0,0.8,0,1.2v1.3
			h25.7v-1.3c0-0.4,0-0.8,0-1.2c-0.1-15.3-1.1-30.2-3.1-44.6c8.8-1,17.6-2,26.4-3.1c2.6,15.7,3.9,32,3.9,48.9v1.3v2
			c-0.2,16.1-1.5,31.6-3.9,46.7c0.4,0.1,0.7,0.1,1.1,0.1 M402.5,33.8c-1.1,1.6-2.4,3.2-3.9,4.8c-14.2-6.8-29-12-44.4-15.6
			c-0.2,0.5-0.4,0.9-0.7,1.4c-10.6-3.2-21.6-5.5-32.8-6.8l-21.3-1.1v1.8c18.1,0.1,35.4,3.1,51.8,9.2c-1.1,1.2-2.5,2.4-4.1,3.6
			c11,5.3,21.6,12.5,31.8,21.5c-0.9,0.4-1.8,0.9-2.7,1.3c-2.6,1.2-5.3,2.4-8,3.5c7,8.5,13.6,18.4,20,29.8c-6.5,1.9-13.2,3.6-20.1,5
			c1.3,3.1,2.6,6.3,3.9,9.7c2.9,7.5,5.5,15.2,8,23.1c8.3-1.4,16.4-3,24.3-4.8c4.5,10.6,8.5,21.7,12,33.2c8.6-1.7,17.1-3.6,25.4-5.6
			c4.2,10.2,7.9,20.8,11.1,31.6c-9.2,2-18.6,3.8-28.1,5.4c3,13.5,5.5,27.5,7.4,42c10.5-1.3,20.8-2.8,30.9-4.4
			c2.2,12.5,3.9,25.3,5.1,38.6c9.7-0.7,19.4-1.5,29.1-2.3c1.3,13.1,2,26.6,2,40.4c0,0.1,0,0.2,0,0.3v1.3h28.6c0,0.4,0,0.7,0,1
			c0,0.3,0,0.7,0,1c-0.1,14-0.9,27.7-2.5,41.1c8.4,0.8,16.7,1.7,25.1,2.6c2-14.1,3-28.7,3.1-43.6c0-0.3,0-0.7,0-1c0-0.3,0-0.7,0-1
			h27.2 M347.1,31c-1.3,0.9-2.8,1.8-4.4,2.7c8.8,5.9,17.3,13.8,25.4,23.6c-4.7,1.9-9.7,3.5-14.8,5c5.1,8.6,10,18.5,14.8,29.8
			c-6.7,1.4-13.6,2.5-20.7,3.5c0.4,1.4,0.7,2.8,1.1,4.2c2.4,9.1,4.7,18.6,6.7,28.4c8.5-0.9,16.7-2,24.8-3.3
			c3.3,10.6,6.3,21.5,8.9,32.9c9.3-1.3,18.5-2.8,27.4-4.5c3.1,10.1,5.9,20.6,8.4,31.4c-9.7,1.6-19.6,3-29.7,4.2
			c2.2,13.3,4,27,5.3,41.3c8.2-0.8,16.2-1.6,24.3-2.6c2.5-0.3,5-0.6,7.5-0.9c1.5,11.8,2.7,23.9,3.5,36.3c10.8-0.7,21.6-1.4,32.5-2.2
			c1.1,12.4,1.7,25.2,1.8,38.3v0.6c0,0.2,0,0.4,0,0.6h29.4c0,0,0,0.1,0,0.1v1.9c-0.1,13.1-0.8,26-2,38.5c9.4,0.8,18.7,1.7,28.1,2.6
			c-1.8,15.3-4.6,30.2-8.4,44.5c7.7,1.8,15.3,3.8,22.8,5.8c4.8-15.3,8.3-31.3,10.6-47.8c8.8,1,17.6,2,26.4,3.1
			c-2.9,17.9-7.5,35.1-13.6,51.6c-6,16.1-13.6,31.5-22.6,46.3c-6.7,11-14.3,21.6-22.7,31.8c-6.3,7.7-13,15.1-20.3,22.4
			c-3.4,3.5-6.9,6.8-10.4,10.1c-12.4,11.4-25.3,21.5-38.8,30.3c-14.7,9.5-29.9,17.5-45.8,23.8c-15.2,6.1-30.9,10.7-47.3,14
			c-18.6,3.7-38,5.5-58.1,5.5c-14.8,0-29.3-1-43.3-3c-19.7-2.8-38.7-7.6-56.8-14.5c-16.5-6.2-32.2-14-47.3-23.5
			c-13.9-8.7-27.3-18.8-40-30.3c-4.5-4-8.9-8.2-13.2-12.5c-6.4-6.5-12.5-13.1-18.2-20C69.8,471,62,460.4,55.2,449.4
			c-9.3-14.9-17-30.4-23.3-46.6c-6.5-16.9-11.2-34.5-14.3-52.8c-0.5,0.1-1,0.1-1.5,0.2 M342.8,33.7c-0.7,0.4-1.5,0.8-2.3,1.1
			c-2,1-4.1,1.8-6.3,2.6c6.7,6.3,13.1,14.6,19.1,24.8c-5,1.4-10.3,2.6-15.6,3.5c3.3,8.6,6.6,18.6,9.7,29.8c-7.9,1-16,1.8-24.4,2.3
			c1.3,10.3,2.5,21.2,3.6,32.5c9.7-0.5,19.2-1.2,28.5-2.2c2.2,10.5,4.1,21.4,5.8,32.7c9.5-0.8,18.8-1.9,27.9-3.1
			c2.3,10,4.3,20.4,6.1,31.1c-9.8,1.2-19.8,2.1-30,2.9c1.4,13.1,2.5,26.7,3.4,40.8c10.8-0.6,21.4-1.4,31.9-2.4
			c1.1,11.2,1.9,22.7,2.5,34.5c10.9-0.5,21.8-1.1,32.8-1.7c0.7,11.8,1.1,23.8,1.2,36.1v0.4c0,0.1,0,0.2,0,0.3c0,0.1,0,0.3,0,0.6
			h33.1v1.6c0,0.1,0,0.3,0,0.4c-0.2,12.3-0.8,24.4-1.8,36.1c9.7,0.7,19.4,1.5,29.1,2.4c-1.4,14.2-3.5,28-6.4,41.4
			c8.8,1.8,17.5,3.7,26.1,5.8c-4.1,15.5-9.3,30.5-15.6,44.8c6.6,2.1,13.2,4.3,19.6,6.7c7.6-14.6,13.9-29.8,18.9-45.7
			c7.9,2.2,15.7,4.5,23.4,6.9 M334.3,37.5c-2.9,1-6,1.8-9.2,2.5c4.4,6.7,8.6,15.3,12.7,25.8c-6.2,1.1-12.6,1.8-19.2,2.3
			c1.4,7.7,2.8,16.4,4.1,26c0.2,1.2,0.3,2.5,0.5,3.7c-5.1,0.3-10.4,0.5-15.7,0.6c-2.3,0.1-4.7,0.2-7,0.2c-0.4,0-0.7,0-1,0l-0.1,32.5
			c0.4,0,0.7,0,1.1,0c3.3,0,6.5-0.1,9.8-0.2c5.6-0.1,11.1-0.3,16.6-0.5c1,10.4,1.9,21.3,2.7,32.5c10.7-0.4,21.2-1.1,31.5-2
			c1.5,10,2.8,20.3,4,30.9c-11,0.8-22.3,1.4-33.7,1.9c0.6,13,1.2,26.4,1.6,40.4c12-0.3,23.8-0.8,35.5-1.5c0.7,10.8,1.2,22,1.5,33.4
			c11-0.4,21.9-0.8,32.9-1.3c0.5,11.2,0.8,22.7,0.9,34.5v0.4c0,0.1,0,0.2,0,0.3c0,0.1,0,0.3,0,0.6h33.1v2c-0.1,11.6-0.5,22.9-1.2,34
			c10.8,0.7,21.6,1.4,32.5,2.1c-1.2,13.3-2.9,26.1-5.1,38.6c9.4,1.6,18.7,3.3,27.8,5.1c-3.2,15.2-7.4,29.9-12.5,43.9
			c7.8,2.1,15.5,4.3,23,6.6c-4.9,11-10.4,21.7-16.6,32.1c5.6,2.1,11.2,4.3,16.6,6.5c7.3-10.3,13.8-20.9,19.5-31.9
			c6.6,2.4,13.2,4.9,19.7,7.6 M355.2,19.9c-0.2,1.1-0.5,2.1-1,3.1c-10.9-2.6-22.1-4.4-33.5-5.4 M329.5,162.9
			c0.7,9.9,1.3,20.1,1.8,30.7c-5.2,0.2-10.4,0.3-15.7,0.3c-5.1,0.2-10.1,0.4-15.3,0.4c-0.4,0-0.8,0-1.1,0l-0.1,40.3
			c0.4,0,0.8,0,1.3,0c6.2,0,12.5-0.1,18.7-0.4c4.6-0.1,9.3-0.2,13.9-0.3c0.3,10.6,0.5,21.5,0.6,32.7c12.1-0.2,24.3-0.4,36.4-0.8
			c0.3,10.1,0.5,20.5,0.6,31.1c0,0.7,0,1.4,0,2.1v1.3h33.2v2c-0.1,11-0.4,21.8-0.9,32.3c10.9,0.5,21.8,1.1,32.8,1.7
			c-0.8,12.4-2,24.5-3.5,36.3c10.5,1.3,20.8,2.8,30.9,4.5c-2.6,14.9-6,29.2-10.1,42.9c8.6,1.9,17.1,3.9,25.4,6.1
			c-4,11-8.6,21.7-13.7,32c6.8,2.1,13.5,4.3,20.1,6.8c-6.9,11.5-14.7,22.6-23.3,33.3c2.4,1.1,4.9,2.2,7.3,3.4c2,0.9,3.9,1.9,5.8,2.9
			c1.2-1.3,2.4-2.5,3.6-3.9c8.5-9.4,16.3-19.1,23.4-29.1c5.3,2.3,10.5,4.6,15.7,7.1c0.3,0.1,0.6,0.3,0.9,0.4 M333.5,266.7
			c0.1,7.5,0.2,15.1,0.2,22.8c0,3.2,0,6.4,0,9.6c0,0.4,0,0.8,0,1.3h36.7c0,0.7,0,1.3,0,1.9v0.1c-0.1,10.6-0.3,20.9-0.6,31
			c11,0.4,21.9,0.8,32.9,1.3c-0.6,11.8-1.4,23.4-2.5,34.6c8.2,0.8,16.2,1.6,24.3,2.5c2.5,0.3,5,0.6,7.5,0.9
			c-1.9,14.5-4.4,28.6-7.4,42.1c9.5,1.6,18.9,3.4,28.1,5.3c-3.3,10.9-7,21.4-11.1,31.7c7.8,1.9,15.4,4.1,22.9,6.4
			c-5.7,11.6-12.2,22.7-19.4,33.4c5.5,2.1,10.9,4.3,16.2,6.6c-0.6,0.8-1.3,1.6-1.9,2.4c-9,11-18.4,20.9-28.1,29.7
			c3.1,1.7,6,3.5,8.7,5.3c11.9-9.1,23.4-19.4,34.3-31.1c4.5,2.3,8.8,4.6,12.8,7 M333.5,332.6c0.1-7.5,0.2-15.1,0.2-22.8
			c0-2.5,0-4.9,0-7.4c0-0.7,0-1.4,0-2H299v1.2c0,0.1,0,0.2,0,0.4c0,0.2,0,0.3,0,0.5l0,30C310.5,332.4,322,332.4,333.5,332.6
			c12.1,0.2,24.3,0.4,36.4,0.8c-0.3,11.4-0.8,22.6-1.5,33.4c10.8,0.6,21.4,1.4,31.9,2.4c-1.4,14.3-3.1,28-5.3,41.3
			c10.1,1.2,20,2.6,29.7,4.2c-2.4,10.8-5.2,21.2-8.4,31.3c8.6,1.7,17.1,3.6,25.4,5.7c-4.7,11.5-10,22.6-15.9,33.3
			c6.6,2,13,4.2,19.3,6.5c-1.8,2.6-3.6,5.2-5.4,7.8c-6.5,9-13.1,17.2-20.1,24.7c0.2,0.1,0.5,0.3,0.7,0.4c3.9,1.9,7.5,3.8,10.9,5.7
			c-11.7,10.5-23.9,19.5-36.6,26.9c1.4,1.2,2.7,2.4,3.9,3.7c14.4-6.8,28.1-15.3,41.4-25.3c3,2,5.8,4.1,8.3,6.2 M299,332.4l0,32.3
			c0.4,0,0.8,0,1.3,0c6.2,0,12.5,0.1,18.7,0.4c4.6,0.1,9.3,0.1,13.9,0.3c0.3-10.6,0.5-21.5,0.6-32.7 M332.9,365.3
			c-0.4,14-1,27.4-1.6,40.4c11.4,0.4,22.7,1,33.7,1.8c1.4-13.1,2.5-26.7,3.4-40.8C356.7,366.1,344.9,365.6,332.9,365.3z M253.9,17.3
			c0,0.2,0,0.3,0,0.5c0,0.8,0.1,1.6,0.3,2.4c4-0.7,8-1.3,12-1.8l22.1-1.9c2.7-0.1,5.5-0.2,8.3-0.1c0.3,0,0.6,0,0.9,0l2,0.1
			 M295.5,22.1c0,0,0.1-0.1,0.1-0.1c-10,0.7-19.5,4.8-28.4,12.1c0.5,0.3,1,0.5,1.5,0.8c1.9,0.9,4,1.8,6.1,2.6
			C281.3,28.5,288.1,23.4,295.5,22.1c0.3-0.1,0.7-0.1,1.1-0.1c-0.4,0-0.7,0-0.9,0c0.6-0.5,1.2-0.9,2-1.1c0.5-0.2,1.1-0.4,1.9-0.4
			l-0.1-0.4c0,0-0.1,0-0.1,0l-4.5,0.1c-11.8,0.7-23,4-33.6,10.1c1.7,1.3,3.7,2.5,6,3.7c-8,6.5-15.5,15.7-22.6,27.4
			c5,1.5,10.3,2.8,15.8,3.8c4.5-11.7,9.4-21,14.5-27.9c3.5,1.2,7.2,2.2,11.1,2.9C288.9,30.9,292.1,24.8,295.5,22.1z M296.5,22
			c0.2-0.1,0.5-0.1,0.9-0.1c0.6-0.1,1.3-0.1,2.1-0.1v-1.2c1.2,0,2.4,0.5,3.7,1.5c11,1,21.3,6.1,31.1,15.4 M296.5,22
			c0.3,0,0.6-0.1,0.9-0.1c0.6,0,1.3,0,2,0v-0.1c0.9,0,1.9,0.1,2.9,0.3c0.2,0,0.5,0,0.8,0c0,0,0,0,0.1,0.1c7.7,1.5,15,7.4,21.8,17.9
			c-3.9,0.8-8.1,1.4-12.4,1.7c2,7,4,15.8,5.9,26.5c-4.5,0.3-9,0.5-13.8,0.6c-1.5,0.1-2.9,0.1-4.4,0.1c-0.3,0-0.7,0-1,0l0,29.7
			c-8.3,0-16.4-0.3-24.3-0.8c-0.6,4.7-1.2,9.7-1.8,14.8c-0.7,5.8-1.3,11.7-1.9,17.7c9.1,0.5,18.4,0.7,27.9,0.8l0,32.6
			c0.4,0,0.7,0,1.1,0c4.2,0,8.4-0.1,12.6-0.3c5.5-0.1,11-0.3,16.5-0.5 M302.4,22c0.3,0,0.6,0.1,0.9,0.1c3.3,2.8,6.4,9.3,9.4,19.6
			c-2.6,0.2-5.3,0.3-8,0.3c-0.7,0-1.4,0-2.1,0c-1,0-2,0-3-0.1l-0.1,27c-6.9,0-13.5-0.3-19.9-0.9c-1.6,8.7-3.1,18.7-4.5,29.8
			c-8.4-0.6-16.5-1.4-24.4-2.5c-1.2,4.4-2.4,8.9-3.5,13.7c-1.5,6.2-3,12.5-4.3,19c9.3,1,18.8,1.8,28.6,2.4c-1,10.6-2,21.4-2.8,32.6
			c10,0.4,20.3,0.7,30.7,0.7l-0.1,30.7c-11,0-21.9-0.2-32.5-0.7c-0.7,13.1-1.3,26.6-1.6,40.5c11.2,0.3,22.6,0.5,34.1,0.5l0,32.3
			c11.5,0,23-0.1,34.5-0.3 M299.5,18.2l-0.1,1.9c1.3,0,2.5,0,3.9,0l3.4,0.2c14.1,1,27.6,4.5,40.5,10.6 M299.5,21.9
			c0.9,0,1.9,0,2.9,0.1 M266.1,18.4c-4,0.6-8,1.3-12,2.2c0.3,1.3,0.8,2.5,1.5,3.7c13.5-3.9,27.6-5.9,42.3-6c0.5,0,1,0,1.6,0
			 M299.5,41.8c-4.8-0.2-9.3-0.7-13.5-1.5c-2.3,7.2-4.4,16.4-6.4,27.6c-6.6-0.6-13-1.5-19.1-2.6c-3.4,8.6-6.6,18.6-9.8,29.9
			c-7.2-1-14.1-2.3-20.9-3.8c-2.1,4.9-4.1,10.1-6.1,15.6c-2.1,5.7-4,11.5-5.8,17.3c8.1,1.4,16.4,2.6,24.9,3.6
			c-2.2,10.6-4.2,21.5-5.9,32.8c10.4,1,20.9,1.7,31.7,2.2c-0.7,10-1.4,20.2-1.9,30.7c-11.5-0.4-22.8-1.1-33.9-2
			c-1.5,13.2-2.7,26.8-3.6,40.8c11.7,0.7,23.7,1.3,35.8,1.7c-0.3,10.6-0.6,21.4-0.8,32.5c11.6,0.2,23.2,0.3,34.8,0.3l0,33.4h-35
			c0,0.7,0,1.3,0,2c0,10.3,0.1,20.4,0.3,30.3c11.6-0.2,23.2-0.3,34.8-0.3 M299.5,21.9v19.9 M254.1,20.5c0-0.1,0-0.3,0-0.4
			c-18.7,3.3-36.6,8.8-53.6,16.5c0.8,1,1.7,1.9,2.7,2.9C219.3,30.7,236.3,24.4,254.1,20.5z M261.2,30.4c-1.2-0.9-2.2-1.8-3.1-2.7
			c-13.4,5.2-26,13.2-38,23.9c1.5,0.8,3,1.5,4.6,2.3c2.1,1,4.2,1.9,6.3,2.8C240.5,45.2,250.6,36.4,261.2,30.4z M258.1,27.6
			c-1.1-1.1-1.9-2.3-2.5-3.4c-15.7,4.6-30.7,11.8-44.9,21.6c2.8,2,5.9,3.9,9.4,5.7c-9.1,8.1-17.8,17.9-26.1,29.1
			c5.4,2.1,11,4.1,16.8,5.9c6.4-11.5,13.1-21.4,20.1-29.9c4.4,1.8,8.9,3.5,13.6,4.8c-5.2,8.6-10.2,18.6-14.9,29.9
			c-6.5-1.4-12.8-3.1-18.9-4.9c-3.1,5.4-6.1,11.2-9,17.3c-2.5,5.2-4.8,10.4-7,15.8c7.5,1.8,15.1,3.4,23,4.8c-3.3,10.6-6.3,21.7-9,33
			c9.1,1.3,18.5,2.4,28,3.4c-1.5,10-2.9,20.3-4.1,30.9c-10.2-0.8-20.2-1.9-30.1-3.1c-2.2,13.3-4,27.1-5.4,41.4
			c10.5,1,21.1,1.9,31.9,2.6c-0.7,10.8-1.3,21.9-1.6,33.3c12.2,0.4,24.4,0.6,36.6,0.9c-0.2,10.6-0.3,21.4-0.3,32.5v1.3h-37v2
			c0.1,10.6,0.3,21,0.6,31.1c12.2-0.4,24.4-0.6,36.6-0.9c0.2,11.1,0.4,21.9,0.8,32.5c11.2-0.3,22.6-0.5,34.1-0.5l0.1,40.4
			c0.4,0,0.8,0,1.1,0c5.1,0,10.2,0.1,15.3,0.4c5.3,0.1,10.5,0.2,15.7,0.4c-0.5,10.6-1.1,20.8-1.8,30.7c10.7,0.4,21.2,1.1,31.5,2
			c1.5-10,2.8-20.3,4-30.9c10.2,0.8,20.2,1.8,30,3c-1.8,10.7-3.8,21-6.1,31c9.3,1.3,18.5,2.8,27.4,4.5c-3.6,11.5-7.6,22.6-12,33.2
			c7.3,1.7,14.5,3.6,21.5,5.8c-2.1,3.8-4.2,7.5-6.4,11.1c-4.7,7.8-9.5,15-14.5,21.6c5,2,10,4.1,14.8,6.3
			c-10,10.9-20.5,20.3-31.4,28.1c2.4,1.6,4.5,3.2,6.5,4.8c-13.2,7.7-26.9,13.6-41.2,17.9c0.3,0.5,0.5,0.9,0.7,1.4
			c15.4-3.6,30.1-8.8,44.4-15.6c1.5,1.5,2.8,3.1,3.9,4.8 M258.1,27.6c11.7-4.6,23.9-7,36.6-7.4 M210.8,45.8c-2.9-2-5.4-4.1-7.5-6.3
			c-13.3,7.3-26,16.2-38.1,26.9c4.2,2.6,8.7,5,13.7,7.4C189,63,199.6,53.6,210.8,45.8z M149.8,55.2c2.5,2.2,5.3,4.4,8.3,6.6
			c13.5-10.1,27.7-18.4,42.5-25.1c-1.4-1.6-2.5-3.2-3.4-4.9 M194.1,80.7c-4.6-1.8-9-3.8-13.4-5.8c-0.6-0.3-1.2-0.6-1.8-0.9
			c-7.6,8.2-14.9,17.3-21.9,27.3c-1.3,1.8-2.5,3.6-3.8,5.4c6.5,2.5,13.3,4.9,20.2,7c2.2-4,4.4-7.9,6.8-11.8
			C184.6,94.3,189.3,87.2,194.1,80.7z M194.9,119.6c-7.4-1.8-14.6-3.7-21.6-5.9c-5.8,10.8-11,22-15.6,33.6
			c8.2,2.1,16.6,3.9,25.1,5.6C186.3,141.4,190.4,130.3,194.9,119.6z M157.7,147.3c-4.1,10.2-7.6,20.8-10.8,31.8
			c9,2,18.2,3.8,27.6,5.4c2.4-10.8,5.1-21.3,8.3-31.5c8.5,1.7,17.2,3.2,26.1,4.5c-2.3,10.1-4.4,20.4-6.2,31.1
			c-9.6-1.2-19-2.6-28.2-4.1c-3,13.6-5.5,27.6-7.4,42.1c2.8,0.4,5.6,0.7,8.4,1.1c7.2,0.9,14.4,1.6,21.8,2.3
			c-1.1,11.2-1.9,22.8-2.4,34.6c10.9,0.5,21.8,0.9,32.8,1.3c-0.4,10.8-0.6,21.9-0.6,33.3c0,0.4,0,0.8,0,1.3h-33.1v2
			c0.1,11,0.4,21.8,0.9,32.4c10.9-0.5,21.8-0.9,32.8-1.3c0.3,11.4,0.9,22.5,1.6,33.4c11.7-0.7,23.7-1.3,35.8-1.7
			c0.4,13.9,0.9,27.4,1.6,40.5c10.7-0.4,21.5-0.6,32.5-0.6l0.1,30.6c0.4,0,0.7,0,1.1,0c4.2,0,8.4,0.1,12.6,0.3
			c5.5,0.1,11,0.2,16.5,0.4c-0.8,11.3-1.7,22.1-2.7,32.6c9.7,0.5,19.2,1.2,28.5,2.1c2.2-10.5,4.1-21.4,5.8-32.7
			c9.5,0.8,18.8,1.9,27.9,3.1c-2.6,11.4-5.5,22.3-8.9,32.9c8.3,1.4,16.4,3,24.3,4.8c-2.7,6.5-5.6,12.8-8.6,18.9
			c-2.4,4.9-4.9,9.6-7.4,14.1c5.7,1.7,11.3,3.6,16.6,5.6c-8.3,11.2-17,20.8-26,29c3.4,1.8,6.5,3.6,9.4,5.5
			c-11.8,8.4-24.1,15-37,19.7c0.9,1,1.6,2,2.3,3c-10.6,3.2-21.6,5.5-32.8,6.8c11.5-1,22.6-2.8,33.5-5.4c0.4,1,0.8,2,1,3.1
			 M117.7,98.8c-7.9,8.8-15.2,17.9-21.9,27.3c4.9,2.1,9.9,4.2,15,6.2c7-11.6,14.8-22.8,23.6-33.5l0-0.1c-0.6-0.3-1.3-0.7-1.9-0.9
			c-3.3-1.6-6.4-3.2-9.4-4.8C121.2,95,119.5,96.9,117.7,98.8z M109.8,85.5c4.1,2.6,8.5,5.1,13.2,7.6c11.2-11.8,22.8-22.2,35.1-31.3
			c2.2,1.6,4.6,3.2,7.1,4.7c-10.7,9.4-20.9,20.2-30.8,32.3c6.1,2.8,12.4,5.5,18.8,7.9c-7.3,10.8-13.8,22-19.5,33.7
			c7.9,2.5,15.9,4.8,24.1,6.9 M31.9,196.6c8.3,2.7,16.8,5.3,25.4,7.8c4.9-15.9,11.2-31.3,18.9-45.9c-7.1-2.7-14.1-5.5-21-8.4
			 M76.2,158.4c5.8-11.1,12.3-21.8,19.7-32.2c-3.9-1.7-7.8-3.5-11.6-5.3c-2-0.9-3.9-1.9-5.8-2.8 M119.9,172.4
			c-8.8-2.4-17.4-5-25.8-7.8c-6.4,14.5-11.6,29.6-15.7,45.3c9.5,2.3,19.1,4.5,28.9,6.6C110.5,201.3,114.7,186.5,119.9,172.4
			c4-11,8.5-21.7,13.7-32c-7.8-2.5-15.4-5.2-22.8-8.1c-6.3,10.4-11.9,21.2-16.8,32.3c-6.1-2-12-4.1-17.9-6.3 M107.3,216.6
			c9.8,2,19.8,3.9,30,5.6c2.4-14.9,5.6-29.3,9.6-43.1c-9.2-2-18.2-4.3-27-6.6 M78.4,209.9c-3.7,14.6-6.5,29.7-8.2,45.4
			c10.3,1,20.6,2,30.9,2.9c1.3-14.3,3.4-28.2,6.3-41.7 M101.1,258.2c10.5,0.9,21.1,1.8,31.7,2.5c1-13.3,2.5-26.1,4.6-38.6
			c9.8,1.6,19.7,3.1,29.8,4.4c-1.5,11.8-2.7,23.9-3.4,36.4c10.4,0.6,20.7,1.1,31.1,1.6c-0.5,11.2-0.8,22.8-0.9,34.6
			c0,0.4,0,0.8,0,1.3h-31.3v2c0.1,11.6,0.4,23,1.1,34.1c10.4-0.6,20.7-1.2,31.1-1.7c0.5,11.8,1.3,23.4,2.4,34.6
			c10.5-1,21.1-1.8,31.9-2.5c0.9,14,2.1,27.6,3.6,40.9c11.1-0.9,22.4-1.6,33.9-2.1c0.6,10.5,1.2,20.7,1.9,30.7
			c10-0.4,20.3-0.7,30.7-0.7l0,32.6c0.4,0,0.7,0,1.1,0c3.3,0,6.5,0.1,9.8,0.2c5.6,0.1,11.1,0.3,16.6,0.5
			c-1.1,11.3-2.3,22.2-3.6,32.5c8.3,0.5,16.5,1.2,24.4,2.3c0.4-1.4,0.7-2.8,1.1-4.2c2.4-9.1,4.7-18.6,6.7-28.4
			c8.5,0.9,16.7,2,24.8,3.4c-2.5,7.9-5.1,15.6-8,23.1c-1.3,3.3-2.6,6.6-3.9,9.7c6.9,1.4,13.6,3.1,20.1,5
			c-6.4,11.4-13.1,21.3-20,29.8c2.7,1.1,5.4,2.3,8,3.5c0.9,0.4,1.8,0.9,2.7,1.3c-10.1,9.1-20.7,16.3-31.8,21.5
			c1.6,1.2,3,2.4,4.1,3.6c-16.4,6.1-33.7,9.1-51.8,9.2v1.8l21.3-1.1 M78.4,209.9c-7.1-1.8-14.2-3.7-21.1-5.6
			c-4.8,15.6-8.3,31.7-10.5,48.5c7.8,0.9,15.5,1.7,23.3,2.5c-1.5,13.8-2.2,28-2.1,42.6c0,0.4,0,0.8,0,1.2c0,0.3,0,0.6,0,0.9
			c0,0.1,0,0.2,0,0.4h31.2c0-0.4,0-0.9,0-1.3c0-14.1,0.6-27.7,1.8-40.9 M17.6,249.4c9.7,1.2,19.5,2.3,29.2,3.4
			c-1.9,14.6-2.8,29.6-2.8,45.1c0,0.4,0,0.8,0,1.2c0,0.3,0,0.5,0.1,0.8v0.1c0,0.1,0,0.2,0,0.4h23.9c0,0.7,0,1.4,0,2
			c0,14.2,0.7,28.1,2.1,41.6c10.3-1,20.6-2,30.9-2.9c-1.2-12.6-1.8-25.5-1.8-38.7c0-0.6,0-1.1,0-1.7c0-0.1,0-0.2,0-0.4h32.2
			c0-0.4,0-0.9,0-1.3c0-13.2,0.4-26,1.4-38.4c10.3,0.8,20.6,1.5,30.9,2.1c-0.7,11.7-1.1,23.8-1.1,36.3c0,0.4,0,0.8,0,1.3h-31.2
			c0,0.1,0,0.2,0,0.4c0,0.6,0,1.1,0,1.7c0,12.3,0.5,24.4,1.4,36.1c10.3-0.8,20.6-1.5,30.9-2.1c0.7,12.4,1.9,24.5,3.4,36.3
			c2.8-0.4,5.6-0.7,8.4-1c7.2-0.9,14.4-1.6,21.8-2.4c1.4,14.3,3.2,28.1,5.4,41.4c9.8-1.2,19.9-2.3,30.1-3.1
			c1.2,10.6,2.6,20.8,4.1,30.8c10.4-1,20.9-1.7,31.7-2.2c0.8,11.2,1.8,22.1,2.8,32.6c9.1-0.5,18.4-0.7,27.9-0.8l0.1,32.5
			c0.3,0,0.7,0,1,0c2.3,0,4.7,0.1,7,0.1c5.3,0.1,10.6,0.3,15.7,0.6c-0.2,1.2-0.3,2.5-0.5,3.7c-1.3,9.6-2.7,18.3-4.1,26
			c6.6,0.5,13,1.3,19.2,2.3c3.3-8.6,6.6-18.6,9.7-29.8c7.1,1,14,2.1,20.7,3.5c-4.7,11.3-9.6,21.2-14.8,29.8c5.1,1.4,10.1,3.1,14.8,5
			c-8.1,9.8-16.6,17.7-25.4,23.6c1.6,0.9,3.1,1.8,4.4,2.7c-12.9,6.1-26.4,9.7-40.5,10.7l-3.4,0.2c-1.3,0.1-2.6,0.1-3.9,0l0.1,1.9
			c-0.5,0-1.1,0-1.6,0c-14.7-0.1-28.8-2.1-42.3-6c-0.7,1.2-1.2,2.4-1.5,3.7c4,0.9,8,1.6,12,2.2l22.1,1.8c2.7,0.1,5.5,0.2,8.3,0.2
			c0.3,0,0.6,0,0.9,0l2-0.1 M68.1,300.4c0,0.3,0,0.7,0,1c0,0.3,0,0.7,0,1 M44.2,300c0,0.1-0.1,0.2-0.1,0.4h0.1c0,0.7,0,1.4-0.1,2
			c0,15.1,0.9,29.8,2.8,44.1c7.8-0.9,15.5-1.7,23.3-2.5c1.7,15.7,4.5,30.8,8.2,45.4c9.5-2.3,19.1-4.5,28.9-6.6
			c-2.8-13.4-4.9-27.3-6.3-41.6c10.5-0.9,21.1-1.8,31.7-2.6c1,13.3,2.5,26.2,4.6,38.7c9.8-1.6,19.7-3.1,29.8-4.4
			c1.9,14.5,4.3,28.6,7.4,42.2c9.2-1.6,18.6-3,28.2-4.2c1.8,10.7,3.9,21,6.2,31.1c9.1-1.3,18.5-2.5,28-3.4
			c1.8,11.3,3.7,22.2,5.9,32.8c9.3-1,18.8-1.8,28.6-2.4c0.6,6,1.2,11.9,1.9,17.7c0.6,5.2,1.2,10.1,1.8,14.8c7.9-0.5,16-0.8,24.3-0.8
			l0,29.7c0.3,0,0.7,0,1,0c1.5,0,2.9,0,4.4,0.1c4.7,0.1,9.3,0.3,13.8,0.6c-1.9,10.6-3.9,19.4-5.9,26.4c4.3,0.3,8.5,0.9,12.4,1.7
			c4.4-6.7,8.6-15.3,12.7-25.8c5.4,0.9,10.6,2.1,15.6,3.5c-6.1,10.2-12.5,18.5-19.1,24.8c2.2,0.8,4.3,1.6,6.3,2.6
			c0.8,0.4,1.6,0.8,2.3,1.1c-11.4,7.7-23.4,12.2-36.1,13.4 M44.1,300.4c0,0.4,0,0.7,0,1c0,0.3,0,0.7,0,1 M44.1,300.4H13.6v2
			c0.2,16.4,1.5,32.2,4.1,47.6c9.7-1.2,19.5-2.4,29.2-3.5c2.2,16.8,5.7,32.9,10.5,48.5c6.9-2,14-3.9,21.1-5.6
			c4,15.7,9.3,30.9,15.7,45.4c8.4-2.8,17-5.4,25.8-7.8c-5.2-14.2-9.4-28.9-12.6-44.2c9.8-2,19.8-3.9,30-5.5
			c2.4,14.9,5.6,29.3,9.6,43.1c9-2,18.2-3.7,27.6-5.3c2.4,10.8,5.1,21.3,8.3,31.4c8.5-1.7,17.2-3.2,26.1-4.5
			c2.6,11.4,5.6,22.4,9,33.1c8.1-1.4,16.4-2.6,24.9-3.6c1.3,6.5,2.8,12.8,4.3,19c1.2,4.8,2.3,9.3,3.5,13.7c7.9-1.1,16-1.9,24.4-2.5
			c1.4,11.1,2.9,21.1,4.5,29.8c6.4-0.6,13-0.9,19.9-0.9l0.1,27c1-0.1,2-0.1,3-0.1c0.7,0,1.4-0.1,2.1-0.1c2.8,0,5.5,0.1,8,0.3
			c-3,10.2-6.1,16.8-9.4,19.6c7.7-1.5,15-7.4,21.8-17.9c3.2,0.7,6.3,1.5,9.2,2.5c-9.8,9.3-20.1,14.4-31.1,15.4
			c-1.3,1-2.5,1.5-3.7,1.5l-0.1,0.5c0,0-0.1,0-0.1,0l-4.5-0.1c-12.7-0.4-24.9-2.9-36.6-7.4c-1.1,1.1-1.9,2.2-2.5,3.4
			c-15.7-4.6-30.7-11.8-44.9-21.6c-2.9,2-5.4,4.1-7.5,6.3c16.1,8.9,33.1,15.2,50.9,19c0,0.1,0,0.3,0,0.4c4,0.7,8,1.3,12,1.8
			 M13.3,300.4h0.3v-1.3c0.1-17.2,1.4-33.8,4.1-49.8 M182.8,446.4c3.5,11.5,7.6,22.6,12.1,33.3c7.5-1.8,15.1-3.4,23-4.8
			c1.8,5.9,3.8,11.7,5.8,17.3c2,5.4,4,10.6,6.1,15.6c6.8-1.5,13.7-2.8,20.9-3.8c3.1,11.3,6.4,21.3,9.8,29.9c6.1-1.1,12.5-2,19.1-2.6
			c2,11.2,4.1,20.4,6.4,27.6c4.2-0.8,8.7-1.3,13.5-1.5v20c0.9,0,1.9-0.1,2.9-0.2c0.3,0,0.6-0.1,0.9-0.1c-0.1,0.1-0.1,0.1-0.1,0.1
			c-0.3,0-0.6,0-0.8,0c-1,0.2-2,0.3-2.9,0.3v1.2c-0.7,0-1.3-0.1-1.9-0.3c-0.8-0.2-1.4-0.6-2-1.1c-10-0.7-19.5-4.8-28.4-12.1
			c-2.3,1.2-4.4,2.4-6,3.8c10.6,6.1,21.8,9.5,33.6,10.1 M194.1,518.6c5.4-2.1,11-4.1,16.8-5.8c-3.1-5.4-6.1-11.2-9-17.3
			c-2.5-5.2-4.8-10.4-7-15.8c-7.4,1.8-14.6,3.7-21.6,5.9c2.2,4,4.4,8,6.8,11.9C184.6,505.1,189.3,512.1,194.1,518.6
			c8.3,11.3,17,21,26.1,29.2c1.5-0.8,3-1.5,4.6-2.3c2.1-1,4.2-1.9,6.3-2.8c-7-8.5-13.8-18.4-20.1-29.9c6.1-1.8,12.4-3.5,18.9-4.9
			c4.7,11.4,9.7,21.4,14.9,29.9c5-1.5,10.3-2.8,15.8-3.8c4.5,11.7,9.4,21,14.5,28c3.5-1.2,7.2-2.2,11.1-3c3,9.5,6.1,15.6,9.5,18.3
			c0.3,0.1,0.7,0.1,1.1,0.1c0.3,0,0.6,0.1,0.9,0.1c0.6,0,1.3,0,2,0v0.1c-0.8,0-1.5,0-2.1-0.1c-0.4,0-0.6,0-0.9-0.1
			c-0.4,0-0.7,0-0.9,0c-0.1,0-0.1-0.1-0.1-0.1c-7.3-1.3-14.2-6.4-20.6-15.3c-2.1,0.8-4.2,1.6-6.1,2.5c-0.5,0.2-1,0.5-1.5,0.8
			c-8-6.5-15.5-15.7-22.6-27.4c-4.7,1.4-9.3,3-13.6,4.9c9.5,11.5,19.6,20.2,30.2,26.3c-1.2,0.9-2.2,1.8-3.1,2.7
			c-13.4-5.2-26-13.2-38-23.9c-3.5,1.8-6.6,3.7-9.4,5.7c-11.1-7.7-21.8-17.1-31.9-28.1c-4.9,2.4-9.5,4.9-13.7,7.5
			c12.1,10.7,24.8,19.6,38.1,26.9c-1,1-1.9,2-2.7,3c17,7.7,34.9,13.2,53.6,16.5c-0.2,0.8-0.2,1.6-0.3,2.4c0,0.1,0,0.3,0,0.5
			 M194.1,518.6c-4.6,1.8-9,3.8-13.4,5.9c-0.6,0.3-1.2,0.6-1.8,0.9c-7.6-8.2-14.9-17.3-21.9-27.3c-1.3-1.8-2.5-3.6-3.8-5.4
			c-6.4,2.5-12.6,5.1-18.8,7.9c9.8,12.1,20.1,22.8,30.8,32.3c-2.5,1.5-4.9,3.1-7.1,4.7c13.5,10.1,27.7,18.5,42.5,25.2
			c-1.4,1.6-2.5,3.2-3.4,4.9 M109.8,513.8c4.1-2.6,8.5-5.1,13.2-7.5c-1.8-1.9-3.5-3.8-5.3-5.8c-7.9-8.8-15.2-17.9-21.9-27.4
			c-3.9,1.7-7.8,3.5-11.6,5.3c-2,0.9-3.9,1.9-5.8,2.8 M123,506.3c3-1.6,6.2-3.2,9.4-4.8c0.7-0.3,1.3-0.6,1.9-1l0,0
			c-8.7-10.7-16.5-21.9-23.6-33.5c-5.1,2-10.1,4-15,6.1c-7.3-10.4-13.9-21.1-19.7-32.2c-7.1,2.7-14.1,5.5-21,8.4 M157.7,452
			c-8.2,2.1-16.2,4.4-24.1,6.9c5.8,11.7,12.3,22.9,19.5,33.6c6.5-2.5,13.3-4.9,20.2-7C167.5,474.8,162.3,463.6,157.7,452
			c-4.1-10.2-7.6-20.8-10.8-31.8c-9.2,2-18.2,4.3-27,6.7c4,11,8.5,21.7,13.7,32c-7.8,2.5-15.4,5.2-22.8,8
			c-6.3-10.4-11.9-21.2-16.8-32.3c-6.1,2-12,4.1-17.9,6.3c-7.7-14.7-14-30-18.9-46c-8.6,2.4-17.1,5-25.4,7.8 M123,506.3
			c11.2,11.8,22.8,22.2,35.1,31.3c-3,2.2-5.8,4.4-8.3,6.6 M182.8,446.4c-8.5,1.7-16.9,3.6-25.1,5.6 M306.6,20.4
			c12.7,1.2,24.8,5.6,36.1,13.4"/>
	</g>
</g>
</svg>
