<?xml version="1.0" encoding="utf-8"?>
<!-- Generator: Adobe Illustrator 23.0.3, SVG Export Plug-In . SVG Version: 6.00 Build 0)  -->
<svg version="1.1" id="Layer_1" xmlns="http://www.w3.org/2000/svg" xmlns:xlink="http://www.w3.org/1999/xlink" x="0px" y="0px"
	 viewBox="0 0 641.15 700" style="enable-background:new 0 0 641.15 700;" xml:space="preserve">
<style type="text/css">
	.st0{fill:#273530;}
	.st1{fill:#38434C;}
	.st2{fill:#717E7F;}
	.st3{fill:#516040;}
	.st4{fill:#4A5736;}
	.st5{fill:#3E4E5E;}
	.st6{fill:#869593;}
	.st7{fill:#657175;}
	.st8{fill:#7A8E8F;}
	.st9{fill:#9C6187;}
	.st10{fill:#363D31;}
	.st11{fill:#3B474D;}
	.st12{fill:#2A383D;}
	.st13{fill:#4D563E;}
	.st14{fill:#536D26;}
	.st15{fill:#2A332E;}
	.st16{fill:#5B7534;}
	.st17{fill:#4E5316;}
	.st18{fill:#7A8E8D;}
	.st19{fill:#657877;}
	.st20{fill:#6C726E;}
	.st21{fill:#7F897B;}
	.st22{fill:#017F02;}
	.st23{fill:#43A644;}
	.st24{fill:#287A25;}
	.st25{fill:#00C200;}
	.st26{fill:#642E56;}
	.st27{fill:#BD3EAE;}
	.st28{fill:#56604E;}
	.st29{fill:#313838;}
	.st30{fill:#667653;}
	.st31{fill:#552F2D;}
	.st32{fill:#384122;}
	.st33{fill:#9EABB3;}
	.st34{fill:#38464E;}
	.st35{fill:#D42FBA;}
	.st36{fill:#3D3921;}
	.st37{fill:#6B2E2C;}
	.st38{fill:#787251;}
	.st39{fill:#7A888B;}
	.st40{fill:#BFD7DC;}
	.st41{fill:#C3D2D4;}
	.st42{fill:#697779;}
	.st43{fill:#7D868B;}
	.st44{fill:#CCC8CB;}
	.st45{fill:#B16D6A;}
	.st46{fill:#435D39;}
	.st47{fill:#3D4D2F;}
	.st48{fill:#505A41;}
	.st49{fill:#46563B;}
	.st50{fill:#566968;}
	.st51{fill:#4A5C63;}
	.st52{fill:#4B5954;}
	.st53{fill:#8199A1;}
	.st54{fill:#345FC0;}
	.st55{fill:#324573;}
	.st56{fill:#2F4A54;}
	.st57{fill:#664E0F;}
	.st58{fill:#F3DE5B;}
	.st59{fill:#B6C4C6;}
	.st60{fill:#293437;}
	.st61{fill:#454C5D;}
	.st62{fill:#9FB6C0;}
	.st63{fill:#5F747C;}
	.st64{fill:#393B3F;}
	.st65{fill:#BBCBCE;}
	.st66{fill:#ABBAC1;}
	.st67{fill:#9EA8AC;}
	.st68{fill:#7B898C;}
	.st69{fill:#524123;}
	.st70{fill:#673F12;}
	.st71{fill:#BECDD7;}
	.st72{fill:#7E8B8E;}
	.st73{fill:#748889;}
	.st74{fill:#5A6771;}
	.st75{fill:#8A5A16;}
	.st76{fill:#7E8D90;}
	.st77{fill:#9A5F22;}
	.st78{fill:#C87D25;}
	.st79{fill:#6F421C;}
	.st80{fill:#FDAD37;}
	.st81{fill:#477FA5;}
	.st82{fill:#4A6E86;}
	.st83{fill:#F4B352;}
	.st84{fill:#F6B93F;}
	.st85{fill:#78430B;}
	.st86{fill:#CE7C30;}
	.st87{fill:#695443;}
	.st88{fill:#DF8931;}
	.st89{fill:#553714;}
	.st90{fill:#EFBE61;}
	.st91{fill:#515D5B;}
	.st92{fill:#536160;}
	.st93{fill:#876A4D;}
	.st94{fill:#704B0D;}
	.st95{fill:#FCC142;}
	.st96{fill:#928871;}
	.st97{fill:#F6CD6F;}
	.st98{fill:#BAD0CD;}
	.st99{fill:#1D5340;}
	.st100{fill:#437D96;}
	.st101{fill:#E6B54A;}
	.st102{fill:#316CCB;}
	.st103{fill:#304B76;}
	.st104{fill:#805522;}
	.st105{fill:#7F5C27;}
	.st106{fill:#6D4F24;}
	.st107{fill:#CE5EAB;}
	.st108{fill:#B9CED2;}
	.st109{fill:#707A7C;}
	.st110{fill:#F0DCAA;}
	.st111{fill:#997A2E;}
	.st112{fill:#84592C;}
	.st113{fill:#4B4027;}
	.st114{fill:#847A66;}
	.st115{fill:#594A34;}
	.st116{fill:#867A67;}
	.st117{fill:#000200;}
	.st118{fill:#ADAFAD;}
	.st119{fill:#E5AF43;}
	.st120{fill:#765B1E;}
	.st121{fill:#7D725C;}
	.st122{fill:#91641C;}
	.st123{fill:#B8A14C;}
	.st124{fill:#D2BA58;}
	.st125{fill:#5A3C0F;}
	.st126{fill:#F3BC47;}
	.st127{fill:#975B1D;}
	.st128{fill:#8A5A26;}
	.st129{fill:#A78753;}
	.st130{fill:#715212;}
	.st131{fill:#C7782A;}
	.st132{fill:#333333;}
	.st133{fill:#E9AA2A;}
	.st134{fill:#6B5B48;}
	.st135{fill:#FEA93F;}
	.st136{fill:#EAD6AC;}
	.st137{fill:#957444;}
	.st138{fill:#5A4B1C;}
	.st139{fill:#EAAA6A;}
	.st140{fill:#7C8C92;}
	.st141{fill:#7F7769;}
	.st142{fill:#867965;}
	.st143{fill:#BEB7A6;}
	.st144{fill:#F9BA41;}
	.st145{fill:#4C432D;}
	.st146{fill:#7B8D8E;}
	.st147{fill:#7A8B8D;}
	.st148{fill:#8E845F;}
	.st149{fill:#7A8C94;}
	.st150{fill:#ADB7AC;}
	.st151{fill:#49473B;}
	.st152{fill:#F2DDA9;}
	.st153{fill:#7F5E27;}
	.st154{fill:#C4BC8C;}
	.st155{fill:#845E1E;}
	.st156{fill:#695E48;}
	.st157{fill:#5C5443;}
	.st158{fill:#E6D8AE;}
	.st159{fill:#968D5E;}
	.st160{fill:#BFB09B;}
	.st161{fill:#C5BE92;}
	.st162{fill:#786B54;}
	.st163{fill:#008004;}
	.st164{fill:#73817A;}
	.st165{fill:#3F4046;}
	.st166{fill:#53535A;}
	.st167{fill:#6C706F;}
	.st168{fill:#666969;}
	.st169{fill:#647E68;}
	.st170{fill:#314131;}
	.st171{fill:#AEB2A5;}
	.st172{fill:#135014;}
	.st173{fill:#4C9F44;}
	.st174{fill:#24801A;}
	.st175{fill:#2D3531;}
	.st176{fill:#09BC07;}
	.st177{fill:#3A9A35;}
	.st178{fill:#335537;}
	.st179{fill:#7D6231;}
	.st180{fill:#EAD1AD;}
	.st181{fill:#FABE43;}
	.st182{fill:#9D6715;}
	.st183{fill:#DD9E3A;}
	.st184{fill:#364039;}
	.st185{fill:#1F4425;}
	.st186{fill:#BED4DA;}
	.st187{fill:#933881;}
	.st188{fill:#135119;}
	.st189{fill:#1B521D;}
	.st190{fill:#23421D;}
	.st191{fill:#871D78;}
	.st192{fill:#C139A9;}
	.st193{fill:#374720;}
	.st194{fill:#326AC8;}
	.st195{fill:#3F362C;}
	.st196{fill:#B0289B;}
	.st197{fill:#0001CE;}
	.st198{fill:#0B0994;}
	.st199{fill:#08079B;}
	.st200{fill:#1015AB;}
	.st201{fill:#0E099A;}
	.st202{fill:#787253;}
	.st203{fill:#534E3B;}
	.st204{fill:#FD49FB;}
	.st205{fill:#8B2F7D;}
	.st206{fill:#463E31;}
	.st207{fill:#0C0B92;}
	.st208{fill:#A29F99;}
	.st209{fill:#76744D;}
	.st210{fill:#68654B;}
	.st211{fill:#797257;}
	.st212{fill:#7C7A6C;}
	.st213{fill:none;stroke:#000000;stroke-miterlimit:10;}
</style>
<g transform="matrix( 1, 0, 0, 1, 0,0) ">
	<g transform="matrix( 1.6710357666015625, 0, 0, 1.6710357666015625, 8.35,7.05) ">
		<g transform="matrix( 1, 0, 0, 1, 0,0) ">
			<g>
				<g id="Symbol_1_0_Layer0_0_FILL">
					<g>
						<path class="st0" d="M239.18,216.35l-0.05-1.45l-1.85,0.4v0.3l0.2,3.05l0.3,0.15l1.4-0.6V216.35z"/>
					</g>
					<g>
						<path class="st1" d="M230.38,213.85l0.05,1.7l7.05,3.1l-0.2-3.05l-4.6-0.9l-0.05-1.55L230.38,213.85z"/>
					</g>
					<g>
						<path class="st2" d="M263.23,212.6c-0.13-0.47-0.7-0.88-1.7-1.25c-1.1-0.4-2.43-0.6-4-0.6s-2.92,0.2-4.05,0.6
							c-1.1,0.4-1.65,0.88-1.65,1.45c0,0.57,0.55,1.05,1.65,1.45c1.13,0.4,2.48,0.6,4.05,0.6c1.57,0,2.9-0.2,4-0.6
							c0.97-0.33,1.53-0.73,1.7-1.2c0-0.1,0-0.18,0-0.25C263.23,212.73,263.23,212.67,263.23,212.6z"/>
					</g>
					<g>
						<path class="st3" d="M244.08,216v-1.3l-4.9,1.65v1.85L244.08,216z"/>
					</g>
					<g>
						<path class="st4" d="M244.08,214.7v-1.05l-4-0.2v-0.75v-1.85l-7.45,2.3l0.05,1.55l4.6,0.9v-0.3l1.85-0.4l0.05,1.45
							L244.08,214.7z"/>
					</g>
					<g>
						<path class="st5" d="M244.08,213.65v1.05v1.3l1.8-0.75l0.15-2.55l-1.95,0.3V213.65z"/>
					</g>
					<g>
						<path class="st6" d="M246.03,212.7v-0.05l-5.95,0.05v0.75l4,0.2V213L246.03,212.7z"/>
					</g>
					<g>
						<path class="st7" d="M286.08,290.35l0.6-0.2l-0.1-7.75l-27.2-7.35l-0.2,8.65l0.75-0.25L286.08,290.35z"/>
					</g>
					<g>
						<path class="st8" d="M300.58,279.05v-0.7l-0.95-1.1l-13.05,4.45v0.7l0.1,7.75l13.9-4.1V279.05z"/>
					</g>
					<g>
						<path class="st9" d="M302.33,269.8l-7.45,2.15l4.75,5.3l0.95,1.1v0.7l1.85-0.5L302.33,269.8z"/>
					</g>
					<g>
						<path class="st10" d="M282.93,215.4l-0.2-1.35l-1.65,0.55L282.93,215.4 M279.23,213.8l0.15,1.35l1.7-0.55L279.23,213.8
							 M272.23,213.25l0.2,2.8h3.7l-0.05-0.7l1.1-2.45l2.05,0.9l-0.05-0.6l-1.95-0.4l-0.3-0.05l-1.85-0.8l-3.55-1.6l-4.05,3.15
							l-0.05-1.4l-2.25,0.1l0.2,0.05l-0.25-0.05l-0.25,3.45l3.5,1.8l3.15-4.2H272.23 M276.23,210.8l0.25,0.15l1.4-1L276.23,210.8
							 M280.18,208.75l1.9,0.95l0.6-2.25L280.18,208.75 M282.68,207.35l0.1-0.45l-0.5,0.25L282.68,207.35 M285.23,208.55l-0.45-0.25
							v0.3L285.23,208.55z"/>
					</g>
					<g>
						<path class="st11" d="M265.13,212.2l0.25,0.05l-0.2-0.05l-1.95-0.6v1c0,0.07,0,0.13,0,0.2c0,0.07,0,0.15,0,0.25l-0.05,1.7
							l1.7,0.9L265.13,212.2z"/>
					</g>
					<g>
						<path class="st12" d="M272.43,216.05l-0.2-2.8h-0.7l-3.15,4.2l0.6,0.3l-0.05,0.6l3.6-0.3L272.43,216.05z"/>
					</g>
					<g>
						<path class="st13" d="M273.18,209.05l-1.65,1.3l3.55,1.6l1.4-1l-0.25-0.15l-2.8-1.85L273.18,209.05z"/>
					</g>
					<g>
						<path class="st14" d="M284.78,208.6v-0.3l-2.1-0.95v0.1l-0.6,2.25l-1.9-0.95l-1.6,0.85v0.2l-1.35,3l1.95,0.4l0.05,0.6
							l1.85,0.8l1.65-0.55l0.2,1.35l0.05,0.05l2.25-1.15L284.78,208.6z"/>
					</g>
					<g>
						<path class="st15" d="M313.08,237.55l0.45,0.3l3.25-0.8l0.25-0.15l0.95-0.25l8.15-2.05l-6.35-2.85L313.08,237.55z"/>
					</g>
					<g>
						<path class="st16" d="M333.28,221.95v-1.2c-0.23-0.1-0.45-0.18-0.65-0.25c-0.07-0.03-0.13-0.05-0.2-0.05
							c-0.1-0.03-0.17-0.05-0.2-0.05c-4.2-1.27-6.97,1.3-8.3,7.7v0.05l-4.15,3.6l6.35,2.85l4.2,1.85l0.1-1.85
							c-2.23-1-3.45-2.53-3.65-4.6c-0.03-0.2-0.05-0.38-0.05-0.55v-0.1c0.1-4.63,2.27-6.92,6.5-6.85L333.28,221.95z"/>
					</g>
					<g>
						<path class="st17" d="M326.63,218.55c-0.9,0.17-1.67,0.43-2.3,0.8c-2,1.13-2.9,3.3-2.7,6.5l-1.5,1.05l-0.85,0.6l-3.65,2.45
							l-0.4,0.15l-5.2,5.6l3.05,1.85l6.7-5.8l4.15-3.6v-0.05c1.33-6.4,4.1-8.97,8.3-7.7L326.63,218.55z"/>
					</g>
					<g>
						<path class="st18" d="M139.58,313.9c-1.27,0.33-1.97,0.47-2.1,0.4l-0.55,6.7l0.3-0.2l17.7-4.45l38.05-11.9l5-1.55l25.2-7.9
							l15.8-5l10.05-3.15l10.15-3.15l0.2-8.65L139.58,313.9z"/>
					</g>
					<g>
						<path class="st19" d="M56.08,276.1l-10.95-4.9v6.8l40,18.7l20.9,9.8l0.6,0.3l1.95,0.9l11,5.15l4.45,2.1l5.35,2.5l4.4,2.05
							l2.7,1.25l0.45,0.25l0.55-6.7v-0.1l-12.7-6.7l0.7-0.3l-1.05-0.5l-5.6-2.5l-4.3-1.9l-7.4-3.35l-31.7-14.2h-0.05l-1.9-0.85
							l-3.65-1.65l-6-2.7L56.08,276.1 M284.28,276.45c0,0.17,0.13,0.3,0.4,0.4c0.3,0.13,0.65,0.2,1.05,0.2s0.73-0.07,1-0.2
							c0.3-0.1,0.45-0.23,0.45-0.4s-0.15-0.32-0.45-0.45c-0.27-0.1-0.6-0.15-1-0.15s-0.75,0.05-1.05,0.15
							C284.42,276.13,284.28,276.28,284.28,276.45 M272.88,275.25c-0.3-0.13-0.65-0.2-1.05-0.2s-0.75,0.07-1.05,0.2
							c-0.3,0.13-0.45,0.3-0.45,0.5c0,0.2,0.15,0.37,0.45,0.5c0.3,0.13,0.65,0.2,1.05,0.2s0.75-0.07,1.05-0.2
							c0.3-0.13,0.45-0.3,0.45-0.5C273.33,275.55,273.18,275.38,272.88,275.25 M280.03,274.95c1,0,1.85-0.15,2.55-0.45
							c0.7-0.27,1.05-0.6,1.05-1s-0.35-0.75-1.05-1.05c-0.7-0.27-1.55-0.4-2.55-0.4c-0.93,0-1.73,0.12-2.4,0.35h-10.05v1.2h8.85
							c0.07,0.37,0.42,0.67,1.05,0.9C278.18,274.8,279.03,274.95,280.03,274.95 M272.03,270.15c-0.27,0.13-0.4,0.28-0.4,0.45
							c0,0.17,0.13,0.3,0.4,0.4c0.27,0.13,0.6,0.2,1,0.2c0.4,0,0.73-0.07,1-0.2c0.27-0.1,0.4-0.23,0.4-0.4
							c0-0.17-0.13-0.32-0.4-0.45c-0.27-0.1-0.6-0.15-1-0.15C272.63,270,272.3,270.05,272.03,270.15 M287.58,270.2
							c-0.4,0-0.75,0.03-1.05,0.1c-0.3,0.1-0.45,0.22-0.45,0.35c0,0.13,0.15,0.23,0.45,0.3c0.3,0.1,0.65,0.15,1.05,0.15
							c0.4,0,0.75-0.05,1.05-0.15c0.3-0.07,0.45-0.17,0.45-0.3c0-0.13-0.15-0.25-0.45-0.35C288.33,270.23,287.98,270.2,287.58,270.2
							 M333.98,244.35c-1.17-0.43-2.6-0.65-4.3-0.65s-3.15,0.22-4.35,0.65c-1.17,0.47-1.75,1.02-1.75,1.65s0.58,1.17,1.75,1.6
							c1.2,0.47,2.65,0.7,4.35,0.7s3.13-0.23,4.3-0.7c1.2-0.43,1.8-0.97,1.8-1.6S335.18,244.82,333.98,244.35 M328.03,242.5
							c-0.3-0.13-0.65-0.2-1.05-0.2s-0.75,0.07-1.05,0.2c-0.3,0.17-0.45,0.35-0.45,0.55c0,0.2,0.15,0.37,0.45,0.5
							c0.3,0.17,0.65,0.25,1.05,0.25s0.75-0.08,1.05-0.25c0.3-0.13,0.45-0.3,0.45-0.5C328.48,242.85,328.33,242.67,328.03,242.5
							 M327.13,239.5c0.3,0.17,0.65,0.25,1.05,0.25s0.75-0.08,1.05-0.25c0.3-0.13,0.45-0.3,0.45-0.5s-0.15-0.38-0.45-0.55
							c-0.3-0.13-0.65-0.2-1.05-0.2s-0.75,0.07-1.05,0.2c-0.3,0.17-0.45,0.35-0.45,0.55S326.83,239.37,327.13,239.5 M333.43,240.8
							c-0.4,0-0.75,0.07-1.05,0.2c-0.3,0.17-0.45,0.35-0.45,0.55c0,0.2,0.15,0.37,0.45,0.5c0.3,0.17,0.65,0.25,1.05,0.25
							s0.75-0.08,1.05-0.25c0.3-0.13,0.45-0.3,0.45-0.5c0-0.2-0.15-0.38-0.45-0.55C334.18,240.87,333.83,240.8,333.43,240.8
							 M320.38,240.45c-0.3,0.17-0.45,0.35-0.45,0.55s0.15,0.37,0.45,0.5c0.3,0.17,0.65,0.25,1.05,0.25s0.75-0.08,1.05-0.25
							c0.3-0.13,0.45-0.3,0.45-0.5s-0.15-0.38-0.45-0.55c-0.3-0.13-0.65-0.2-1.05-0.2S320.68,240.32,320.38,240.45z"/>
					</g>
					<g>
						<path class="st20" d="M142.13,295.2l-0.25,0.15l-17.45,11.35l1.05,0.5l16.6-6.55L142.13,295.2z"/>
					</g>
					<g>
						<path class="st21" d="M141.88,295.35l-4.2-0.55l0.45-0.5l-0.45,0.3l-11.35,7.7l-1.4,0.9l-0.25,0.15l-0.7-0.35l-1.85-0.9
							l0.35,0.25l-0.3-0.15l-3.35,2l5.6,2.5L141.88,295.35z"/>
					</g>
					<g>
						<path class="st22" d="M137.13,281.7l0.05,0.7l-11.15,5.8l0.3,14.1l11.35-7.7l-0.4-13.65L137.13,281.7z"/>
					</g>
					<g>
						<path class="st23" d="M136.98,280.35l-0.1-0.05l-12.3,7.05l0.35,15.85l1.4-0.9l-0.3-14.1l11.15-5.8L136.98,280.35z"/>
					</g>
					<g>
						<path class="st24" d="M114.88,281.75l-1.25,0.7l10.8,5l0.15-0.1l12.3-7.05l-11.55-4.6l-5.95,3.45L114.88,281.75
							 M133.78,280.55l-9.9,5.5l-7.9-3.85l9.3-5.1L133.78,280.55 M87.98,256.85l-0.55-0.2l-11.15-4.15l-13.25,7.4l0.05,0.05
							c3.2,1.2,6.9,2.62,11.1,4.25L87.98,256.85 M74.88,262.7l-8.65-3.2l10.35-5.4l8.25,3.05L74.88,262.7z"/>
					</g>
					<g>
						<path class="st25" d="M123.88,286.05l9.9-5.5l-8.5-3.45l-9.3,5.1L123.88,286.05z"/>
					</g>
					<g>
						<path class="st26" d="M119.23,270.15l-1.35-0.2v0.55L119.23,270.15 M99.78,268l-1.6,0.55l1.6,0.75V268 M104.53,271.55l-2.05-1
							v11.9l-3.85-0.25v0.25c-7.27,4.37-2.37,7.07,14.7,8.1l-0.15-7.85l0.45-0.25l1.25-0.7l0.05-10.55l-2.75,0.7l0.35,15.1
							l-3.95,1.4l-0.2,0.1v-0.15l-4-1.5L104.53,271.55z"/>
					</g>
					<g>
						<path class="st27" d="M119.38,270.15h-0.15l-1.35,0.35l-2.95,0.7l-0.05,10.55l4.5-2.6V270.15z"/>
					</g>
					<g>
						<path class="st28" d="M138.78,246.1l-1.05,0.1l-0.9-0.45l0.05,3.5l0.9,0.35l1.05-0.55L138.78,246.1z"/>
					</g>
					<g>
						<path class="st29" d="M136.83,245.75l-3.75-1.95l-5.45,1.65l9.25,3.8L136.83,245.75z"/>
					</g>
					<g>
						<path class="st30" d="M136.78,242.65l0.05,3.1l0.9,0.45l1.05-0.1l0.05,2.95l3.1-1.5l-0.15-2.9l-3.15-2.6L136.78,242.65z"/>
					</g>
					<g>
						<path class="st31" d="M128.08,231.2v-2.1v-6.75l-5.15,1.55l-0.4,8.2c5.83,0.6,8.3,3.95,7.4,10.05l3.15,1.65l3.7-1.15l1.85-0.6
							l1.15-0.35l-5.65-2.25h0.1c-0.8-5.3-2.85-7.88-6.15-7.75V231.2z"/>
					</g>
					<g>
						<path class="st32" d="M120.63,224.6l-0.2,6.45v1c-0.1,0.23-0.17,0.47-0.2,0.7c-1.3,5.1,0.02,8.88,3.95,11.35l3.45,1.35
							l5.45-1.65l-3.15-1.65c0.9-6.1-1.57-9.45-7.4-10.05l0.4-8.2L120.63,224.6z"/>
					</g>
					<g>
						<path class="st33" d="M144.03,243.75v-0.4l-4.25-1.65l-1.15,0.35l3.15,2.6l-0.05-0.1L144.03,243.75z"/>
					</g>
					<g>
						<path class="st34" d="M144.03,246.5v-2.75l-2.3,0.8l0.05,0.1l0.15,2.9L144.03,246.5z"/>
					</g>
					<g>
						<path class="st35" d="M116.83,162.6l-9.2-4.3l0.2,114.65l4.35-1.05l2.75-0.7l2.95-0.7v-0.55l0.4-21.5l0.05-16.65l0.85-69.55
							l-1.8,0.6l-0.55,0.15V162.6z"/>
					</g>
					<g>
						<path class="st36" d="M223.08,192.25l0.25-0.1l-1.45-0.35l-0.1,8.05l-0.15,8.25c0.03,0.27,0.1,0.53,0.2,0.8
							c0.9,2.83,3.07,4.68,6.5,5.55l0.45,0.4l1.65,0.7l-0.05-1.7v-1.4l0.25-1.4c-1.63-5.57-4.13-7.88-7.5-6.95L223.08,192.25z"/>
					</g>
					<g>
						<path class="st37" d="M229.13,197.55l-0.3-6.8l-5.5,1.4l-0.25,0.1l0.05,11.85c3.37-0.93,5.87,1.38,7.5,6.95l-0.25,1.4v1.4
							l2.25-0.7l7.45-2.3l0.05-0.05v-0.55h-0.05v-0.05l-3.35-0.45l-1.6-1.65l-0.3,0.1c-0.03-0.17-0.07-0.33-0.1-0.5
							c-0.77-3.3-2.28-5.72-4.55-7.25l-0.95,0.25L229.13,197.55z"/>
					</g>
					<g>
						<path class="st38" d="M244.68,57.1l0.05,3.2l0.5,20.35l0.95,39.35l-1.2,0.35l-8.45,2.7l-1.45,0.45l-9.05,2.85l-1.9,0.6
							l-8.45,2.65l-1.95,0.6l-7.9,2.5l-2,0.65l-8.45,2.65l-2.2,0.7l-8.25,2.6l-1.8,0.55l-8.5,2.7l-1.2,0.4l-8.65,2.7l-1.55,0.5
							l-8.6,2.7l-1.5,0.5l-8.05,2.55l-2.4,0.75v1.7l-23.5,7.9l-0.85,69.55l2.1-0.75l0.2-6.45l0.05-1.6l6.6-1.6l0.95,0.8l-0.3-0.15
							l0.15,0.3v6.75l93.7-29.25l0.1-8.05l5.55-1.45l1.4,0.4l0.3,6.8l23.7-7.4l0.35-135.6L244.68,57.1z"/>
					</g>
					<g>
						<path class="st39" d="M351.48,255.65l2.2-0.65l-0.5-7.55l-63.9,18.25l5.6,6.25l7.45-2.15l21.25-6.1l13.35-3.85L351.48,255.65z
							"/>
					</g>
					<g>
						<path class="st40" d="M353.18,247.45l-0.1-0.95l-22.75-10.05l-4.2-1.85l-8.15,2.05l-1.2,0.4l-3.25,0.8l-0.85,0.05l0.4-0.35
							l-3.05-1.85l5.2-5.6l0.25-0.25l-32.5-14.4h-0.05v-0.05l-1.85-0.8l-1.7,0.55l-0.15-1.35l-2.05-0.9l-1.1,2.45l0.05,0.7h-3.7
							l0.1,2l-3.6,0.3l0.05-0.6l-0.6-0.3l-3.5-1.8l-1.7-0.9l0.05-1.7c-0.17,0.47-0.73,0.87-1.7,1.2c-1.1,0.4-2.43,0.6-4,0.6
							c-1.57,0-2.92-0.2-4.05-0.6c-1.1-0.4-1.65-0.88-1.65-1.45c0-0.57,0.55-1.05,1.65-1.45c1.13-0.4,2.48-0.6,4.05-0.6
							s2.9,0.2,4,0.6c1,0.37,1.57,0.78,1.7,1.25v-1l1.95,0.6l2.25-0.1l0.05,1.4l4.05-3.15l-12.4-5.35l-19,5.8l-0.05,0.05v1.85
							l5.95-0.05v0.05l-0.15,2.55l-1.8,0.75l-4.9,2.2l-1.4,0.6l-0.3,0.1v-0.25l-7.05-3.1l-1.65-0.7l-0.45-0.4l-88.55,27.25
							l4.25,1.65v0.4v2.75l-2.1,1.05l-3.1,1.5l-1.05,0.55l-0.9-0.35l-9.25-3.8l-9.35,3l-0.4,21.5l1.35,0.2h0.15v9l5.95-3.45
							l11.55,4.6l0.1-0.25v0.3l0.2,2.05l-0.05-0.7l0.15-0.75l0.4,13.65l0.45-0.3l-0.45,0.5l4.2,0.55l0.25-0.15l-0.05,5.45
							l-16.6,6.55l-0.7,0.3l12.7,6.7v0.1c0.13,0.07,0.83-0.07,2.1-0.4l119.8-38.85l27.2,7.35v-0.7l13.05-4.45l-4.75-5.3l-5.6-6.25
							L353.18,247.45 M319.93,241c0-0.2,0.15-0.38,0.45-0.55c0.3-0.13,0.65-0.2,1.05-0.2s0.75,0.07,1.05,0.2
							c0.3,0.17,0.45,0.35,0.45,0.55s-0.15,0.37-0.45,0.5c-0.3,0.17-0.65,0.25-1.05,0.25s-0.75-0.08-1.05-0.25
							C320.08,241.37,319.93,241.2,319.93,241 M332.38,241c0.3-0.13,0.65-0.2,1.05-0.2s0.75,0.07,1.05,0.2
							c0.3,0.17,0.45,0.35,0.45,0.55c0,0.2-0.15,0.37-0.45,0.5c-0.3,0.17-0.65,0.25-1.05,0.25s-0.75-0.08-1.05-0.25
							c-0.3-0.13-0.45-0.3-0.45-0.5C331.93,241.35,332.08,241.17,332.38,241 M328.18,239.75c-0.4,0-0.75-0.08-1.05-0.25
							c-0.3-0.13-0.45-0.3-0.45-0.5s0.15-0.38,0.45-0.55c0.3-0.13,0.65-0.2,1.05-0.2s0.75,0.07,1.05,0.2
							c0.3,0.17,0.45,0.35,0.45,0.55s-0.15,0.37-0.45,0.5C328.93,239.67,328.58,239.75,328.18,239.75 M326.98,242.3
							c0.4,0,0.75,0.07,1.05,0.2c0.3,0.17,0.45,0.35,0.45,0.55c0,0.2-0.15,0.37-0.45,0.5c-0.3,0.17-0.65,0.25-1.05,0.25
							s-0.75-0.08-1.05-0.25c-0.3-0.13-0.45-0.3-0.45-0.5c0-0.2,0.15-0.38,0.45-0.55C326.23,242.37,326.58,242.3,326.98,242.3
							 M329.68,243.7c1.7,0,3.13,0.22,4.3,0.65c1.2,0.47,1.8,1.02,1.8,1.65s-0.6,1.17-1.8,1.6c-1.17,0.47-2.6,0.7-4.3,0.7
							s-3.15-0.23-4.35-0.7c-1.17-0.43-1.75-0.97-1.75-1.6s0.58-1.18,1.75-1.65C326.53,243.92,327.98,243.7,329.68,243.7
							 M286.53,270.3c0.3-0.07,0.65-0.1,1.05-0.1c0.4,0,0.75,0.03,1.05,0.1c0.3,0.1,0.45,0.22,0.45,0.35c0,0.13-0.15,0.23-0.45,0.3
							c-0.3,0.1-0.65,0.15-1.05,0.15c-0.4,0-0.75-0.05-1.05-0.15c-0.3-0.07-0.45-0.17-0.45-0.3
							C286.08,270.52,286.23,270.4,286.53,270.3 M271.63,270.6c0-0.17,0.13-0.32,0.4-0.45c0.27-0.1,0.6-0.15,1-0.15
							c0.4,0,0.73,0.05,1,0.15c0.27,0.13,0.4,0.28,0.4,0.45c0,0.17-0.13,0.3-0.4,0.4c-0.27,0.13-0.6,0.2-1,0.2
							c-0.4,0-0.73-0.07-1-0.2C271.77,270.9,271.63,270.77,271.63,270.6 M282.58,274.5c-0.7,0.3-1.55,0.45-2.55,0.45
							s-1.85-0.15-2.55-0.45c-0.63-0.23-0.98-0.53-1.05-0.9h-8.85v-1.2h10.05c0.67-0.23,1.47-0.35,2.4-0.35c1,0,1.85,0.13,2.55,0.4
							c0.7,0.3,1.05,0.65,1.05,1.05S283.28,274.23,282.58,274.5 M271.83,275.05c0.4,0,0.75,0.07,1.05,0.2
							c0.3,0.13,0.45,0.3,0.45,0.5c0,0.2-0.15,0.37-0.45,0.5c-0.3,0.13-0.65,0.2-1.05,0.2s-0.75-0.07-1.05-0.2
							c-0.3-0.13-0.45-0.3-0.45-0.5c0-0.2,0.15-0.37,0.45-0.5C271.08,275.12,271.43,275.05,271.83,275.05 M284.68,276.85
							c-0.27-0.1-0.4-0.23-0.4-0.4s0.13-0.32,0.4-0.45c0.3-0.1,0.65-0.15,1.05-0.15s0.73,0.05,1,0.15c0.3,0.13,0.45,0.28,0.45,0.45
							s-0.15,0.3-0.45,0.4c-0.27,0.13-0.6,0.2-1,0.2S284.98,276.98,284.68,276.85 M110.38,291.8c0-0.03,0.02-0.05,0.05-0.05
							c0.07-0.03,0.15-0.05,0.25-0.05c0.03-0.03,0.08-0.05,0.15-0.05l0.65-0.1l1.85-0.25v-0.1v-0.65
							c-17.07-1.03-21.97-3.73-14.7-8.1v-0.25l-0.5-13.7l0.05,0.05l1.6-0.55v-15.05l-12.35,3.7l0.55,0.2l1.2,0.45l0.15,1.8
							l1.05,12.8l1.1-0.6l2,0.5l0.05,0.25l0.05,1.25l-1.2,0.7v3.85l-0.15-1.25l-16.8,8.15l31.7,14.2l2.8-1.55
							c-0.1-0.17-0.2-0.35-0.3-0.55c-0.47-1.13-0.65-2.18-0.55-3.15c0.17-0.93,0.55-1.55,1.15-1.85c0-0.03,0.02-0.05,0.05-0.05
							C110.32,291.8,110.35,291.8,110.38,291.8z"/>
					</g>
					<g>
						<path class="st41" d="M317.93,22.35l1.4-3.75l-40.8-16.85l-4.2,1.55L317.93,22.35z"/>
					</g>
					<g>
						<path class="st42" d="M366.33,45.55l-0.05-0.1L344.38,34l-0.1,0.05l-0.05-0.15L337.13,7l-0.05-0.15l-11.45-5.3h-0.1
							l-6.2,17.05l-1.4,3.75L274.33,3.3v186.35l14.55,6.6l-0.1-5.75v-0.55l1.65-0.45l5,1.15l-0.1,7.9h1.4l-0.05,1.2l39.9,18
							l0.15-5.9c1.37-1.33,2.9-1.1,4.6,0.7l0.35-0.05l1.4,0.05l0.2,8.2l23.1,10.45l0.95-0.3L366.33,45.55 M356.88,208.35v3.9
							l-70.95-34.1l-1.1-0.5V23l3.9,1.75l68.8,30.2L356.88,208.35z"/>
					</g>
					<g>
						<path class="st43" d="M288.73,24.75l-3.9-1.75v154.65l1.1,0.5l4.45-1.5L288.73,24.75z"/>
					</g>
					<g>
						<path class="st44" d="M356.88,212.25v-3.9l-66.5-30.9v-0.8l-4.45,1.5L356.88,212.25z"/>
					</g>
					<g>
						<path class="st45" d="M356.88,208.35l0.65-153.4l-68.8-30.2l1.65,151.9v0.8L356.88,208.35z"/>
					</g>
					<g>
						<path class="st46" d="M278.23,205.3l-0.15,0.05l-0.35,2.15l2.45,1.25l2.5-1.3v-0.1l-0.4-0.2L278.23,205.3z"/>
					</g>
					<g>
						<path class="st47" d="M278.58,209.6l-0.7,0.35l-1.4,1l-1.4,1l1.85,0.8l0.3,0.05l1.35-3V209.6z"/>
					</g>
					<g>
						<path class="st48" d="M277.73,207.5l-0.45-0.25l-3.85,1.7l2.8,1.85l1.65-0.85l0.7-0.35l1.6-0.85L277.73,207.5z"/>
					</g>
					<g>
						<path class="st49" d="M285.23,208.55l-0.45,0.05l0.45,5.7l2.5-1.25v-1.5v-0.7l0.15-1.25l-0.05-1.45L285.23,208.55z"/>
					</g>
					<g>
						<path class="st50" d="M284.53,202.8l-0.05-0.05l-0.55-0.25l-5.7,2.8l4.05,1.85l0.5-0.25l5.35-2.45v-0.05L284.53,202.8z"/>
					</g>
					<g>
						<path class="st51" d="M288.93,204l0.2-0.9V203l0.05-0.05l0.3-0.15l-4.9-2.45l-0.1,2.4l0.05,0.05l3.6,1.6v0.05L288.93,204z"/>
					</g>
					<g>
						<path class="st52" d="M289.13,203.1l-0.2,0.9l-0.8,0.45l-5.35,2.45l-0.1,0.45l2.1,0.95l0.45,0.25l2.6-0.4l0.05,1.45
							l-0.15,1.25v0.7l7.35-7.65l-6,5.65L289.13,203.1z"/>
					</g>
					<g>
						<path class="st53" d="M293.63,200.4v-0.35l-4.55-2.05l-0.15,0.1l-4.35,2.15v0.1l4.9,2.45L293.63,200.4z"/>
					</g>
					<g>
						<path class="st54" d="M340.78,227.65c-0.17-0.3-0.37-0.58-0.6-0.85c-0.97-1.1-2.12-1.65-3.45-1.65c-1.37,0-2.53,0.55-3.5,1.65
							c-0.97,1.1-1.45,2.42-1.45,3.95s0.48,2.85,1.45,3.95c0.4,0.47,0.83,0.83,1.3,1.1c0.4,0.23,0.85,0.4,1.35,0.5
							c0.27,0.03,0.55,0.05,0.85,0.05c1.33,0,2.48-0.55,3.45-1.65s1.45-2.42,1.45-3.95C341.63,229.58,341.35,228.55,340.78,227.65
							 M336.93,228.7c0.57-0.43,1.17-0.57,1.8-0.4c0.6,0.13,1.07,0.55,1.4,1.25c0.27,0.7,0.3,1.43,0.1,2.2
							c-0.2,0.8-0.58,1.4-1.15,1.8c-0.63,0.47-1.25,0.63-1.85,0.5c-0.63-0.17-1.08-0.62-1.35-1.35c-0.33-0.63-0.4-1.35-0.2-2.15
							C335.88,229.78,336.3,229.17,336.93,228.7z"/>
					</g>
					<g>
						<path class="st55" d="M338.73,228.3c-0.63-0.17-1.23-0.03-1.8,0.4c-0.63,0.47-1.05,1.08-1.25,1.85
							c-0.2,0.8-0.13,1.52,0.2,2.15c0.27,0.73,0.72,1.18,1.35,1.35c0.6,0.13,1.22-0.03,1.85-0.5c0.57-0.4,0.95-1,1.15-1.8
							c0.2-0.77,0.17-1.5-0.1-2.2C339.8,228.85,339.33,228.43,338.73,228.3z"/>
					</g>
					<g>
						<path class="st56" d="M340.18,226.8c0.23,0.27,0.43,0.55,0.6,0.85l1-2.85v-1l-0.5-0.25l-8.85,1.6
							c-0.27-0.2-0.43-0.25-0.5-0.15c-2.73,2.27-3.18,5.23-1.35,8.9l-0.1,0.4l4.05,1.5c-0.47-0.27-0.9-0.63-1.3-1.1
							c-0.97-1.1-1.45-2.42-1.45-3.95s0.48-2.85,1.45-3.95c0.97-1.1,2.13-1.65,3.5-1.65C338.07,225.15,339.22,225.7,340.18,226.8z"
							/>
					</g>
					<g>
						<path class="st57" d="M320.13,226.9l1.5-1.05c-0.2-3.2,0.7-5.37,2.7-6.5l-0.45-0.3C320.55,220.92,319.3,223.53,320.13,226.9z"
							/>
					</g>
					<g>
						<path class="st58" d="M323.88,219.05l-7.55-3.15c-4.97,0.27-6.53,3.22-4.7,8.85l7.65,2.75l0.85-0.6
							C319.3,223.53,320.55,220.92,323.88,219.05z"/>
					</g>
					<g>
						<path class="st59" d="M314.23,212.3l-1.35,1l-2.1-0.65c-4.53,1.87-6.07,5.27-4.6,10.2l5.4,1.95l0.05-0.05
							c-1.83-5.63-0.27-8.58,4.7-8.85l0.3-0.25l0.15-3L314.23,212.3z"/>
					</g>
					<g>
						<path class="st60" d="M341.68,212.95c-0.13-0.13-0.25-0.27-0.35-0.4c-1.7-1.8-3.23-2.03-4.6-0.7l-0.15,5.9l-0.1,3.25l0.35,0.2
							l4.45,2.35l0.5-0.1L341.68,212.95z"/>
					</g>
					<g>
						<path class="st61" d="M343.08,212.55l-1.4-0.05v0.45l0.1,10.5v0.35l1.2,0.6l0.35-0.1l-0.05-3.55L343.08,212.55z"/>
					</g>
					<g>
						<path class="st62" d="M333.28,221.95l-0.05,0.55c-4.23-0.07-6.4,2.22-6.5,6.85v0.1c0,0.17,0.02,0.35,0.05,0.55
							c0.2,2.07,1.42,3.6,3.65,4.6v-0.35l0.15-0.35c-1.83-3.67-1.38-6.63,1.35-8.9c0.07-0.1,0.23-0.05,0.5,0.15l8.85-1.6l-4.45-2.35
							L333.28,221.95z"/>
					</g>
					<g>
						<path class="st63" d="M290.43,189.5l-1.65,0.45v0.55l4.85,1.35v8.2v0.35l-4.15,2.4l-0.3,0.15l-0.05,0.05v0.1l-0.05,6.45
							l6-5.65l1.55-1.45l0.05-2.7l0.05-1.2h-1.4l0.1-7.9L290.43,189.5z"/>
					</g>
					<g>
						<path class="st64" d="M288.88,196.25l0.05,1.7l0.15,0.05l4.55,2.05v-8.2l-4.85-1.35L288.88,196.25z"/>
					</g>
					<g>
						<path class="st65" d="M337.28,6.95l3.1-1.65l-0.2-0.7l-10.3-4.5l-4.25,1.45l11.45,5.3L337.28,6.95z"/>
					</g>
					<g>
						<path class="st66" d="M340.38,5.3l-3.1,1.65L337.13,7l7.1,26.9l0.15,0.1l3.7-2.35L340.38,5.3z"/>
					</g>
					<g>
						<path class="st67" d="M366.28,45.45l6.1-3.05l-0.6-0.1l-23.7-10.65l-3.7,2.35L366.28,45.45z"/>
					</g>
					<g>
						<path class="st68" d="M372.38,42.4l-6.1,3.05l0.05,0.1l1,185.35l4.75-1.35L372.38,42.4z"/>
					</g>
					<g>
						<path class="st69" d="M341.98,355.95c-0.27-0.2-0.53-0.4-0.8-0.6l-14.85-4.15c0.17,0.17,0.38,0.4,0.65,0.7l17.55,5.45
							C343.63,356.95,342.78,356.48,341.98,355.95 M319.03,342.5c0.27,0.63,0.57,1.25,0.9,1.85l17.9,7.3
							c-0.2-0.33-0.4-0.65-0.6-0.95c-0.1-0.17-0.18-0.33-0.25-0.5L319.03,342.5 M261.48,382.45c-0.9-0.4-1.75-0.87-2.55-1.4
							c-0.27-0.2-0.53-0.4-0.8-0.6l-14.85-4.15c0.17,0.17,0.38,0.4,0.65,0.7L261.48,382.45 M235.98,367.6
							c0.27,0.63,0.57,1.25,0.9,1.85l17.9,7.3c-0.2-0.33-0.4-0.65-0.6-0.95c-0.1-0.17-0.18-0.33-0.25-0.5L235.98,367.6z"/>
					</g>
					<g>
						<path class="st70" d="M341.18,355.35c-0.17-0.17-0.33-0.32-0.5-0.45c-0.7-0.6-1.33-1.25-1.9-1.95
							c-0.33-0.43-0.65-0.87-0.95-1.3l-17.9-7.3c1,1.93,2.33,3.6,4,5c0.63,0.53,1.28,1.02,1.95,1.45c0.07,0.03,0.22,0.17,0.45,0.4
							L341.18,355.35 M240.88,374.45c0.63,0.53,1.28,1.02,1.95,1.45c0.07,0.03,0.22,0.17,0.45,0.4l14.85,4.15
							c-0.17-0.17-0.33-0.32-0.5-0.45c-0.7-0.6-1.33-1.25-1.9-1.95c-0.33-0.43-0.65-0.87-0.95-1.3l-17.9-7.3
							C237.88,371.38,239.22,373.05,240.88,374.45z"/>
					</g>
					<g>
						<path class="st71" d="M269.83,323.8l5,2.35l12.65-8.8l-4.95-2.2L269.83,323.8z"/>
					</g>
					<g>
						<path class="st72" d="M295.03,320.65l-7.55-3.3l-12.65,8.8l7.45,3.5L295.03,320.65z"/>
					</g>
					<g>
						<path class="st73" d="M287.48,317.35l8.45-5.9l-12.15-5.2l-1.45-0.6l-21.85-9.35l-4,7.4l12.85,5.65l2.35,1.05l10.85,4.75
							L287.48,317.35z"/>
					</g>
					<g>
						<path class="st74" d="M296.43,321.3l4.4-7.8l-4.9-2.05l-8.45,5.9l7.55,3.3L296.43,321.3 M260.48,296.3l-6.65-2.85l-6.95,5.45
							l2.45,7.15l4.5-3.5l2.65,1.15L260.48,296.3z"/>
					</g>
					<g>
						<path class="st75" d="M317.48,329.55c-0.03,0.33-0.05,0.65-0.05,0.95c-0.03,0.5-0.07,0.98-0.1,1.45l17.15,6.15v-0.05
							c0.03-0.67,0.07-1.3,0.1-1.9L317.48,329.55 M251.43,363.2c0.03-0.67,0.07-1.32,0.1-1.95l-17.1-6.6
							c-0.07,0.8-0.12,1.6-0.15,2.4L251.43,363.2 M259.28,322.45c-0.77,0.17-1.55,0.38-2.35,0.65c-0.23,0.07-0.47,0.15-0.7,0.25
							l15.3,7.85c0.37-0.17,0.75-0.32,1.15-0.45c0.3-0.1,0.58-0.18,0.85-0.25c0.17-0.07,0.33-0.12,0.5-0.15
							c0.13-0.07,0.27-0.1,0.4-0.1L259.28,322.45 M355.73,305.65c0.3-0.1,0.58-0.18,0.85-0.25c0.17-0.07,0.33-0.12,0.5-0.15
							c0.13-0.07,0.27-0.1,0.4-0.1l-15.15-7.8c-0.77,0.17-1.55,0.38-2.35,0.65c-0.23,0.07-0.47,0.15-0.7,0.25l15.3,7.85
							C354.95,305.93,355.33,305.78,355.73,305.65z"/>
					</g>
					<g>
						<path class="st76" d="M317.43,330.5c0-0.3,0.02-0.62,0.05-0.95c0.2-2.8,0.75-5.55,1.65-8.25l-18.3-7.8l-4.4,7.8L317.43,330.5z
							"/>
					</g>
					<g>
						<path class="st77" d="M317.33,332.6c0,3.77,0.57,7.07,1.7,9.9l17.95,7.7c-1.67-3.1-2.5-6.9-2.5-11.4c0-0.23,0-0.47,0-0.7
							l-17.15-6.15C317.33,332.15,317.33,332.37,317.33,332.6 M251.43,363.9c0-0.23,0-0.47,0-0.7l-17.15-6.15c0,0.2,0,0.42,0,0.65
							c0,3.77,0.57,7.07,1.7,9.9l17.95,7.7C252.27,372.2,251.43,368.4,251.43,363.9z"/>
					</g>
					<g>
						<path class="st78" d="M320.33,318.05c-0.47,1.07-0.87,2.15-1.2,3.25c-0.9,2.7-1.45,5.45-1.65,8.25l17.1,6.6
							c0.17-2.6,0.63-5.15,1.4-7.65c0.37-1.2,0.8-2.38,1.3-3.55L320.33,318.05 M251.53,361.25c0.27-3.87,1.17-7.6,2.7-11.2
							l-16.95-6.9c-1.6,3.73-2.55,7.57-2.85,11.5L251.53,361.25z"/>
					</g>
					<g>
						<path class="st79" d="M321.38,315.85c-0.37,0.7-0.72,1.43-1.05,2.2l16.95,6.9c0.27-0.67,0.55-1.33,0.85-2L321.38,315.85
							 M238.33,340.95c-0.37,0.7-0.72,1.43-1.05,2.2l16.95,6.9c0.27-0.67,0.55-1.33,0.85-2L238.33,340.95z"/>
					</g>
					<g>
						<path class="st80" d="M323.93,311.3c-0.97,1.5-1.82,3.02-2.55,4.55l16.75,7.1c0.73-1.53,1.58-3.05,2.55-4.55
							c1.3-2.03,2.7-3.85,4.2-5.45l-16.4-7.4C326.88,307.22,325.37,309.13,323.93,311.3 M240.88,336.4
							c-0.97,1.5-1.82,3.02-2.55,4.55l16.75,7.1c0.73-1.53,1.58-3.05,2.55-4.55c1.3-2.03,2.7-3.85,4.2-5.45l-16.4-7.4
							C243.83,332.32,242.32,334.23,240.88,336.4z"/>
					</g>
					<g>
						<path class="st81" d="M197.98,302.9l-0.25,14.3l25.15-7.65l0.2-11.45l0.1-3.1L197.98,302.9z"/>
					</g>
					<g>
						<path class="st82" d="M197.98,302.9l-5,1.55l0.1,10.4l4.2,2.45l0.45-0.1L197.98,302.9z"/>
					</g>
					<g>
						<path class="st83" d="M261.83,338.05c-1.5,1.6-2.9,3.42-4.2,5.45c-0.97,1.5-1.82,3.02-2.55,4.55c-0.3,0.67-0.58,1.33-0.85,2
							c-1.53,3.6-2.43,7.33-2.7,11.2c-0.03,0.63-0.07,1.28-0.1,1.95c0,0.23,0,0.47,0,0.7c0,4.5,0.83,8.3,2.5,11.4
							c0.07,0.17,0.15,0.33,0.25,0.5c0.2,0.3,0.4,0.62,0.6,0.95c0.3,0.43,0.62,0.87,0.95,1.3c0.57,0.7,1.2,1.35,1.9,1.95
							c0.17,0.13,0.33,0.28,0.5,0.45c0.27,0.2,0.53,0.4,0.8,0.6c0.8,0.53,1.65,1,2.55,1.4c0.8,0.33,1.65,0.58,2.55,0.75
							c2.63,0.53,5.52,0.27,8.65-0.8c5.83-2.03,10.82-6.28,14.95-12.75c4.17-6.5,6.25-13.3,6.25-20.4c0-7.17-2.08-12.53-6.25-16.1
							c-1-0.87-2.05-1.58-3.15-2.15l0.05-0.3l-2.25-1.05l-7.45-3.5l-5-2.35l-3.05-1.45c-0.3-0.07-0.58-0.12-0.85-0.15
							c-2.1-0.37-4.32-0.28-6.65,0.25l15.15,7.8c-0.13,0-0.27,0.03-0.4,0.1c-0.17,0.03-0.33,0.08-0.5,0.15
							c-0.27,0.07-0.55,0.15-0.85,0.25c-0.4,0.13-0.78,0.28-1.15,0.45c-2.93,1.17-5.62,2.92-8.05,5.25h-0.05
							C262.87,336.95,262.33,337.48,261.83,338.05 M258.53,344.35c1.4-2.2,2.92-4.12,4.55-5.75c0.3-0.3,0.62-0.6,0.95-0.9
							c0.87-0.83,1.78-1.6,2.75-2.3c1.9-1.37,3.93-2.42,6.1-3.15c0.13-0.03,0.28-0.08,0.45-0.15c0.3-0.1,0.6-0.18,0.9-0.25
							c0.77-0.23,1.53-0.4,2.3-0.5c0.3-0.03,0.62-0.07,0.95-0.1c0.83-0.07,1.65-0.05,2.45,0.05c2.63,0.27,5.03,1.33,7.2,3.2
							c3.97,3.4,5.95,8.52,5.95,15.35c0,6.77-1.98,13.23-5.95,19.4c-3.93,6.17-8.68,10.22-14.25,12.15c-4.47,1.5-8.4,1.33-11.8-0.5
							c-0.3-0.17-0.58-0.35-0.85-0.55c-0.6-0.37-1.17-0.78-1.7-1.25c-0.53-0.47-1.03-0.97-1.5-1.5c-0.6-0.7-1.13-1.43-1.6-2.2
							s-0.87-1.55-1.2-2.35c-0.83-2.1-1.33-4.47-1.5-7.1c-0.07-0.7-0.1-1.42-0.1-2.15s0.03-1.45,0.1-2.15l-0.35-0.1l0.4-0.5
							c0.07-1.07,0.2-2.12,0.4-3.15c0.43-2.53,1.15-5,2.15-7.4c0.27-0.67,0.57-1.32,0.9-1.95
							C256.9,347.12,257.67,345.72,258.53,344.35 M370.68,308.05c-1-0.87-2.05-1.58-3.15-2.15l0.05-0.3l-17.75-8.35
							c-0.3-0.07-0.58-0.12-0.85-0.15c-2.1-0.37-4.32-0.28-6.65,0.25l15.15,7.8c-0.13,0-0.27,0.03-0.4,0.1
							c-0.17,0.03-0.33,0.08-0.5,0.15c-0.27,0.07-0.55,0.15-0.85,0.25c-0.4,0.13-0.78,0.28-1.15,0.45c-2.93,1.17-5.63,2.92-8.1,5.25
							c-0.57,0.5-1.1,1.03-1.6,1.6c-1.5,1.6-2.9,3.42-4.2,5.45c-0.97,1.5-1.82,3.02-2.55,4.55c-0.3,0.67-0.58,1.33-0.85,2
							c-0.5,1.17-0.93,2.35-1.3,3.55c-0.77,2.5-1.23,5.05-1.4,7.65c-0.03,0.6-0.07,1.23-0.1,1.9v0.05c0,0.23,0,0.47,0,0.7
							c0,4.5,0.83,8.3,2.5,11.4c0.07,0.17,0.15,0.33,0.25,0.5c0.2,0.3,0.4,0.62,0.6,0.95c0.3,0.43,0.62,0.87,0.95,1.3
							c0.57,0.7,1.2,1.35,1.9,1.95c0.17,0.13,0.33,0.28,0.5,0.45c0.27,0.2,0.53,0.4,0.8,0.6c0.8,0.53,1.65,1,2.55,1.4
							c0.8,0.33,1.65,0.58,2.55,0.75c2.63,0.53,5.52,0.27,8.65-0.8c5.83-2.03,10.82-6.28,14.95-12.75c4.17-6.5,6.25-13.3,6.25-20.4
							C376.93,316.98,374.85,311.62,370.68,308.05 M357.28,306.75c0.77-0.23,1.53-0.4,2.3-0.5c0.3-0.03,0.62-0.07,0.95-0.1
							c3.63-0.27,6.85,0.82,9.65,3.25c3.97,3.4,5.95,8.52,5.95,15.35c0,6.77-1.98,13.23-5.95,19.4
							c-3.93,6.17-8.68,10.22-14.25,12.15c-4.47,1.5-8.4,1.33-11.8-0.5c-0.3-0.17-0.58-0.35-0.85-0.55c-0.6-0.37-1.17-0.78-1.7-1.25
							c-0.53-0.47-1.03-0.97-1.5-1.5c-0.6-0.7-1.13-1.43-1.6-2.2c-0.47-0.77-0.87-1.55-1.2-2.35c-0.83-2.1-1.33-4.47-1.5-7.1
							c-0.07-0.7-0.1-1.42-0.1-2.15c0-0.03,0-0.08,0-0.15c0-0.67,0.03-1.33,0.1-2l-0.35-0.1l0.4-0.5c0.07-1.07,0.2-2.12,0.4-3.15
							c0.23-1.3,0.53-2.57,0.9-3.8c0.33-1.23,0.75-2.43,1.25-3.6c0.27-0.67,0.57-1.32,0.9-1.95c0.67-1.43,1.43-2.83,2.3-4.2
							c1.4-2.2,2.92-4.12,4.55-5.75c1.17-1.2,2.4-2.27,3.7-3.2c1.9-1.37,3.93-2.42,6.1-3.15c0.13-0.03,0.28-0.08,0.45-0.15
							C356.68,306.9,356.98,306.82,357.28,306.75z"/>
					</g>
					<g>
						<path class="st84" d="M265.98,368.45l-0.2,0.85v9.15c4.4-2.2,8.23-5.87,11.5-11c1.1-1.7,2.05-3.4,2.85-5.1l-8.35-4.15
							c-0.2,0.4-0.4,0.8-0.6,1.2l1.05-0.95C271.07,362.18,268.98,365.52,265.98,368.45 M349.03,343.35l-0.2,0.85v9.15
							c4.4-2.2,8.23-5.87,11.5-11c1.1-1.7,2.05-3.4,2.85-5.1l-8.35-4.15c-0.2,0.4-0.4,0.8-0.6,1.2l1.05-0.95
							C354.12,337.08,352.03,340.42,349.03,343.35z"/>
					</g>
					<g>
						<path class="st85" d="M281.98,357.2l-7.3-2.75l-1.8-0.7c-0.03,0.23-0.07,0.48-0.1,0.75c-0.2,1.33-0.53,2.57-1,3.7l8.35,4.15
							C280.87,360.65,281.48,358.93,281.98,357.2 M355.93,328.65c-0.03,0.23-0.07,0.48-0.1,0.75c-0.2,1.33-0.53,2.57-1,3.7
							l8.35,4.15c0.73-1.7,1.35-3.42,1.85-5.15l-7.3-2.75L355.93,328.65z"/>
					</g>
					<g>
						<path class="st86" d="M281.63,338.7l-4.6,4.15c0.2,3.97-0.28,6.58-1.45,7.85l-0.9,3.75l7.3,2.75c0.83-3,1.25-6.05,1.25-9.15
							C283.23,344.45,282.7,341.33,281.63,338.7 M358.63,325.6l-0.9,3.75l7.3,2.75c0.83-3,1.25-6.05,1.25-9.15
							c0-3.6-0.53-6.72-1.6-9.35l-4.6,4.15C360.28,321.72,359.8,324.33,358.63,325.6z"/>
					</g>
					<g>
						<path class="st87" d="M266.78,335.4c-0.97,0.7-1.88,1.47-2.75,2.3c-0.33,0.3-0.65,0.6-0.95,0.9l3.25,1.4l0.1-1.15
							L266.78,335.4 M349.83,310.3c-1.3,0.93-2.53,2-3.7,3.2l3.25,1.4l0.1-1.15L349.83,310.3z"/>
					</g>
					<g>
						<path class="st88" d="M262.18,380.7c-0.37,0.07-0.73,0.13-1.1,0.2c3.4,1.83,7.33,2,11.8,0.5c5.57-1.93,10.32-5.98,14.25-12.15
							c3.97-6.17,5.95-12.63,5.95-19.4c0-6.83-1.98-11.95-5.95-15.35c-2.17-1.87-4.57-2.93-7.2-3.2c-0.8-0.1-1.62-0.12-2.45-0.05
							c-0.33,0.03-0.65,0.07-0.95,0.1c0.57,0.33,1.13,0.72,1.7,1.15c0.23,0.17,0.48,0.37,0.75,0.6c1.53,1.3,2.77,2.85,3.7,4.65
							c1.5,2.9,2.25,6.47,2.25,10.7c0,5.03-1.1,9.92-3.3,14.65c-0.77,1.6-1.65,3.18-2.65,4.75c-3.93,6.17-8.68,10.22-14.25,12.15
							C263.87,380.3,263.02,380.53,262.18,380.7 M359.58,306.25c0.83,0.47,1.65,1.05,2.45,1.75c1.53,1.3,2.77,2.85,3.7,4.65
							c1.5,2.9,2.25,6.47,2.25,10.7c0,5.03-1.1,9.92-3.3,14.65c-0.77,1.6-1.65,3.18-2.65,4.75c-3.93,6.17-8.68,10.22-14.25,12.15
							c-0.87,0.3-1.72,0.53-2.55,0.7c-0.37,0.07-0.73,0.13-1.1,0.2c3.4,1.83,7.33,2,11.8,0.5c5.57-1.93,10.32-5.98,14.25-12.15
							c3.97-6.17,5.95-12.63,5.95-19.4c0-6.83-1.98-11.95-5.95-15.35c-2.8-2.43-6.02-3.52-9.65-3.25
							C360.2,306.18,359.88,306.22,359.58,306.25z"/>
					</g>
					<g>
						<path class="st89" d="M263.03,379.6c-0.3,0.1-0.58,0.2-0.85,0.3v0.8c0.83-0.17,1.68-0.4,2.55-0.7
							c5.57-1.93,10.32-5.98,14.25-12.15c1-1.57,1.88-3.15,2.65-4.75c2.2-4.73,3.3-9.62,3.3-14.65c0-4.23-0.75-7.8-2.25-10.7
							l-1.05,0.95c1.07,2.63,1.6,5.75,1.6,9.35c0,3.1-0.42,6.15-1.25,9.15c-0.5,1.73-1.12,3.45-1.85,5.15
							c-0.8,1.7-1.75,3.4-2.85,5.1c-3.27,5.13-7.1,8.8-11.5,11C264.88,378.88,263.97,379.27,263.03,379.6 M365.73,312.65l-1.05,0.95
							c1.07,2.63,1.6,5.75,1.6,9.35c0,3.1-0.42,6.15-1.25,9.15c-0.5,1.73-1.12,3.45-1.85,5.15c-0.8,1.7-1.75,3.4-2.85,5.1
							c-3.27,5.13-7.1,8.8-11.5,11c-0.9,0.43-1.82,0.82-2.75,1.15c-0.3,0.1-0.58,0.2-0.85,0.3v0.8c0.83-0.17,1.68-0.4,2.55-0.7
							c5.57-1.93,10.32-5.98,14.25-12.15c1-1.57,1.88-3.15,2.65-4.75c2.2-4.73,3.3-9.62,3.3-14.65
							C367.98,319.12,367.23,315.55,365.73,312.65z"/>
					</g>
					<g>
						<path class="st90" d="M262.13,371.65v-0.4c-2.57,2.17-5.2,2.77-7.9,1.8c0.33,0.8,0.73,1.58,1.2,2.35s1,1.5,1.6,2.2
							c0.47,0.53,0.97,1.03,1.5,1.5c0.53,0.47,1.1,0.88,1.7,1.25c0.63-0.13,1.28-0.28,1.95-0.45L262.13,371.65 M345.23,354.8
							l-0.05-8.25v-0.4c-2.57,2.17-5.2,2.77-7.9,1.8c0.33,0.8,0.73,1.58,1.2,2.35c0.47,0.77,1,1.5,1.6,2.2
							c0.47,0.53,0.97,1.03,1.5,1.5c0.53,0.47,1.1,0.88,1.7,1.25C343.92,355.12,344.57,354.97,345.23,354.8z"/>
					</g>
					<g>
						<path class="st91" d="M261.93,355c-0.33,2.4-0.08,4.4,0.75,6c0.33,0.63,0.7,1.13,1.1,1.5c0.67,0.57,1.47,0.82,2.4,0.75
							c0.33,0,0.65-0.03,0.95-0.1c1.13-0.33,2.2-1.17,3.2-2.5c0.3-0.4,0.58-0.82,0.85-1.25c0.2-0.4,0.4-0.8,0.6-1.2
							c0.47-1.13,0.8-2.37,1-3.7c0.03-0.27,0.07-0.52,0.1-0.75c0.13-1.97-0.17-3.67-0.9-5.1c-0.67-1.27-1.52-2.03-2.55-2.3
							c-0.3-0.07-0.6-0.1-0.9-0.1c-1.5,0.13-2.9,1.05-4.2,2.75C263.07,350.7,262.27,352.7,261.93,355 M352.48,321.25
							c-0.3-0.07-0.6-0.1-0.9-0.1c-1.5,0.13-2.9,1.05-4.2,2.75c-1.27,1.7-2.07,3.7-2.4,6c-0.33,2.4-0.08,4.4,0.75,6
							c0.33,0.63,0.7,1.13,1.1,1.5c0.67,0.57,1.47,0.82,2.4,0.75c0.33,0,0.65-0.03,0.95-0.1c1.13-0.33,2.2-1.17,3.2-2.5
							c0.3-0.4,0.58-0.82,0.85-1.25c0.2-0.4,0.4-0.8,0.6-1.2c0.47-1.13,0.8-2.37,1-3.7c0.03-0.27,0.07-0.52,0.1-0.75
							c0.13-1.97-0.17-3.67-0.9-5.1C354.37,322.28,353.52,321.52,352.48,321.25z"/>
					</g>
					<g>
						<path class="st92" d="M262.98,348.3c-1.27,1.7-2.07,3.7-2.4,6c-0.33,2.4-0.08,4.4,0.75,6c0.63,1.23,1.45,1.97,2.45,2.2
							c-0.4-0.37-0.77-0.87-1.1-1.5c-0.83-1.6-1.08-3.6-0.75-6c0.33-2.3,1.13-4.3,2.4-6c1.3-1.7,2.7-2.62,4.2-2.75
							c0.3,0,0.6,0.03,0.9,0.1c-0.67-0.53-1.42-0.8-2.25-0.8C265.68,345.68,264.28,346.6,262.98,348.3 M352.48,321.25
							c-0.67-0.53-1.42-0.8-2.25-0.8c-1.5,0.13-2.9,1.05-4.2,2.75c-1.27,1.7-2.07,3.7-2.4,6c-0.33,2.4-0.08,4.4,0.75,6
							c0.63,1.23,1.45,1.97,2.45,2.2c-0.4-0.37-0.77-0.87-1.1-1.5c-0.83-1.6-1.08-3.6-0.75-6c0.33-2.3,1.13-4.3,2.4-6
							c1.3-1.7,2.7-2.62,4.2-2.75C351.88,321.15,352.18,321.18,352.48,321.25z"/>
					</g>
					<g>
						<path class="st93" d="M263.08,338.6c-1.63,1.63-3.15,3.55-4.55,5.75c-0.87,1.37-1.63,2.77-2.3,4.2
							c-0.33,0.63-0.63,1.28-0.9,1.95c-1,2.4-1.72,4.87-2.15,7.4l1.75,0.85l-2.15,2.3c-0.03,0.17-0.05,0.37-0.05,0.6
							c-0.07,0.7-0.1,1.42-0.1,2.15s0.03,1.45,0.1,2.15l2.9-3.4c1.27,2.1,3.38,3.13,6.35,3.1l0.1,0.05l0.1,5.5l-0.05,0.45l0.05,8.25
							c0.27-0.1,0.55-0.2,0.85-0.3c0.93-0.33,1.85-0.72,2.75-1.15v-9.15v-4.95l1.35-1.2c-0.3,0.07-0.62,0.1-0.95,0.1
							c-0.93,0.07-1.73-0.18-2.4-0.75c-1-0.23-1.82-0.97-2.45-2.2c-0.83-1.6-1.08-3.6-0.75-6c0.33-2.3,1.13-4.3,2.4-6
							c1.3-1.7,2.7-2.62,4.2-2.75c0.83,0,1.58,0.27,2.25,0.8c1.03,0.27,1.88,1.03,2.55,2.3c0.73,1.43,1.03,3.13,0.9,5.1l1.8,0.7
							l0.9-3.75c-0.4,0.43-0.88,0.7-1.45,0.8l0.05-6.05l2.85-2.6l4.6-4.15l1.05-0.95c-0.93-1.8-2.17-3.35-3.7-4.65
							c-0.27-0.23-0.52-0.43-0.75-0.6c-0.57-0.43-1.13-0.82-1.7-1.15c-0.77,0.1-1.53,0.27-2.3,0.5c0.53,0.77,0.97,1.6,1.3,2.5
							c0.37,1.03,0.6,2.17,0.7,3.4l-4.35,4.4l-5.45-3.3l-0.1,1.15L263.08,338.6 M364.68,313.6l1.05-0.95
							c-0.93-1.8-2.17-3.35-3.7-4.65c-0.8-0.7-1.62-1.28-2.45-1.75c-0.77,0.1-1.53,0.27-2.3,0.5c1.17,1.63,1.83,3.6,2,5.9l-4.35,4.4
							l-5.45-3.3l-0.1,1.15l-3.25-1.4c-1.63,1.63-3.15,3.55-4.55,5.75c-0.87,1.37-1.63,2.77-2.3,4.2c-0.33,0.63-0.63,1.28-0.9,1.95
							c-0.5,1.17-0.92,2.37-1.25,3.6c-0.37,1.23-0.67,2.5-0.9,3.8l1.75,0.85l-2.15,2.3c-0.03,0.17-0.05,0.37-0.05,0.6
							c-0.07,0.67-0.1,1.33-0.1,2c0,0.07,0,0.12,0,0.15c0,0.73,0.03,1.45,0.1,2.15l2.9-3.4c1.27,2.1,3.38,3.13,6.35,3.1l0.1,0.05
							l0.1,5.5l-0.05,0.45l0.05,8.25c0.27-0.1,0.55-0.2,0.85-0.3c0.93-0.33,1.85-0.72,2.75-1.15v-9.15v-4.95l1.35-1.2
							c-0.3,0.07-0.62,0.1-0.95,0.1c-0.93,0.07-1.73-0.18-2.4-0.75c-1-0.23-1.82-0.97-2.45-2.2c-0.83-1.6-1.08-3.6-0.75-6
							c0.33-2.3,1.13-4.3,2.4-6c1.3-1.7,2.7-2.62,4.2-2.75c0.83,0,1.58,0.27,2.25,0.8c1.03,0.27,1.88,1.03,2.55,2.3
							c0.73,1.43,1.03,3.13,0.9,5.1l1.8,0.7l0.9-3.75c-0.4,0.43-0.88,0.7-1.45,0.8l0.05-6.05l2.85-2.6L364.68,313.6z"/>
					</g>
					<g>
						<path class="st94" d="M245.43,330.65l16.4,7.4c0.5-0.57,1.03-1.1,1.6-1.6l-16.45-7.3
							C246.45,329.62,245.93,330.12,245.43,330.65 M344.88,312.95c0.5-0.57,1.03-1.1,1.6-1.6l-16.45-7.3
							c-0.53,0.47-1.05,0.97-1.55,1.5L344.88,312.95z"/>
					</g>
					<g>
						<path class="st95" d="M256.23,323.35c-3.33,1.23-6.42,3.17-9.25,5.8l16.45,7.3h0.05c2.43-2.33,5.12-4.08,8.05-5.25
							L256.23,323.35 M346.48,311.35c2.47-2.33,5.17-4.08,8.1-5.25l-15.3-7.85c-3.33,1.23-6.42,3.17-9.25,5.8L346.48,311.35z"/>
					</g>
					<g>
						<path class="st96" d="M229.13,322l-2,1.55l44.55-13.15l-2.35-1.05L229.13,322z"/>
					</g>
					<g>
						<path class="st97" d="M253.83,302.55l-4.5,3.5L229.13,322l40.2-12.65l-12.85-5.65L253.83,302.55 M340.13,286.65v0.15
							c0,0.03,0,0.08,0,0.15v1.35l11.2-3.4l-14.6-7.55l-0.1,8.05c0.2,0.03,0.4,0.07,0.6,0.1
							C338.97,285.83,339.93,286.22,340.13,286.65 M302.43,278.55l-1.85,0.5v7l-13.9,4.1l-0.6,0.2l-26.15-6.9l-0.75,0.25
							l-10.15,3.15l-0.05,4.5l-1.15,0.3l1.15,0.3v0.2l0.15-0.15l4.7,1.45l6.65,2.85l21.85,9.35l50.6-15.2
							c-0.87,0.03-1.8,0.05-2.8,0.05c-2.73,0-5.07-0.18-7-0.55c-1.4-0.23-2.28-0.52-2.65-0.85v-2.15c-0.03-0.07-0.05-0.12-0.05-0.15
							c0-0.5,0.95-0.93,2.85-1.3c0.03,0,0.07,0,0.1,0l0.1-13.1L302.43,278.55 M137.23,320.8l-0.3,0.2l-0.45-0.25l-0.05,2.15v1.3
							l-0.2,26.4l0.55,0.25l-0.2-0.25l62-19.25l40.55-31.55l-0.15-2.7l-4.3-3.5l-11.6,4.5l-0.2,11.45l-25.15,7.65v0.4l-0.45-0.3
							l-4.2-2.45l0.05,5l-38.3,11.65l-17.5-8.5L137.23,320.8z"/>
					</g>
					<g>
						<path class="st98" d="M249.13,292l-0.15,0.15l-5.7,4.4l3.25,1.35l0.35,1l6.95-5.45L249.13,292z"/>
					</g>
					<g>
						<path class="st99" d="M248.98,291.95l-1.15-0.3l-5.65,1.35l0.3,4.2l0.8-0.65l5.7-4.4V291.95z"/>
					</g>
					<g>
						<path class="st100" d="M247.83,291.65l1.15-0.3l0.05-4.5L238.98,290v7.1l0.15,2.7l3.35-2.6l-0.3-4.2L247.83,291.65z"/>
					</g>
					<g>
						<path class="st101" d="M238.98,290l-15.8,5l-0.1,3.1l11.6-4.5l4.3,3.5V290z"/>
					</g>
					<g>
						<path class="st102" d="M234.93,207.9l0.2,0.2l8.45-2.8c1.73-2.7,0.9-5.32-2.5-7.85l-9.6,2.6
							C234.68,201.75,235.83,204.37,234.93,207.9z"/>
					</g>
					<g>
						<path class="st103" d="M234.73,207.7c0.03,0.17,0.07,0.33,0.1,0.5l0.3-0.1l-0.2-0.2c0.9-3.53-0.25-6.15-3.45-7.85l-1.3,0.4
							C232.45,201.98,233.97,204.4,234.73,207.7z"/>
					</g>
					<g>
						<path class="st104" d="M323.48,272.4l-0.1,13.1c1.9-0.33,4.2-0.5,6.9-0.5c2.43,0,4.55,0.13,6.35,0.4l0.1-8.05l0.2-17.5
							l-13.35,3.85L323.48,272.4z"/>
					</g>
					<g>
						<path class="st105" d="M320.43,286.8c0,0.03,0.02,0.08,0.05,0.15c0.13,0.43,1.07,0.8,2.8,1.1c1.93,0.37,4.27,0.55,7,0.55
							s5.05-0.18,6.95-0.55c1.77-0.3,2.73-0.67,2.9-1.1c0-0.07,0-0.12,0-0.15v-0.15c-0.2-0.43-1.17-0.82-2.9-1.15
							c-0.2-0.03-0.4-0.07-0.6-0.1c-1.8-0.27-3.92-0.4-6.35-0.4c-2.7,0-5,0.17-6.9,0.5c-0.03,0-0.07,0-0.1,0
							C321.38,285.87,320.43,286.3,320.43,286.8z"/>
					</g>
					<g>
						<path class="st106" d="M320.48,286.95v2.15c0.37,0.33,1.25,0.62,2.65,0.85c1.93,0.37,4.27,0.55,7,0.55c1,0,1.93-0.02,2.8-0.05
							l7.2-2.15v-1.35c-0.17,0.43-1.13,0.8-2.9,1.1c-1.9,0.37-4.22,0.55-6.95,0.55s-5.07-0.18-7-0.55
							C321.55,287.75,320.62,287.38,320.48,286.95z"/>
					</g>
					<g>
						<path class="st107" d="M302.33,269.8l0.1,8.75l21.05-6.15l0.1-8.7L302.33,269.8z"/>
					</g>
					<g>
						<path class="st108" d="M174.18,350.35l2.4,3.75l70.3-55.2l-0.35-1l-3.25-1.35l-0.8,0.65l-3.35,2.6l-40.55,31.55l-3.25,2.55
							L174.18,350.35z"/>
					</g>
					<g>
						<path class="st109" d="M176.58,354.1l3.95,6.15l46.6-36.7l2-1.55l20.2-15.95l-2.45-7.15L176.58,354.1z"/>
					</g>
					<g>
						<path class="st110" d="M136.43,324.2l-4.55,0.05v-0.75l-2.35,0.05l0.25,11.05l0.3,0.15h1.7l0.1,5.5
							c-5.17,2.4-10.58,2.58-16.25,0.55l20.6,9.8L136.43,324.2z"/>
					</g>
					<g>
						<path class="st111" d="M136.43,324.2v-1.3l-4.55-0.45v1.05v0.75L136.43,324.2z"/>
					</g>
					<g>
						<path class="st112" d="M116.03,335.15l-1.8-0.1l0.3,5.2l1.1,0.55c5.67,2.03,11.08,1.85,16.25-0.55l-0.1-5.5h-1.7h-0.6
							c-4.1,2.67-8.57,2.8-13.4,0.4H116.03z"/>
					</g>
					<g>
						<path class="st113" d="M119.73,320.75l-0.15-7.9l-11-5.15l0.45,15.9l6.8-1.8L119.73,320.75 M110.83,320.9l-0.15-4.5l7.35-1.25
							v4.4L110.83,320.9z"/>
					</g>
					<g>
						<path class="st114" d="M110.68,316.4l0.15,4.5l7.2-1.35v-4.4L110.68,316.4z"/>
					</g>
					<g>
						<path class="st115" d="M106.63,306.8l-0.6-0.3l0.35,17.8l0.8-0.2L106.63,306.8z"/>
					</g>
					<g>
						<path class="st116" d="M108.58,307.7l-1.95-0.9l0.55,17.3l1.85-0.5L108.58,307.7z"/>
					</g>
					<g>
						<path class="st117" d="M118.73,300.1l-4.2,2.2l4.3,1.9l3.35-2L118.73,300.1z"/>
					</g>
					<g>
						<path class="st118" d="M114.08,299.7h-0.05c-0.07,0.03-0.13,0.07-0.2,0.1c-0.03,0.03-0.07,0.05-0.1,0.05
							c-0.6,0.23-1.3,0.08-2.1-0.45c-0.7-0.5-1.27-1.17-1.7-2l-2.8,1.55l7.4,3.35l4.2-2.2l-2.5-1.5L114.08,299.7z"/>
					</g>
					<g>
						<path class="st119" d="M136.48,320.75l-2.7-1.25l-4.35,0.2l0.1,3.85l2.35-0.05v-1.05l4.55,0.45L136.48,320.75z"/>
					</g>
					<g>
						<path class="st120" d="M129.38,317.45l0.05,2.25l4.35-0.2L129.38,317.45z"/>
					</g>
					<g>
						<path class="st121" d="M124.13,319.6l-0.1-4.65l-4.45-2.1l0.15,7.9L124.13,319.6z"/>
					</g>
					<g>
						<path class="st122" d="M124.03,314.95l0.1,4.65l-4.4,1.15l-3.9,1.05l0.2,13.35h0.05c4.83,2.4,9.3,2.27,13.4-0.4
							c0.1-0.07,0.2-0.12,0.3-0.15l-0.25-11.05l-0.1-3.85l-0.05-2.25L124.03,314.95z"/>
					</g>
					<g>
						<path class="st123" d="M154.83,331.5l0.1-15.15l-17.7,4.45l0.1,2.2L154.83,331.5z"/>
					</g>
					<g>
						<path class="st124" d="M154.93,316.35l-0.1,15.15l38.3-11.65l-0.05-5l-0.1-10.4L154.93,316.35z"/>
					</g>
					<g>
						<path class="st125" d="M44.28,345.3l-0.05-0.1c6.07,0.37,11.23-1.75,15.5-6.35l-1-2.05c-4.27,4.97-9.4,6.98-15.4,6.05
							l-0.35,1.1C43.38,344.42,43.82,344.87,44.28,345.3z"/>
					</g>
					<g>
						<path class="st126" d="M55.18,329.65l-0.9,0.55l0.4,1.05c-3,4.33-6.47,7.27-10.4,8.8l-0.95,2.8c6,0.93,11.13-1.08,15.4-6.05
							L55.18,329.65z"/>
					</g>
					<g>
						<path class="st127" d="M38.83,340.9l0.2-0.5c-1.13-2.7-1.75-5.82-1.85-9.35l-16.75-7.45c0,4.03,0.78,7.65,2.35,10.85
							L38.83,340.9z"/>
					</g>
					<g>
						<path class="st128" d="M24.03,336.6c1.13,1.77,2.55,3.4,4.25,4.9c0.47,0.4,0.93,0.78,1.4,1.15l19.8,7.45
							c-0.27-0.17-0.53-0.32-0.8-0.45c-0.13-0.03-0.25-0.07-0.35-0.1c-0.53-0.2-1.05-0.43-1.55-0.7c-1.17-0.57-2.28-1.33-3.35-2.3
							c-0.17-0.13-0.32-0.28-0.45-0.45c-0.67-0.5-1.02-0.87-1.05-1.1c-0.4-0.43-0.77-0.88-1.1-1.35c-0.03-0.07-0.07-0.13-0.1-0.2
							L24.03,336.6z"/>
					</g>
					<g>
						<path class="st129" d="M22.78,334.45c0.37,0.73,0.78,1.45,1.25,2.15l16.7,6.85c-0.53-0.73-0.98-1.52-1.35-2.35l-0.55-0.2
							L22.78,334.45z"/>
					</g>
					<g>
						<path class="st130" d="M37.18,330.15c0-0.33,0.02-0.67,0.05-1l-16.75-6.8c-0.03,0.43-0.05,0.85-0.05,1.25l16.75,7.45
							C37.18,330.75,37.18,330.45,37.18,330.15 M23.43,309l16.2,8.1c0.2-0.6,0.43-1.18,0.7-1.75l-16.45-7.4
							C23.72,308.28,23.57,308.63,23.43,309 M45.13,304v-2.35l-12.4-6.3c-0.6,0.53-1.17,1.1-1.7,1.7L45.13,304 M45.13,289.05
							l-0.2-0.1c-0.9,0.17-1.82,0.4-2.75,0.7c-0.07,0.03-0.15,0.07-0.25,0.1l3.2,1.6V289.05z"/>
					</g>
					<g>
						<path class="st131" d="M39.63,317.1l-16.2-8.1c-1.83,4.3-2.82,8.75-2.95,13.35l16.75,6.8
							C37.33,324.98,38.13,320.97,39.63,317.1z"/>
					</g>
					<g>
						<path class="st132" d="M58.03,318.3c-0.17-1.33-0.77-2.22-1.8-2.65c-0.97-0.4-2.07-0.23-3.3,0.5
							c-1.23,0.77-2.25,1.88-3.05,3.35c-0.73,1.47-1.02,2.87-0.85,4.2c0.13,1.3,0.7,2.17,1.7,2.6c1,0.43,2.12,0.28,3.35-0.45
							c-0.03-0.07-0.05-0.13-0.05-0.2c-0.27-1.67-0.02-3.17,0.75-4.5c0.77-1.33,1.75-2.25,2.95-2.75
							C57.83,318.37,57.93,318.33,58.03,318.3z"/>
					</g>
					<g>
						<path class="st133" d="M45.13,301.65l3.35,1.7c2.63-2.63,5.55-4.58,8.75-5.85l-12.1-6.15V301.65 M45.13,304v3.15
							c0-0.03,0.02-0.05,0.05-0.05c0.6-0.77,1.22-1.5,1.85-2.2L45.13,304z"/>
					</g>
					<g>
						<path class="st134" d="M48.08,308.5l-1.7-0.8c-0.63,0.83-1.27,1.73-1.9,2.7c-1.17,1.8-2.15,3.63-2.95,5.5
							c-0.27,0.57-0.52,1.15-0.75,1.75c-0.83,2.23-1.43,4.5-1.8,6.8l3.95,7.25l-3.05,6.8c0.27,0.73,0.57,1.43,0.9,2.1
							c0.43,0.93,0.97,1.82,1.6,2.65c0.2,0.23,0.4,0.47,0.6,0.7l0.35-1.1l0.95-2.8l2.35-7.15l1.25-0.65l-3.8-8.45l7.1-13.85
							L48.08,308.5z"/>
					</g>
					<g>
						<path class="st135" d="M45.13,307.15V304l-14.1-6.95c-1.5,1.63-2.92,3.48-4.25,5.55c-1.13,1.77-2.1,3.55-2.9,5.35l16.45,7.4
							c0.87-1.97,1.9-3.88,3.1-5.75C44,308.73,44.57,307.92,45.13,307.15z"/>
					</g>
					<g>
						<path class="st136" d="M53.33,306.4l1.75-6.4c-1.9,1.03-3.68,2.35-5.35,3.95c-0.5,0.47-1,0.98-1.5,1.55
							c-0.63,0.67-1.25,1.4-1.85,2.2l1.7,0.8C49.58,306.93,51.33,306.23,53.33,306.4z"/>
					</g>
					<g>
						<path class="st137" d="M62.18,336.7l0.2-0.35l-1.2-2.1l-2.4-4.75c-0.2-0.07-0.4-0.13-0.6-0.2c-0.07,0-0.13-0.02-0.2-0.05
							c-0.1-0.03-0.18-0.05-0.25-0.05l-0.05-0.05c-0.4-0.1-0.75-0.23-1.05-0.4l-1.45,0.9l3.55,7.15l1,2.05l0.8-0.3L62.18,336.7z"/>
					</g>
					<g>
						<path class="st138" d="M66.73,328.65l-0.5,0.45l-0.4-0.9c-1.3,3.03-2.85,5.05-4.65,6.05l1.2,2.1c0.1-0.1,0.2-0.18,0.3-0.25
							c0.23-0.23,0.48-0.47,0.75-0.7c2.27-2.3,4.2-5.4,5.8-9.3L66.73,328.65z"/>
					</g>
					<g>
						<path class="st139" d="M65.38,327.15c-0.43,0.93-1.02,1.65-1.75,2.15c-1,0.77-1.98,1-2.95,0.7h-0.05
							c0.13,0.07-0.48-0.1-1.85-0.5l2.4,4.75c1.8-1,3.35-3.02,4.65-6.05L65.38,327.15z"/>
					</g>
					<g>
						<path class="st140" d="M65.73,326.3c0.4-1.33,0.43-2.58,0.1-3.75c-0.3-0.77-0.72-1.35-1.25-1.75l-1.4,1.2l2.2,5.15
							C65.52,326.88,65.63,326.6,65.73,326.3z"/>
					</g>
					<g>
						<path class="st141" d="M79.13,323.3c-0.1,0.33-0.18,0.67-0.25,1l56.95,27.1l59.5-17.5l3.25-2.55l-62,19.25l0.2,0.25
							l-0.55-0.25l-20.6-9.8h-1.1v-0.55L79.13,323.3z"/>
					</g>
					<g>
						<path class="st142" d="M78.48,323c-0.07,0.33-0.13,0.67-0.2,1c-0.97,4.2-2.7,8.25-5.2,12.15c-3.97,6.17-8.73,10.15-14.3,11.95
							c-3.7,1.2-7.03,1.23-10,0.1c-0.53-0.23-1.05-0.48-1.55-0.75c-0.83-0.43-1.83-1.18-3-2.25l0.25,0.3
							c-0.07-0.07-0.13-0.13-0.2-0.2c-0.47-0.43-0.9-0.88-1.3-1.35c-0.2-0.23-0.4-0.47-0.6-0.7c-0.63-0.83-1.17-1.72-1.6-2.65
							c-0.33-0.67-0.63-1.37-0.9-2.1c-0.73-2.03-1.17-4.32-1.3-6.85c-0.03-0.57-0.05-1.15-0.05-1.75c0-1.83,0.15-3.65,0.45-5.45
							c0.37-2.3,0.97-4.57,1.8-6.8c0.23-0.6,0.48-1.18,0.75-1.75c0.8-1.87,1.78-3.7,2.95-5.5c0.63-0.97,1.27-1.87,1.9-2.7l-1.2-0.6
							c-0.03,0-0.05,0.02-0.05,0.05c-0.57,0.77-1.13,1.58-1.7,2.45c-1.2,1.87-2.23,3.78-3.1,5.75c-0.27,0.57-0.5,1.15-0.7,1.75
							c-1.5,3.87-2.3,7.88-2.4,12.05c-0.03,0.33-0.05,0.67-0.05,1c0,0.3,0,0.6,0,0.9c0.1,3.53,0.72,6.65,1.85,9.35l-0.2,0.5
							l0.55,0.2c0.37,0.83,0.82,1.62,1.35,2.35c0.03,0.07,0.07,0.13,0.1,0.2c0.33,0.47,0.7,0.92,1.1,1.35c0.17,0.2,0.33,0.4,0.5,0.6
							c0.17,0.17,0.35,0.33,0.55,0.5c0.13,0.17,0.28,0.32,0.45,0.45c1.07,0.97,2.18,1.73,3.35,2.3c0.5,0.27,1.02,0.5,1.55,0.7
							c0.1,0.03,0.22,0.07,0.35,0.1c2.97,0.93,6.23,0.82,9.8-0.35c5.87-1.93,10.88-6.13,15.05-12.6c2.57-4,4.35-8.13,5.35-12.4
							c0.07-0.33,0.15-0.67,0.25-1c0.07-0.47,0.15-0.95,0.25-1.45c-0.23-0.03-0.47-0.05-0.7-0.05C78.62,322.2,78.55,322.6,78.48,323
							z"/>
					</g>
					<g>
						<path class="st143" d="M73.33,320.55c0.17,0.07,0.33,0.13,0.5,0.2c0.13,0.03,0.28,0.08,0.45,0.15c1.47,0.43,2.93,0.73,4.4,0.9
							c0.23-1.7,0.35-3.42,0.35-5.15c0-1.13-0.05-2.22-0.15-3.25c-4,0.33-6.57,1.53-7.7,3.6c-0.63-0.13-1.25,0.42-1.85,1.65
							L73.33,320.55z"/>
					</g>
					<g>
						<path class="st144" d="M74.18,320.95l-0.2,0.2l-4.75,4.95c-1.6,3.9-3.53,7-5.8,9.3c-0.27,0.23-0.52,0.47-0.75,0.7l-0.5,0.6
							l-1.65,1.85l-0.8,0.3c-4.27,4.6-9.43,6.72-15.5,6.35c1.17,1.07,2.17,1.82,3,2.25c0.5,0.27,1.02,0.52,1.55,0.75
							c2.97,1.13,6.3,1.1,10-0.1c5.57-1.8,10.33-5.78,14.3-11.95c2.5-3.9,4.23-7.95,5.2-12.15c0.07-0.33,0.13-0.67,0.2-1
							L74.18,320.95z"/>
					</g>
					<g>
						<path class="st145" d="M74.28,320.9l-0.1,0.05l4.3,2.05c0.07-0.4,0.13-0.8,0.2-1.2C77.22,321.63,75.75,321.33,74.28,320.9z"/>
					</g>
					<g>
						<path class="st146" d="M73.98,321.15c-0.03-0.13-0.07-0.25-0.1-0.35l-0.55-0.25l-4-1.9c-0.93,1.8-1.8,5.13-2.6,10l2.5-2.55
							L73.98,321.15z"/>
					</g>
					<g>
						<path class="st147" d="M69.33,318.65l-1.45-0.7l-3.3,2.85c0.53,0.4,0.95,0.98,1.25,1.75c0.33,1.17,0.3,2.42-0.1,3.75
							c-0.1,0.3-0.22,0.58-0.35,0.85l0.45,1.05l0.4,0.9l0.5-0.45C67.53,323.78,68.4,320.45,69.33,318.65z"/>
					</g>
					<g>
						<path class="st148" d="M67.88,317.95l1.45,0.7c0.6-1.23,1.22-1.78,1.85-1.65c1.13-2.07,3.7-3.27,7.7-3.6
							c-0.17-1.53-0.45-2.97-0.85-4.3L67.88,317.95z"/>
					</g>
					<g>
						<path class="st149" d="M64.58,320.8c-0.27-0.17-0.55-0.3-0.85-0.4c-0.47-0.17-0.95-0.2-1.45-0.1c-0.47,0.1-0.95,0.33-1.45,0.7
							c-1,0.7-1.7,1.72-2.1,3.05c-0.4,1.27-0.45,2.43-0.15,3.5c0,0.07,0.02,0.13,0.05,0.2s0.07,0.13,0.1,0.2c0,0.03,0,0.07,0,0.1
							c0.03,0.07,0.07,0.12,0.1,0.15c0.27,0.63,0.65,1.12,1.15,1.45c0.2,0.13,0.42,0.25,0.65,0.35h0.05c0.97,0.3,1.95,0.07,2.95-0.7
							c0.73-0.5,1.32-1.22,1.75-2.15l-2.2-5.15L64.58,320.8z"/>
					</g>
					<g>
						<path class="st150" d="M63.18,316.7l-2.05,1.8c-0.07-0.03-0.13-0.07-0.2-0.1c-0.37-0.2-0.75-0.32-1.15-0.35
							c-0.57-0.07-1.15,0.02-1.75,0.25c-0.1,0.03-0.2,0.07-0.3,0.1c-1.2,0.5-2.18,1.42-2.95,2.75c-0.77,1.33-1.02,2.83-0.75,4.5
							c0,0.07,0.02,0.13,0.05,0.2c0.17,0.87,0.6,1.58,1.3,2.15c0.33,0.3,0.75,0.55,1.25,0.75c0.3,0.17,0.65,0.3,1.05,0.4l0.05,0.05
							c0.07,0,0.15,0.02,0.25,0.05c0.07,0.03,0.13,0.05,0.2,0.05c0.2,0.07,0.4,0.13,0.6,0.2c1.37,0.4,1.98,0.57,1.85,0.5
							c-0.23-0.1-0.45-0.22-0.65-0.35c-0.5-0.33-0.88-0.82-1.15-1.45c-0.03-0.03-0.07-0.08-0.1-0.15c0-0.03,0-0.07,0-0.1
							c-0.03-0.07-0.07-0.13-0.1-0.2s-0.05-0.13-0.05-0.2c-0.3-1.07-0.25-2.23,0.15-3.5c0.4-1.33,1.1-2.35,2.1-3.05
							c0.5-0.37,0.98-0.6,1.45-0.7c0.5-0.1,0.98-0.07,1.45,0.1c0.3,0.1,0.58,0.23,0.85,0.4l3.3-2.85l-3.95-1.9L63.18,316.7z"/>
					</g>
					<g>
						<path class="st151" d="M62.33,315.3l-1.2-0.55l-9.95-4.8l-7.1,13.85l3.8,8.45l6.9-3.35l0.4,0.75l1.45-0.9
							c-0.5-0.2-0.92-0.45-1.25-0.75c-0.7-0.57-1.13-1.28-1.3-2.15c-1.23,0.73-2.35,0.88-3.35,0.45c-1-0.43-1.57-1.3-1.7-2.6
							c-0.17-1.33,0.12-2.73,0.85-4.2c0.8-1.47,1.82-2.58,3.05-3.35c1.23-0.73,2.33-0.9,3.3-0.5c1.03,0.43,1.63,1.32,1.8,2.65
							c0.6-0.23,1.18-0.32,1.75-0.25c0.4,0.03,0.78,0.15,1.15,0.35c0.07,0.03,0.13,0.07,0.2,0.1l2.05-1.8c0.07-0.3,0.13-0.6,0.2-0.9
							L62.33,315.3z"/>
					</g>
					<g>
						<path class="st152" d="M61.13,314.75l1.2,0.55c1.7-7.13,1.25-12.72-1.35-16.75l-3.45,9.15L61.13,314.75z"/>
					</g>
					<g>
						<path class="st153" d="M60.98,298.55l0.3-0.8c-0.8,0.17-1.63,0.38-2.5,0.65c-0.03,0-0.05,0.02-0.05,0.05
							c-1.27,0.4-2.48,0.92-3.65,1.55l-1.75,6.4c-2-0.17-3.75,0.53-5.25,2.1l3.1,1.45l9.95,4.8l-3.6-7.05L60.98,298.55z"/>
					</g>
					<g>
						<path class="st154" d="M78.03,309.1c-0.43-1.53-1.03-2.95-1.8-4.25l-12.3,11.2l3.95,1.9L78.03,309.1z"/>
					</g>
					<g>
						<path class="st155" d="M76.23,304.85c-0.87-1.43-1.92-2.7-3.15-3.8c-3.2-2.87-6.92-4-11.15-3.4c-0.17,0.03-0.32,0.07-0.45,0.1
							c-0.07,0-0.13,0-0.2,0l-0.3,0.8c2.6,4.03,3.05,9.62,1.35,16.75l1.05,0.5l0.55,0.25L76.23,304.85z"/>
					</g>
					<g>
						<path class="st156" d="M99.83,321.6l-7.4-4l0.05,3.65L99.83,321.6z"/>
					</g>
					<g>
						<path class="st157" d="M89.23,320.2v0.05l3.25,1.55v-0.55l-0.05-3.65l-3.05-1.6L89.23,320.2z"/>
					</g>
					<g>
						<path class="st158" d="M89.23,320.25l-0.1-0.05c-3.17,1.37-6.42,1.92-9.75,1.65c-0.1,0.5-0.18,0.98-0.25,1.45l35.4,16.95
							l-0.3-5.2l1.8,0.1l-0.2-13.35l-6.8,1.8l-1.85,0.5l-0.8,0.2l-0.95,0.25l-5.6-2.95l-7.35-0.35v0.55L89.23,320.25 M351.73,284.8
							l-0.25-29.15l-14.55,4.2l-0.2,17.5l14.6,7.55L351.73,284.8z"/>
					</g>
					<g>
						<path class="st159" d="M83.78,313.4V313l0.1-8.95l-5.1,4.4c0.43,1.5,0.73,3.13,0.9,4.9C80.92,313.28,82.28,313.3,83.78,313.4z
							"/>
					</g>
					<g>
						<path class="st160" d="M83.78,313v0.4c-1.5-0.1-2.87-0.12-4.1-0.05c-0.3,0-0.57,0.02-0.8,0.05c0.1,1.03,0.15,2.12,0.15,3.25
							c0,1.73-0.12,3.45-0.35,5.15c0.23,0,0.47,0.02,0.7,0.05c3.33,0.27,6.58-0.28,9.75-1.65c0.03,0,0.07,0,0.1,0l0.15-4.2
							L83.78,313z"/>
					</g>
					<g>
						<path class="st161" d="M83.88,304.05l0.1-6.3l-6.95,6.4l-0.8,0.7c0.77,1.3,1.37,2.72,1.8,4.25c0.4,1.33,0.68,2.77,0.85,4.3
							c0.23-0.03,0.5-0.05,0.8-0.05c-0.17-1.77-0.47-3.4-0.9-4.9L83.88,304.05z"/>
					</g>
					<g>
						<path class="st162" d="M83.98,297.75l-0.1,6.3l-0.1,8.95l5.6,3l3.05,1.6l7.4,4l5.6,2.95l0.95-0.25l-0.35-17.8l-20.9-9.8
							L83.98,297.75z"/>
					</g>
					<g>
						<path class="st163" d="M77.03,279.7l12.25-7.15l-1.3-12.75l-12.25,6.5L77.03,279.7z"/>
					</g>
					<g>
						<path class="st164" d="M75.43,284.05v0.7l16.8-8.15l0.15,1.25V274L75.43,284.05z"/>
					</g>
					<g>
						<path class="st165" d="M63.98,277.9h-0.05l-0.15,0.8l0.05,0.85l6,2.7l-0.2-1.95L63.98,277.9z"/>
					</g>
					<g>
						<path class="st166" d="M75.48,282.9l-0.05,1.15L92.38,274l1.2-0.7l-0.05-1.25l-4.05,2.45l-13.65,8.2L75.48,282.9z"/>
					</g>
					<g>
						<path class="st167" d="M73.58,281.7l-0.15,0.05l0.05,2.15l1.9,0.85h0.05v-0.7l0.05-1.15l0.35-0.2L73.58,281.7z"/>
					</g>
					<g>
						<path class="st168" d="M74.68,281.05l-0.4-0.15l-1.6-0.75l0.2-0.2l-0.1-1.85l-3.15,2.2l0.2,1.95l3.65,1.65l-0.05-2.15v-0.15
							l0.15,0.1L74.68,281.05z"/>
					</g>
					<g>
						<path class="st169" d="M75.58,280.55l-0.9,0.5l-1.1,0.65l2.25,1l13.65-8.2l-0.2-1.95l-12.25,7.15L75.58,280.55z"/>
					</g>
					<g>
						<path class="st170" d="M72.83,278.05l-0.05,0.05l0.1,1.85l-0.2,0.2l1.6,0.75l-0.1-2.45L72.83,278.05z"/>
					</g>
					<g>
						<path class="st171" d="M72.83,278.05L72.78,278l-5.8-2.1l-3,2l5.65,2.4l3.15-2.2L72.83,278.05z"/>
					</g>
					<g>
						<path class="st172" d="M64.63,268.65l1.95-0.25c2.3,0.97,3,2.43,2.1,4.4l-2.8,2.7l1.1,0.4l5.8,2.1l0.05,0.05l1.35,0.4
							l-0.9-13.15l-0.05,0.05l-8.9-3.1L64.63,268.65z"/>
					</g>
					<g>
						<path class="st173" d="M64.63,268.65l-0.85,0.1l-1.8,0.2c0.3,0.07,0.6,0.22,0.9,0.45c0.67,0.47,1.22,1.1,1.65,1.9
							c0.1,0.2,0.2,0.42,0.3,0.65c0.5,1.1,0.7,2.15,0.6,3.15c-0.07,0.47-0.2,0.87-0.4,1.2l0.85-0.8l2.8-2.7
							c0.9-1.97,0.2-3.43-2.1-4.4L64.63,268.65 M111.48,291.55l-0.5,0.1c0.47,0,0.97,0.18,1.5,0.55c0.83,0.57,1.48,1.42,1.95,2.55
							c0.5,1.1,0.7,2.15,0.6,3.15c-0.1,0.83-0.42,1.43-0.95,1.8l2.15-1.1l0.1-0.1l0.25,0.05l3.3-1.55c0.03-0.17,0.07-0.35,0.1-0.55
							c0.1-1-0.1-2.05-0.6-3.15c-0.47-1.13-1.12-1.98-1.95-2.55c-0.13-0.07-0.25-0.13-0.35-0.2l-2.65,0.45l-1.1,0.2v0.1
							L111.48,291.55z"/>
					</g>
					<g>
						<path class="st174" d="M63.08,259.95l0.35,4.35l0.35,4.45l0.85-0.1l-0.3-6.4l8.9,3.1l0.05-0.05l0.9,13.15l0.1,2.45l0.4,0.15
							l0.9-0.5l-1.4-16.35C69.98,262.57,66.28,261.15,63.08,259.95 M113.63,282.45l-0.45,0.25l0.15,7.85v0.65l1.1-0.2l-0.05-6.2
							l9.25,4.2l0.35,14l0.7,0.35l0.25-0.15l-0.35-15.85l-0.15,0.1L113.63,282.45z"/>
					</g>
					<g>
						<path class="st175" d="M93.48,271.8l-2-0.5l-1.1,0.6l-1.1,0.65l0.2,1.95l4.05-2.45L93.48,271.8z"/>
					</g>
					<g>
						<path class="st176" d="M66.23,259.5l8.65,3.2l9.95-5.55l-8.25-3.05L66.23,259.5z"/>
					</g>
					<g>
						<path class="st177" d="M87.98,259.8l1.35-0.7l-0.15-1.8l-1.2-0.45l-13.8,7.35l1.4,16.35l1.45-0.85l-1.3-13.4L87.98,259.8z"/>
					</g>
					<g>
						<path class="st178" d="M89.33,259.1l-1.35,0.7l1.3,12.75l1.1-0.65L89.33,259.1z"/>
					</g>
					<g>
						<path class="st179" d="M60.78,296.45c-0.3,0.03-0.6,0.1-0.9,0.2c-0.47,0.1-0.93,0.23-1.4,0.4c-0.17,0.07-0.32,0.12-0.45,0.15
							c-0.27,0.1-0.53,0.2-0.8,0.3c-3.2,1.27-6.12,3.22-8.75,5.85l-3.35-1.7V304l1.9,0.9c-0.63,0.7-1.25,1.43-1.85,2.2l1.2,0.6
							c0.6-0.8,1.22-1.53,1.85-2.2c0.5-0.57,1-1.08,1.5-1.55c1.67-1.6,3.45-2.92,5.35-3.95c1.17-0.63,2.38-1.15,3.65-1.55
							c0-0.03,0.02-0.05,0.05-0.05c0.87-0.27,1.7-0.48,2.5-0.65c0.07,0,0.13,0,0.2,0c0.13-0.03,0.28-0.07,0.45-0.1
							c4.23-0.6,7.95,0.53,11.15,3.4c1.23,1.1,2.28,2.37,3.15,3.8l0.8-0.7c-0.93-1.67-2.1-3.13-3.5-4.4
							c-1.2-1.07-2.05-1.77-2.55-2.1C67.45,296.15,64.05,295.75,60.78,296.45z"/>
					</g>
					<g>
						<path class="st180" d="M45.13,288.95c0.6-0.1,2.25-0.17,4.95-0.2c1.17-0.03,2.82,0.27,4.95,0.9l16.35,7.85
							c-0.1,0.07-0.23,0.12-0.4,0.15c0.5,0.33,1.35,1.03,2.55,2.1c1.4,1.27,2.57,2.73,3.5,4.4l6.95-6.4l1.15-1.05l-40-18.7V288.95z"
							/>
					</g>
					<g>
						<path class="st181" d="M45.13,291.35l-3.2-1.6c-3.33,1.13-6.4,3-9.2,5.6l12.4,6.3V291.35z"/>
					</g>
					<g>
						<path class="st182" d="M45.13,289.05v2.3l12.1,6.15c0.27-0.1,0.53-0.2,0.8-0.3c0.13-0.03,0.28-0.08,0.45-0.15
							c0.47-0.17,0.93-0.3,1.4-0.4L45.13,289.05z"/>
					</g>
					<g>
						<path class="st183" d="M45.13,288.95v0.1l14.75,7.6c0.3-0.1,0.6-0.17,0.9-0.2c3.27-0.7,6.67-0.3,10.2,1.2
							c0.17-0.03,0.3-0.08,0.4-0.15l-16.35-7.85c-2.13-0.63-3.78-0.93-4.95-0.9C47.38,288.78,45.73,288.85,45.13,288.95z"/>
					</g>
					<g>
						<path class="st184" d="M60.13,274.3l-4.05,1.8l7.75,3.45l-0.05-0.85l0.15-0.8v-0.05l0.05,0.05l3-2l-1.1-0.4l-0.85,0.8
							l-0.65,0.65c-0.03,0-0.08,0.02-0.15,0.05c-0.23,0.1-0.48,0.15-0.75,0.15c-1.47-0.93-2.53-1.9-3.2-2.9L60.13,274.3z"/>
					</g>
					<g>
						<path class="st185" d="M60.53,269.1c-0.23,0.13-0.42,0.3-0.55,0.5c-0.33,0.7-0.5,1.42-0.5,2.15c0,0.4,0.07,0.8,0.2,1.2
							c0.13,0.43,0.33,0.87,0.6,1.3c0.67,1,1.73,1.97,3.2,2.9c0.27,0,0.52-0.05,0.75-0.15c0.07-0.03,0.12-0.05,0.15-0.05l0.65-0.65
							c0.2-0.33,0.33-0.73,0.4-1.2c0.1-1-0.1-2.05-0.6-3.15c-0.1-0.23-0.2-0.45-0.3-0.65c-0.43-0.8-0.98-1.43-1.65-1.9
							c-0.3-0.23-0.6-0.38-0.9-0.45c-0.47-0.13-0.9-0.12-1.3,0.05C60.62,269.03,60.57,269.07,60.53,269.1z"/>
					</g>
					<g>
						<path class="st186" d="M59.98,269.6c0.07-0.17,0.15-0.32,0.25-0.45l0.3-0.05c0.03-0.03,0.08-0.07,0.15-0.1
							c0.4-0.17,0.83-0.18,1.3-0.05l1.8-0.2l-0.35-4.45l-18.3,6.25v0.65l10.95,4.9l4.05-1.8c-0.03-0.1-0.07-0.18-0.1-0.25
							c-0.17-0.37-0.28-0.73-0.35-1.1c-0.13-0.4-0.2-0.8-0.2-1.2c-0.03-0.3-0.03-0.58,0-0.85C59.58,270.37,59.75,269.93,59.98,269.6
							z"/>
					</g>
					<g>
						<path class="st187" d="M102.48,282.45v-11.9l-2.7-1.25l-1.6-0.75l-0.05-0.05l0.5,13.7L102.48,282.45z"/>
					</g>
					<g>
						<path class="st188" d="M117.08,290.55c0.1,0.07,0.22,0.13,0.35,0.2c0.83,0.57,1.48,1.42,1.95,2.55c0.5,1.1,0.7,2.15,0.6,3.15
							c-0.03,0.2-0.07,0.38-0.1,0.55l-3.3,1.55l-0.25-0.05l-0.1,0.1l2.5,1.5l3.45,2.1l0.3,0.15l-0.35-0.25l1.85,0.9l-0.35-14
							l-9.25-4.2l0.05,6.2L117.08,290.55z"/>
					</g>
					<g>
						<path class="st189" d="M111.48,291.55l-0.65,0.1c0.03,0,0.08,0,0.15,0L111.48,291.55z"/>
					</g>
					<g>
						<path class="st190" d="M110.43,291.75c-0.03,0-0.05,0.02-0.05,0.05c-0.03,0-0.07,0-0.1,0c-0.03,0-0.05,0.02-0.05,0.05
							c-0.6,0.3-0.98,0.92-1.15,1.85c-0.1,0.97,0.08,2.02,0.55,3.15c0.1,0.2,0.2,0.38,0.3,0.55c0.43,0.83,1,1.5,1.7,2
							c0.8,0.53,1.5,0.68,2.1,0.45c0.03,0,0.07-0.02,0.1-0.05c0.07-0.03,0.13-0.07,0.2-0.1h0.05c0.53-0.37,0.85-0.97,0.95-1.8
							c0.1-1-0.1-2.05-0.6-3.15c-0.47-1.13-1.12-1.98-1.95-2.55c-0.53-0.37-1.03-0.55-1.5-0.55c-0.07,0-0.12,0-0.15,0
							c-0.07,0-0.12,0.02-0.15,0.05C110.58,291.7,110.5,291.72,110.43,291.75z"/>
					</g>
					<g>
						<path class="st191" d="M107.78,273.05l-0.2-0.05l-3.05-1.45l-0.15,15.3l4,1.5L107.78,273.05z"/>
					</g>
					<g>
						<path class="st192" d="M107.83,273.1l-0.05-0.15v0.1l0.6,15.3l0.2,0.05l3.95-1.4l-0.35-15.1l-4.35,1.05V273.1z"/>
					</g>
					<g>
						<path class="st193" d="M136.83,245.75l-0.05-3.1l-3.7,1.15L136.83,245.75z"/>
					</g>
					<g>
						<path class="st194" d="M128.08,231.2v0.5c3.3-0.13,5.35,2.45,6.15,7.75l7.05-2.25c1.93-3.7,1.2-6.57-2.2-8.6L128.08,231.2z"/>
					</g>
					<g>
						<path class="st195" d="M128.23,222.2l-0.95-0.8l-6.6,1.6l-0.05,1.6l2.3-0.7l5.15-1.55l-0.15-0.3L128.23,222.2z"/>
					</g>
					<g>
						<path class="st196" d="M107.63,158.3l-8.05-3.7l0.15,83.6l0.05,14.75V268v1.3l2.7,1.25l2.05,1l3.05,1.45l0.2-0.05h0.05
							L107.63,158.3z"/>
					</g>
					<g>
						<path class="st197" d="M134.33,134l0.2,13.6l7.8,3.4l0.35,0.15V131.5L134.33,134 M124.08,137.05l0.05,6l8,3.5l-0.1-11.85
							L124.08,137.05 M121.78,142.05l0.05-4.3l-5.9,1.75L121.78,142.05 M113.68,99.25v18.65l8.2-2.45l0.1-18.65L113.68,99.25
							 M110.73,121.4l-6.9,2.1l-0.15,10.65l7.1,3.1L110.73,121.4 M110.68,100.15l-6.5,1.9l-0.3,18.8l6.85-2.05L110.68,100.15
							 M163.23,146.15l-0.25-20.7l-8.45,2.5l0.1,20.9L163.23,146.15 M164.78,145.65l8.65-2.7l-0.1-20.6l-8.85,2.65L164.78,145.65
							 M152.93,128.45l-8.25,2.45l0.4,21l8.05-2.55L152.93,128.45 M142.63,90.65l-8.9,2.65l0.25,18.55l8.7-2.6L142.63,90.65
							 M163.73,84.4l-9.45,2.8l0.1,18.6l8.7-2.65l0.65-0.2V84.4 M152.58,87.7l-8.55,2.5l0.3,18.55l8.4-2.5L152.58,87.7 M131.68,93.9
							l-7.95,2.35l0.15,18.6l7.95-2.35L131.68,93.9 M183.13,139.85l0.15-20.45l-8.8,2.6l0.15,20.55L183.13,139.85 M195.38,136
							l8.45-2.65l-0.2-20l-8.25,2.45V136 M193.23,116.45l-8.3,2.45v20.4l8.25-2.6L193.23,116.45 M213.58,110.35l-7.95,2.4l0.2,19.95
							l7.9-2.5L213.58,110.35 M224.13,126.95V107.2l-8.5,2.55l0.05,19.85L224.13,126.95 M234.93,104l-9,2.7l0.1,19.65l9.05-2.85
							L234.93,104 M244.98,120.35l-0.25-19.25l-8.55,2.55l0.35,19.4L244.98,120.35 M224.13,87.05l-8.55,2.6l0.05,17.65l8.5-2.5
							V87.05 M244.48,78.1l-0.25-17.65L235.58,63l0.25,17.75L244.48,78.1 M244.73,98.8l-0.25-17.95l-8.6,2.6l0.3,17.85L244.73,98.8
							 M234.73,83.8l-8.85,2.7l0.05,17.8l8.95-2.65L234.73,83.8 M234.53,63.35l-8.75,2.55l0.1,17.9l8.8-2.7L234.53,63.35
							 M203.43,93.3l-8.05,2.45v17.5l8.2-2.4L203.43,93.3 M215.48,69l0.1,18l8.55-2.65V66.4L215.48,69 M213.38,90.3l-7.95,2.4
							l0.15,17.55l7.95-2.35L213.38,90.3 M195.38,74.95V93.2l8-2.45l-0.15-18.1L195.38,74.95 M193.28,96.4l-8.35,2.5v17.4l8.3-2.45
							L193.28,96.4 M184.93,78.1v18.3l8.35-2.55V75.6L184.93,78.1 M113.68,137.15l8.15-2.4l0.05-16.75l-8.2,2.5V137.15 M131.88,115
							l-8,2.4l0.15,16.7l8-2.35L131.88,115 M142.68,128.65v-16.9l-8.65,2.6l0.25,16.75L142.68,128.65 M152.78,108.65l-8.4,2.55
							l0.25,16.85l8.3-2.4L152.78,108.65 M173.33,119.7l-0.1-17.25l-9.05,2.75l0.25,17.1L173.33,119.7 M162.93,122.7l-0.25-17.05
							l-8.3,2.5l0.1,17.05L162.93,122.7 M183.28,116.75l0.15-17.4l-9.1,2.8l0.1,17.2L183.28,116.75 M213.18,69.7l-7.95,2.35
							l0.15,18.05l7.95-2.45L213.18,69.7z"/>
					</g>
					<g>
						<path class="st198" d="M101.58,124.15l-0.05,9.05l2.15,0.95l0.15-10.65L101.58,124.15 M163.88,84.35l-0.15,0.05v18.55
							l0.4-0.15L163.88,84.35 M184.93,78.1l-0.6,0.15l-0.5,18.5l-19.7,6.05v0.05l-1.05,0.3l-8.7,2.65l-0.1-18.6l-1.7,0.5l0.15,18.55
							l-8.4,2.5l-0.3-18.55l-1.4,0.45l0.05,18.6l-8.7,2.6l-0.25-18.55l-2.05,0.6l0.15,18.6l-7.95,2.35l-0.15-18.6l-1.75,0.55
							l-0.1,18.65l-8.2,2.45l-2.95,0.9v2.05l-6.9,2.1v0.55l6.9-2.1l0.05,15.85l5.15,2.25l5.9-1.75l-0.05,4.3l2.35,1l-0.05-6
							l7.95-2.35l0.1,11.85l2.4,1.05l-0.2-13.6l8.35-2.5v19.65v1.5l2.4-0.75l-0.4-21l8.25-2.45l0.2,20.9l1.5-0.5l-0.1-20.9l8.45-2.5
							l0.25,20.7l1.55-0.5l-0.3-20.65l8.85-2.65l0.1,20.6l1.2-0.4L174.48,122l8.8-2.6l-0.15,20.45l1.8-0.55v-20.4l8.3-2.45
							l-0.05,20.25l2.2-0.7v-20.2l8.25-2.45l0.2,20l2-0.65l-0.2-19.95l7.95-2.4l0.15,19.85l1.95-0.6l-0.05-19.85l8.5-2.55v19.75
							l1.9-0.6l-0.1-19.65l9-2.7l0.15,19.5l1.45-0.45l-0.35-19.4l8.55-2.55l0.25,19.25l1.2-0.35l-0.95-39.35l-0.75,0.2l0.25,17.95
							l-8.55,2.5l-1.3,0.35l-8.95,2.65l-1.8,0.5l-8.5,2.5l-2.1,0.6l-7.95,2.35l-2,0.6l-8.2,2.4l-2.15,0.6l-8.3,2.45V98.9l8.35-2.5
							l2.1-0.65l8.05-2.45l2-0.6l7.95-2.4l2.2-0.65l8.55-2.6l1.75-0.55l8.85-2.7l1.15-0.35l-0.05-2.7l-1.15,0.35l-8.8,2.7
							l-1.75,0.55L215.58,87l-2.25,0.65l-7.95,2.45l-2,0.65l-8,2.45l-2.1,0.65l-8.35,2.55V78.1 M183.43,99.35l-0.15,17.4l-8.85,2.6
							l-0.1-17.2L183.43,99.35 M162.68,105.65l0.25,17.05l-8.45,2.5l-0.1-17.05L162.68,105.65 M173.23,102.45l0.1,17.25l-8.9,2.6
							l-0.25-17.1L173.23,102.45 M144.38,111.2l8.4-2.55l0.15,17l-8.3,2.4L144.38,111.2 M142.68,111.75v16.9l-8.4,2.45l-0.25-16.75
							L142.68,111.75 M123.88,117.4l8-2.4l0.15,16.75l-8,2.35L123.88,117.4 M121.83,134.75l-8.15,2.4V120.5l8.2-2.5L121.83,134.75z"
							/>
					</g>
					<g>
						<path class="st199" d="M110.68,100.15l0.05,18.65l2.95-0.9V99.25L110.68,100.15 M225.88,86.5l-1.75,0.55v17.75l1.8-0.5
							L225.88,86.5 M235.88,83.45l-1.15,0.35l0.15,17.85l1.3-0.35L235.88,83.45 M225.78,65.9l-1.65,0.5v17.95l1.75-0.55L225.78,65.9
							 M235.58,63l-1.05,0.35l0.15,17.75l1.15-0.35L235.58,63 M244.23,60.45v-1.8l-8.65,2.6V63L244.23,60.45 M244.73,60.3l-0.5,0.15
							l0.25,17.65l-8.65,2.65l0.05,2.7l8.6-2.6l0.75-0.2L244.73,60.3 M205.43,92.7l-2,0.6l0.15,17.55l2-0.6L205.43,92.7
							 M215.58,89.65l-2.2,0.65l0.15,17.6l2.1-0.6L215.58,89.65 M195.38,95.75l-2.1,0.65l-0.05,17.45l2.15-0.6V95.75 M195.38,74.95
							l-2.1,0.65v18.25l2.1-0.65V74.95 M215.48,69l-2.3,0.7l0.15,17.95l2.25-0.65L215.48,69 M205.23,72.05l-2,0.6l0.15,18.1l2-0.65
							L205.23,72.05z"/>
					</g>
					<g>
						<path class="st200" d="M110.73,118.8l-6.85,2.05l-0.05,2.1l6.9-2.1V118.8z"/>
					</g>
					<g>
						<path class="st201" d="M104.18,102.05l6.5-1.9V98.9l-9,2.75l-0.1,22.5l2.25-0.65v-0.55l0.05-2.1L104.18,102.05 M154.28,85.75
							v1.45l9.45-2.8l0.15-0.05l-0.05-1.5L154.28,85.75 M144.03,88.85v1.35l8.55-2.5l-0.05-1.4L144.03,88.85 M133.68,92l0.05,1.3
							l8.9-2.65V89.3L133.68,92 M121.98,96.8v-1.3l-8.3,2.5v1.25L121.98,96.8 M123.73,96.25l7.95-2.35v-1.3l-7.95,2.4V96.25
							 M184.93,76.5v1.6l8.35-2.5V74L184.93,76.5 M215.48,67.3V69l8.65-2.6v-1.7L215.48,67.3 M205.18,70.4l0.05,1.65l7.95-2.35
							l-0.05-1.7L205.18,70.4 M203.23,72.65L203.18,71l-7.8,2.35v1.6L203.23,72.65z"/>
					</g>
					<g>
						<path class="st202" d="M99.58,154.6l-3.35-1.55l0.25,85.65l0.8,0.35l2.45-0.85L99.58,154.6 M203.18,71l0.05,1.65l2-0.6
							l-0.05-1.65l7.95-2.4l0.05,1.7l2.3-0.7v-1.7l8.65-2.6v1.7l1.65-0.5v-1.7l8.7-2.6l0.05,1.75l1.05-0.35v-1.75l8.65-2.6v1.8
							l0.5-0.15l-0.05-3.2l-148.6,44.6l0.1,32.35l4.3-1.3l1.05,0.45l0.05-9.05l0.1-22.5l9-2.75v1.25l3-0.9V98l8.3-2.5v1.3l1.75-0.55
							V95l7.95-2.4v1.3l2.05-0.6l-0.05-1.3l8.95-2.7v1.35l1.4-0.45v-1.35l8.5-2.55l0.05,1.4l1.7-0.5v-1.45l9.55-2.9l21.1-6.35
							l8.35-2.5v1.6l2.1-0.65v-1.6L203.18,71z"/>
					</g>
					<g>
						<path class="st203" d="M96.23,153.05l-3.25-1.5l-0.2,85.6l3.7,1.55L96.23,153.05 M96.08,101.7l-2.85-1.65l-0.2,0.1l-0.1-0.25
							l0.05,35.1l3.2-0.95L96.08,101.7z"/>
					</g>
					<g>
						<path class="st204" d="M96.18,134.05l-3.2,0.95l-15.45,4.7l39.4,17.6l0.55,0.2l24.85-6.5l-7.8-3.4l-2.4-1.05l-8-3.5l-2.35-1
							l-5.85-2.55l-5.15-2.25l-7.1-3.1l-2.15-0.95l-1.05-0.45L96.18,134.05z"/>
					</g>
					<g>
						<path class="st205" d="M77.53,139.7l-1.75,0.5v3.4l17.2,7.95l3.25,1.5l3.35,1.55l8.05,3.7l9.2,4.3l0.55,0.25l1.8-0.6l23.5-7.9
							v-1.7v-1.5l-0.35-0.15l-24.85,6.5l-0.55,0.15v-0.35L77.53,139.7z"/>
					</g>
					<g>
						<path class="st206" d="M228.83,190.75l-1.4-0.4l-5.55,1.45l1.45,0.35L228.83,190.75z"/>
					</g>
					<g>
						<path class="st207" d="M234.48,61.6l-8.7,2.6v1.7l8.75-2.55L234.48,61.6z"/>
					</g>
					<g>
						<path class="st208" d="M244.68,57.1l8.5-2.55v-0.2l-3-1.2l-156.95,46.9l2.85,1.65L244.68,57.1z"/>
					</g>
					<g>
						<path class="st209" d="M183.83,96.75l0.5-18.5l-20.45,6.1l0.25,18.45L183.83,96.75z"/>
					</g>
					<g>
						<path class="st210" d="M184.33,78.25l0.6-0.15v-1.6l-21.1,6.35l0.05,1.5L184.33,78.25z"/>
					</g>
					<g>
						<path class="st211" d="M351.73,284.8l-0.4,0.1l-11.2,3.4l-7.2,2.15l-50.6,15.2l1.45,0.6l68-19.75L351.73,284.8z"/>
					</g>
					<g>
						<path class="st212" d="M353.38,286l0.35-30.35l-0.05-0.65l-2.2,0.65l0.25,29.15l0.05,1.7L353.38,286z"/>
					</g>
				</g>
			</g>
		</g>
		<g transform="matrix( 1, 0, 0, 1, -70.05,11.55) ">
			<g>
				<g id="Symbol_1_0_Layer0_1_FILL">
					<g>
						<path class="st69" d="M229.28,391.2c0.19,0.17,0.42,0.38,0.7,0.65l17.5,5.45c-0.85-0.36-1.69-0.82-2.5-1.4
							c-0.27-0.18-0.54-0.38-0.8-0.6L229.28,391.2 M222.03,382.45c0.26,0.66,0.54,1.28,0.85,1.85l17.9,7.3
							c-0.18-0.29-0.36-0.61-0.55-0.95c-0.1-0.15-0.2-0.32-0.3-0.5L222.03,382.45z"/>
					</g>
					<g>
						<path class="st70" d="M228.88,390.8c0.06,0.04,0.19,0.18,0.4,0.4l14.9,4.1c-0.17-0.12-0.33-0.26-0.5-0.4
							c-0.69-0.61-1.33-1.28-1.9-2c-0.34-0.4-0.68-0.83-1-1.3l-17.9-7.3c1.05,1.95,2.4,3.63,4.05,5.05
							C227.57,389.88,228.22,390.37,228.88,390.8z"/>
					</g>
					<g>
						<path class="st78" d="M240.23,364.9l-16.9-6.9c-1.59,3.76-2.56,7.61-2.9,11.55l17.15,6.55
							C237.87,372.28,238.75,368.55,240.23,364.9z"/>
					</g>
					<g>
						<path class="st79" d="M224.33,355.8c-0.35,0.75-0.68,1.48-1,2.2l16.9,6.9c0.29-0.65,0.59-1.3,0.9-1.95L224.33,355.8z"/>
					</g>
					<g>
						<path class="st80" d="M243.68,358.4c1.31-2.04,2.69-3.88,4.15-5.5l-16.4-7.35c-1.58,1.68-3.08,3.59-4.5,5.75
							c-0.97,1.49-1.84,2.99-2.6,4.5l16.8,7.15C241.88,361.42,242.73,359.9,243.68,358.4z"/>
					</g>
					<g>
						<path class="st75" d="M220.43,369.55c-0.05,0.78-0.08,1.57-0.1,2.35l17.15,6.2c0.02-0.66,0.05-1.33,0.1-2L220.43,369.55
							 M242.98,338c-0.23,0.08-0.46,0.16-0.7,0.25l15.25,7.8c0.41-0.13,0.81-0.27,1.2-0.4c0.29-0.1,0.57-0.2,0.85-0.3
							c0.17-0.04,0.34-0.09,0.5-0.15c0.13-0.02,0.24-0.05,0.35-0.1l-15.15-7.75C244.54,337.52,243.77,337.73,242.98,338z"/>
					</g>
					<g>
						<path class="st77" d="M220.33,372.6c0,3.76,0.57,7.04,1.7,9.85l17.9,7.7c-1.63-3.08-2.45-6.86-2.45-11.35c0-0.23,0-0.46,0-0.7
							l-17.15-6.2C220.33,372.14,220.33,372.37,220.33,372.6z"/>
					</g>
					<g>
						<path class="st83" d="M260.08,345.2c-0.16,0.06-0.33,0.11-0.5,0.15c-0.28,0.1-0.56,0.2-0.85,0.3c-0.39,0.13-0.79,0.27-1.2,0.4
							c-2.9,1.19-5.6,2.94-8.1,5.25c-0.52,0.52-1.06,1.06-1.6,1.6c-1.46,1.62-2.84,3.46-4.15,5.5c-0.96,1.5-1.81,3.02-2.55,4.55
							c-0.31,0.65-0.61,1.3-0.9,1.95c-1.48,3.65-2.37,7.38-2.65,11.2c-0.05,0.67-0.08,1.34-0.1,2c0,0.24,0,0.47,0,0.7
							c0,4.49,0.82,8.27,2.45,11.35c0.1,0.18,0.2,0.35,0.3,0.5c0.19,0.34,0.37,0.66,0.55,0.95c0.32,0.47,0.66,0.9,1,1.3
							c0.57,0.72,1.21,1.39,1.9,2c0.17,0.14,0.33,0.28,0.5,0.4c0.26,0.22,0.53,0.42,0.8,0.6c0.81,0.58,1.65,1.04,2.5,1.4
							c0.84,0.36,1.69,0.63,2.55,0.8c2.67,0.53,5.57,0.27,8.7-0.8c5.83-2.03,10.82-6.28,14.95-12.75c4.17-6.5,6.25-13.3,6.25-20.4
							c0-7.17-2.08-12.53-6.25-16.1c-1-0.88-2.05-1.6-3.15-2.15l0.05-0.35l-17.8-8.3c-0.26-0.07-0.55-0.13-0.85-0.2
							c-2.06-0.35-4.27-0.25-6.65,0.3l15.15,7.75C260.33,345.15,260.21,345.18,260.08,345.2 M258.93,347.15
							c0.14-0.05,0.28-0.1,0.4-0.15c0.33-0.1,0.65-0.2,0.95-0.3c0.77-0.19,1.52-0.34,2.25-0.45c0.34-0.04,0.67-0.08,1-0.1
							c3.63-0.28,6.85,0.8,9.65,3.25c3.97,3.4,5.95,8.52,5.95,15.35c0,6.77-1.98,13.23-5.95,19.4c-3.93,6.17-8.68,10.22-14.25,12.15
							c-4.45,1.51-8.38,1.33-11.8-0.55c-0.29-0.14-0.59-0.31-0.9-0.5c-0.56-0.36-1.11-0.78-1.65-1.25c-0.54-0.47-1.04-0.97-1.5-1.5
							c-0.6-0.69-1.15-1.44-1.65-2.25c-0.43-0.72-0.81-1.51-1.15-2.35c-0.85-2.07-1.36-4.43-1.55-7.1c-0.03-0.67-0.05-1.37-0.05-2.1
							c0-0.73,0.02-1.47,0.05-2.2l-0.3-0.1l0.35-0.5c0.1-1.04,0.23-2.09,0.4-3.15c0.45-2.49,1.19-4.96,2.2-7.4
							c0.27-0.63,0.55-1.28,0.85-1.95c0.69-1.39,1.47-2.77,2.35-4.15c1.41-2.19,2.91-4.1,4.5-5.75c1.2-1.21,2.43-2.28,3.7-3.2
							C254.72,348.93,256.77,347.88,258.93,347.15z"/>
					</g>
					<g>
						<path class="st89" d="M248.23,394.75v0.85c0.83-0.17,1.68-0.4,2.55-0.7c5.57-1.93,10.32-5.98,14.25-12.15
							c1.01-1.57,1.9-3.17,2.65-4.8c2.2-4.69,3.3-9.56,3.3-14.6c0-4.22-0.77-7.79-2.3-10.7l-1.05,0.95c1.1,2.64,1.65,5.75,1.65,9.35
							c0,3.1-0.42,6.14-1.25,9.1c-0.49,1.75-1.12,3.47-1.9,5.15c-0.78,1.74-1.71,3.46-2.8,5.15c-3.27,5.13-7.1,8.79-11.5,11
							c-0.89,0.44-1.81,0.82-2.75,1.15C248.8,394.6,248.51,394.68,248.23,394.75z"/>
					</g>
					<g>
						<path class="st88" d="M248.23,395.6c-0.37,0.07-0.74,0.12-1.1,0.15c3.42,1.88,7.35,2.06,11.8,0.55
							c5.57-1.93,10.32-5.98,14.25-12.15c3.97-6.17,5.95-12.63,5.95-19.4c0-6.83-1.98-11.95-5.95-15.35
							c-2.8-2.45-6.02-3.53-9.65-3.25c-0.33,0.02-0.66,0.06-1,0.1c0.87,0.48,1.71,1.06,2.5,1.75c1.52,1.3,2.73,2.85,3.65,4.65
							c1.53,2.91,2.3,6.48,2.3,10.7c0,5.04-1.1,9.91-3.3,14.6c-0.75,1.63-1.64,3.23-2.65,4.8c-3.93,6.17-8.68,10.22-14.25,12.15
							C249.91,395.2,249.06,395.43,248.23,395.6z"/>
					</g>
					<g>
						<path class="st84" d="M257.83,373.1c-0.18,0.4-0.38,0.79-0.6,1.15l1-0.95c-1.14,3.76-3.22,7.11-6.25,10.05l-0.15,0.85v9.15
							c4.4-2.21,8.23-5.87,11.5-11c1.09-1.69,2.02-3.41,2.8-5.15L257.83,373.1z"/>
					</g>
					<g>
						<path class="st90" d="M241.43,390.25c0.5,0.81,1.05,1.56,1.65,2.25c0.46,0.53,0.96,1.03,1.5,1.5
							c0.54,0.47,1.09,0.89,1.65,1.25c0.66-0.12,1.33-0.29,2-0.5l-0.1-8.2v-0.45c-2.54,2.18-5.16,2.78-7.85,1.8
							C240.62,388.74,241.01,389.53,241.43,390.25z"/>
					</g>
					<g>
						<path class="st86" d="M261.63,365.6l-0.9,3.7l7.3,2.75c0.83-2.96,1.25-6,1.25-9.1c0-3.6-0.55-6.71-1.65-9.35l-4.55,4.15
							C263.3,361.72,262.82,364.34,261.63,365.6z"/>
					</g>
					<g>
						<path class="st85" d="M258.88,368.6c0,0.27-0.02,0.54-0.05,0.8c-0.19,1.34-0.52,2.57-1,3.7l8.3,4.1
							c0.78-1.68,1.41-3.4,1.9-5.15l-7.3-2.75L258.88,368.6z"/>
					</g>
					<g>
						<path class="st91" d="M250.38,363.9c-1.27,1.7-2.07,3.7-2.4,6c-0.33,2.4-0.08,4.4,0.75,6c0.32,0.63,0.69,1.13,1.1,1.5
							c0.67,0.58,1.47,0.83,2.4,0.75c0.32-0.01,0.64-0.06,0.95-0.15c1.14-0.29,2.2-1.11,3.2-2.45c0.31-0.41,0.59-0.84,0.85-1.3
							c0.22-0.36,0.42-0.75,0.6-1.15c0.48-1.13,0.81-2.36,1-3.7c0.03-0.26,0.05-0.53,0.05-0.8c0.17-1.92-0.11-3.6-0.85-5.05
							c-0.66-1.26-1.53-2.03-2.6-2.3c-0.26-0.07-0.54-0.1-0.85-0.1C253.08,361.28,251.68,362.2,250.38,363.9z"/>
					</g>
					<g>
						<path class="st92" d="M249.03,363.2c-1.27,1.7-2.07,3.7-2.4,6c-0.33,2.4-0.08,4.4,0.75,6c0.63,1.23,1.45,1.97,2.45,2.2
							c-0.41-0.37-0.78-0.87-1.1-1.5c-0.83-1.6-1.08-3.6-0.75-6c0.33-2.3,1.13-4.3,2.4-6c1.3-1.7,2.7-2.62,4.2-2.75
							c0.31,0,0.59,0.03,0.85,0.1c-0.62-0.53-1.35-0.8-2.2-0.8C251.73,360.58,250.33,361.5,249.03,363.2z"/>
					</g>
					<g>
						<path class="st87" d="M249.08,353.5l3.25,1.4l0.15-1.15l0.3-3.45C251.51,351.22,250.28,352.29,249.08,353.5z"/>
					</g>
					<g>
						<path class="st93" d="M262.23,352.65l-4.35,4.35l-5.4-3.25l-0.15,1.15l-3.25-1.4c-1.59,1.65-3.09,3.56-4.5,5.75
							c-0.88,1.38-1.66,2.76-2.35,4.15c-0.3,0.67-0.58,1.32-0.85,1.95c-1.01,2.44-1.75,4.91-2.2,7.4l1.75,0.85l-2.15,2.3
							c0,0.21-0.02,0.41-0.05,0.6c-0.03,0.73-0.05,1.47-0.05,2.2c0,0.73,0.02,1.43,0.05,2.1l2.9-3.4c1.3,2.15,3.41,3.18,6.35,3.1
							l0.15,0.05l0.05,5.55l-0.05,0.45l0.1,8.2c0.28-0.07,0.56-0.15,0.85-0.25c0.94-0.33,1.86-0.71,2.75-1.15v-9.15v-4.95l1.35-1.25
							c-0.31,0.09-0.63,0.14-0.95,0.15c-0.93,0.08-1.73-0.17-2.4-0.75c-1-0.23-1.82-0.97-2.45-2.2c-0.83-1.6-1.08-3.6-0.75-6
							c0.33-2.3,1.13-4.3,2.4-6c1.3-1.7,2.7-2.62,4.2-2.75c0.85,0,1.58,0.27,2.2,0.8c1.07,0.27,1.94,1.04,2.6,2.3
							c0.74,1.45,1.02,3.13,0.85,5.05l1.85,0.7l0.9-3.7c-0.4,0.42-0.89,0.69-1.45,0.8v-6.1l2.9-2.55l4.55-4.15l1.05-0.95
							c-0.92-1.8-2.13-3.35-3.65-4.65c-0.79-0.69-1.63-1.27-2.5-1.75c-0.73,0.11-1.48,0.26-2.25,0.45
							C261.46,348.37,262.11,350.35,262.23,352.65z"/>
					</g>
					<g>
						<path class="st94" d="M232.98,344c-0.5,0.5-1.02,1.02-1.55,1.55l16.4,7.35c0.54-0.54,1.08-1.08,1.6-1.6L232.98,344z"/>
					</g>
					<g>
						<path class="st95" d="M242.28,338.25c-3.35,1.23-6.45,3.15-9.3,5.75l16.45,7.3c2.5-2.31,5.2-4.06,8.1-5.25L242.28,338.25z"/>
					</g>
				</g>
			</g>
		</g>
	</g>
</g>
<g>
	<g>
		<g>
			<path d="M54.07,193.43c0.07,1.8-0.11,3.34-0.52,4.62c-0.41,1.28-1,2.29-1.77,3.05c-0.77,0.75-1.67,1.27-2.7,1.55
				c-1.03,0.28-2.14,0.34-3.32,0.17v-4.47c0.69,0.13,1.24,0.08,1.67-0.15c0.43-0.23,0.76-0.56,1.01-0.98
				c0.25-0.43,0.42-0.91,0.52-1.45c0.1-0.54,0.15-1.07,0.15-1.6c0-0.49-0.04-0.97-0.12-1.45c-0.08-0.47-0.22-0.9-0.42-1.28
				c-0.2-0.38-0.44-0.69-0.74-0.93c-0.3-0.25-0.64-0.37-1.03-0.37c-0.1,1.74-0.36,3.4-0.79,4.99c-0.43,1.59-1.01,2.98-1.75,4.18
				c-0.74,1.2-1.64,2.14-2.71,2.82s-2.28,1.01-3.62,0.98c-0.85-0.03-1.67-0.22-2.44-0.56s-1.44-0.89-2-1.65
				c-0.45,0.85-1.05,1.45-1.8,1.79c-0.75,0.34-1.49,0.52-2.24,0.52c-1.08,0-2.09-0.28-3.02-0.83c-0.93-0.56-1.72-1.33-2.36-2.31
				c-0.64-0.98-1.09-2.15-1.35-3.51c-0.26-1.36-0.26-2.86,0-4.49c0.2-1.18,0.53-2.16,1.01-2.95c0.47-0.79,1.01-1.42,1.62-1.92
				c0.61-0.49,1.26-0.85,1.96-1.08c0.7-0.23,1.37-0.38,1.99-0.44c0.07-1.8,0.33-3.43,0.79-4.89c0.46-1.46,1.08-2.69,1.87-3.71
				c0.79-1.01,1.7-1.8,2.75-2.36c1.05-0.56,2.18-0.84,3.39-0.84c1.38,0,2.59,0.3,3.63,0.91c1.05,0.61,1.93,1.43,2.65,2.48
				c0.72,1.05,1.28,2.28,1.67,3.71c0.39,1.42,0.62,2.96,0.69,4.59c1.38,0.03,2.52,0.33,3.44,0.88c0.92,0.56,1.66,1.24,2.23,2.04
				c0.57,0.8,0.98,1.65,1.23,2.55C53.9,191.95,54.04,192.74,54.07,193.43z M30.89,197.07c-0.26-0.46-0.57-1.25-0.93-2.38
				c-0.36-1.13-0.59-2.51-0.69-4.15c-0.3-0.03-0.6,0.06-0.91,0.27c-0.31,0.21-0.57,0.53-0.79,0.96c-0.21,0.43-0.35,0.98-0.42,1.65
				c-0.07,0.67,0,1.47,0.2,2.38c0.2,0.92,0.47,1.59,0.84,2.01c0.36,0.43,0.73,0.66,1.11,0.71c0.38,0.05,0.72-0.06,1.03-0.32
				C30.64,197.93,30.82,197.56,30.89,197.07z M41.6,185.57c0-0.92-0.07-1.82-0.22-2.7c-0.15-0.88-0.37-1.67-0.67-2.36
				c-0.3-0.69-0.68-1.23-1.16-1.62c-0.48-0.39-1.08-0.57-1.8-0.54c-0.56,0.03-1.06,0.23-1.51,0.59c-0.45,0.36-0.82,0.86-1.14,1.5
				c-0.31,0.64-0.55,1.4-0.72,2.28c-0.17,0.88-0.25,1.83-0.25,2.85H41.6z M34.28,190.14c-0.07,0.92-0.02,1.86,0.12,2.82
				c0.15,0.97,0.38,1.85,0.69,2.65c0.31,0.8,0.71,1.47,1.19,1.99c0.48,0.52,1.01,0.8,1.61,0.83c0.72,0.03,1.34-0.19,1.85-0.66
				c0.51-0.47,0.92-1.11,1.24-1.92c0.31-0.8,0.53-1.7,0.64-2.7c0.12-1,0.16-2.01,0.12-3.02H34.28z"/>
		</g>
	</g>
	<g>
		<g>
			<path d="M56.87,202.86v-28.54c0-1.77-0.11-3.11-0.32-4.03c-0.21-0.92-0.84-1.33-1.89-1.23c-0.33,0.03-0.61,0.19-0.83,0.47
				c-0.23,0.28-0.41,0.63-0.54,1.06c-0.13,0.43-0.21,0.9-0.25,1.42c-0.03,0.52-0.02,1.05,0.05,1.57h-4.96
				c-0.07-1.01,0-2.05,0.2-3.09c0.2-1.05,0.54-2.01,1.03-2.9c0.49-0.88,1.17-1.61,2.04-2.19c0.87-0.57,1.94-0.88,3.22-0.91
				c1.38-0.03,2.53,0.21,3.46,0.71c0.93,0.51,1.69,1.17,2.26,1.99c0.57,0.82,0.98,1.75,1.23,2.8c0.25,1.05,0.37,2.08,0.37,3.09
				v29.77H56.87z"/>
		</g>
	</g>
	<g>
		<g>
			<path d="M65.27,202.86v-4.81h4.86v4.81H65.27z"/>
		</g>
	</g>
	<g>
		<g>
			<path d="M85.8,210.77c-1.57,0.26-3.09,0.22-4.57-0.12c-1.47-0.34-2.76-1.16-3.86-2.46c-1.1-1.29-1.93-3.15-2.5-5.57
				c-0.57-2.42-0.74-5.62-0.52-9.58c0.13-2.26,0.38-4.39,0.74-6.38c0.36-2,0.74-3.81,1.15-5.43c0.41-1.62,0.83-3.02,1.25-4.2
				c0.43-1.18,0.79-2.1,1.08-2.75h4.91c-0.29,0.79-0.65,1.78-1.08,2.97c-0.43,1.2-0.84,2.58-1.25,4.15
				c-0.41,1.57-0.78,3.32-1.11,5.26c-0.33,1.93-0.56,4.03-0.69,6.29c-0.16,2.82-0.13,5.13,0.1,6.95c0.23,1.82,0.62,3.23,1.18,4.22
				c0.56,1,1.27,1.63,2.14,1.89c0.87,0.26,1.89,0.26,3.07,0L85.8,210.77z"/>
		</g>
	</g>
	<g>
		<g>
			<path d="M109.63,192.35c-0.16,2.13-0.54,3.91-1.13,5.33c-0.59,1.42-1.33,2.55-2.23,3.39c-0.9,0.83-1.94,1.38-3.12,1.65
				c-1.18,0.26-2.42,0.31-3.73,0.15v-4.47c1.57,0.36,2.79-0.07,3.66-1.3c0.87-1.23,1.38-2.91,1.55-5.03
				c0.13-1.8,0.16-3.53,0.07-5.18c-0.08-1.65-0.26-3.11-0.54-4.37c-0.28-1.26-0.66-2.27-1.14-3.02c-0.49-0.75-1.09-1.15-1.8-1.18
				c-0.68-0.03-1.19,0.11-1.53,0.42c-0.34,0.31-0.58,0.71-0.73,1.2c-0.15,0.49-0.23,1.04-0.24,1.65c-0.02,0.61-0.02,1.19-0.02,1.74
				c0,0.59,0,1.4,0,2.43s0,2.07,0,3.12c0,1.05,0,2.02,0,2.92c0,0.9,0,1.51,0,1.84c-0.03,1.38-0.18,2.64-0.44,3.81
				c-0.26,1.16-0.68,2.17-1.26,3.02c-0.58,0.85-1.34,1.51-2.29,1.96c-0.95,0.46-2.12,0.65-3.5,0.59c-2.43-0.1-4.35-1.33-5.74-3.71
				c-1.4-2.37-2.09-5.97-2.09-10.78c0-2.03,0.2-3.94,0.61-5.72c0.41-1.78,1.02-3.33,1.84-4.64c0.82-1.31,1.83-2.33,3.02-3.05
				s2.56-1.03,4.1-0.93v4.27c-0.98-0.03-1.78,0.25-2.38,0.86c-0.61,0.61-1.07,1.38-1.4,2.31c-0.33,0.93-0.55,1.98-0.66,3.14
				c-0.11,1.16-0.17,2.28-0.17,3.37c0,1.05,0.03,2.19,0.1,3.41c0.07,1.23,0.2,2.37,0.42,3.44s0.52,1.96,0.93,2.68
				c0.41,0.72,0.97,1.08,1.69,1.08c0.59,0,1.04-0.15,1.35-0.44c0.31-0.29,0.54-0.67,0.69-1.13c0.15-0.46,0.24-0.96,0.27-1.5
				c0.03-0.54,0.05-1.04,0.05-1.5c0-0.46-0.01-1.2-0.02-2.23c-0.02-1.03-0.02-2.11-0.02-3.24c0-1.13,0-2.21,0-3.24
				c0-1.03,0.02-1.78,0.05-2.23c0.03-1.15,0.15-2.28,0.37-3.39c0.21-1.11,0.59-2.1,1.13-2.97c0.54-0.87,1.28-1.56,2.21-2.09
				s2.15-0.79,3.66-0.79c1.54,0,2.88,0.46,4.03,1.38c1.15,0.92,2.08,2.19,2.8,3.81c0.72,1.62,1.22,3.55,1.5,5.8
				C109.78,187.2,109.82,189.67,109.63,192.35z"/>
		</g>
	</g>
	<g>
		<g>
			<path d="M129.17,188.81c-0.07,5.04-0.81,8.7-2.24,10.98c-1.42,2.28-3.4,3.38-5.92,3.32c-0.95-0.03-1.87-0.23-2.78-0.59
				c-0.9-0.36-1.69-0.98-2.38-1.87c-0.69-0.88-1.24-2.07-1.67-3.56c-0.43-1.49-0.66-3.36-0.69-5.62h4.86
				c-0.07,2.52,0.17,4.37,0.7,5.55c0.54,1.18,1.18,1.79,1.92,1.82c0.55,0,1.02-0.17,1.41-0.52c0.39-0.34,0.71-0.91,0.95-1.69
				c0.24-0.79,0.42-1.82,0.54-3.09c0.11-1.28,0.17-2.83,0.17-4.67c0-2.06-0.08-3.78-0.24-5.16c-0.16-1.38-0.39-2.46-0.68-3.27
				c-0.29-0.8-0.64-1.37-1.05-1.69c-0.41-0.33-0.87-0.47-1.39-0.44c-0.81,0.07-1.49,0.82-2.02,2.26c-0.54,1.44-0.64,3.54-0.31,6.29
				h-4.96c-0.1-2.39,0.06-4.41,0.47-6.07c0.41-1.65,0.98-2.99,1.72-4c0.74-1.01,1.59-1.74,2.55-2.19c0.97-0.44,1.96-0.66,2.97-0.66
				c2.49,0,4.46,1.25,5.92,3.73C128.49,180.15,129.21,183.87,129.17,188.81z"/>
		</g>
	</g>
	<g>
		<g>
			<path d="M146.32,194.76c-0.03,2.46-0.59,4.48-1.67,6.07c-1.08,1.59-2.67,2.4-4.76,2.43c-1.96,0.03-3.61-0.66-4.94-2.09
				c-1.33-1.42-2.06-3.48-2.19-6.16c-0.07-1.31,0.04-2.51,0.32-3.59c0.28-1.08,0.7-2.01,1.28-2.8c0.57-0.79,1.27-1.41,2.09-1.87
				c0.82-0.46,1.74-0.72,2.75-0.79c1.11-0.03,2.11,0.16,3,0.59c0.88,0.43,1.64,1.03,2.26,1.82c0.62,0.79,1.09,1.72,1.4,2.8
				C146.16,192.25,146.32,193.45,146.32,194.76z M141.16,191.96c-0.13-0.39-0.34-0.69-0.61-0.88c-0.28-0.2-0.58-0.31-0.91-0.34
				c-0.33-0.03-0.64,0.02-0.93,0.15c-0.29,0.13-0.52,0.36-0.69,0.69c-0.2,0.33-0.34,0.72-0.44,1.18c-0.1,0.46-0.15,0.95-0.15,1.47
				c0,0.52,0.05,1.05,0.15,1.57c0.1,0.52,0.25,1,0.44,1.42c0.33,0.75,0.81,1.15,1.45,1.2c0.64,0.05,1.14-0.2,1.5-0.76
				c0.36-0.65,0.56-1.54,0.61-2.65C141.62,193.89,141.49,192.88,141.16,191.96z"/>
		</g>
	</g>
</g>
<g>
	<g>
		<g>
			<path d="M58.58,46.83c0,1.9-0.38,3.41-1.14,4.51c-0.76,1.11-1.74,1.89-2.93,2.36c-1.19,0.47-2.51,0.68-3.97,0.65
				c-1.45-0.04-2.83-0.24-4.15-0.62v-5.34c0.83,0.55,1.68,0.91,2.54,1.06c0.86,0.16,1.63,0.16,2.31,0.03
				c0.67-0.14,1.21-0.4,1.61-0.78c0.4-0.38,0.56-0.83,0.49-1.35c-0.1-0.76-0.29-1.26-0.54-1.5c-0.26-0.24-0.6-0.39-1.04-0.44
				c-0.43-0.05-0.97-0.1-1.61-0.16c-0.64-0.05-1.37-0.29-2.2-0.7c-1.11-0.52-1.9-1.29-2.39-2.31c-0.48-1.02-0.71-2.08-0.67-3.19
				c0.03-1.11,0.32-2.15,0.86-3.14c0.54-0.98,1.3-1.7,2.31-2.15c0.83-0.38,1.49-0.56,2-0.54c0.5,0.02,0.91,0.04,1.22,0.05
				c0.31,0.02,0.56-0.03,0.75-0.16c0.19-0.12,0.39-0.53,0.6-1.22c0.1-0.31,0.11-0.71,0.03-1.19c-0.09-0.48-0.29-0.94-0.62-1.37
				c-0.33-0.43-0.8-0.79-1.4-1.06c-0.61-0.28-1.39-0.38-2.36-0.31c-1.18,0.1-2.1,0.38-2.77,0.83c-0.67,0.45-1.18,1.06-1.53,1.84
				c-0.35,0.78-0.56,1.69-0.65,2.75c-0.09,1.05-0.13,2.22-0.13,3.5v17.11H37.9V36.35c0-1.62,0.11-3.13,0.34-4.51
				c0.22-1.38,0.64-2.62,1.24-3.71c0.6-1.09,1.42-2.01,2.44-2.77c1.02-0.76,2.31-1.31,3.86-1.66c1.24-0.28,2.45-0.36,3.63-0.26
				c1.17,0.1,2.26,0.35,3.24,0.73c0.99,0.38,1.84,0.91,2.57,1.58c0.73,0.67,1.26,1.44,1.61,2.31c0.55,1.42,0.8,2.73,0.75,3.94
				c-0.05,1.21-0.34,2.25-0.86,3.11c-0.52,0.86-1.24,1.5-2.15,1.92c-0.92,0.41-1.94,0.5-3.08,0.26c-0.66-0.14-1.15-0.02-1.48,0.36
				c-0.33,0.38-0.47,0.82-0.42,1.32c0.05,0.5,0.3,0.96,0.75,1.37c0.45,0.42,1.14,0.57,2.07,0.47c0.35-0.03,0.86-0.01,1.55,0.08
				c0.69,0.09,1.37,0.33,2.05,0.73c0.67,0.4,1.27,1,1.79,1.81C58.32,44.24,58.58,45.38,58.58,46.83z"/>
		</g>
	</g>
	<g>
		<g>
			<path d="M77.77,39.15c-0.07,5.32-0.86,9.19-2.36,11.59c-1.5,2.4-3.59,3.57-6.25,3.5c-1-0.03-1.98-0.24-2.93-0.62
				c-0.95-0.38-1.79-1.04-2.51-1.97c-0.73-0.93-1.31-2.19-1.76-3.76c-0.45-1.57-0.69-3.55-0.73-5.94h5.13
				c-0.07,2.66,0.18,4.61,0.74,5.86c0.56,1.24,1.24,1.88,2.03,1.92c0.58,0,1.08-0.18,1.49-0.54c0.41-0.36,0.74-0.96,1-1.79
				c0.26-0.83,0.45-1.92,0.57-3.27c0.12-1.35,0.18-2.99,0.18-4.93c0-2.18-0.09-3.99-0.26-5.44s-0.41-2.6-0.72-3.45
				c-0.31-0.85-0.68-1.44-1.1-1.79c-0.43-0.35-0.92-0.5-1.46-0.47c-0.86,0.07-1.57,0.86-2.14,2.39c-0.57,1.52-0.68,3.73-0.33,6.64
				h-5.24c-0.1-2.52,0.06-4.66,0.49-6.4c0.43-1.74,1.04-3.15,1.81-4.23c0.78-1.07,1.68-1.84,2.7-2.31c1.02-0.47,2.07-0.7,3.14-0.7
				c2.63,0,4.71,1.31,6.25,3.94C77.05,30.01,77.8,33.94,77.77,39.15z"/>
		</g>
	</g>
	<g>
		<g>
			<path d="M104.93,39.26c0,3.18-0.28,5.75-0.83,7.73c-0.55,1.97-1.24,3.5-2.05,4.59c-0.81,1.09-1.67,1.83-2.57,2.23
				c-0.9,0.4-1.71,0.6-2.44,0.6c-2.07,0-3.73-1.05-4.98-3.14c-1.24-2.09-1.83-5.11-1.76-9.05c0-1.07,0.13-2.15,0.39-3.24
				c0.26-1.09,0.64-2.06,1.14-2.9c0.5-0.85,1.12-1.53,1.87-2.05c0.74-0.52,1.62-0.78,2.62-0.78c0.76,0,1.49,0.23,2.18,0.7
				c0.69,0.47,1.19,1.41,1.5,2.83h-0.05c0-1.14-0.15-2.26-0.44-3.34c-0.29-1.09-0.73-2.05-1.32-2.88c-0.58-0.83-1.31-1.48-2.17-1.94
				c-0.86-0.47-1.86-0.65-3-0.54c-1.24,0.1-2.26,0.45-3.07,1.04c-0.81,0.59-1.46,1.36-1.94,2.31c-0.48,0.95-0.83,2.07-1.03,3.34
				c-0.21,1.28-0.33,2.64-0.36,4.1c0,0.8,0.03,1.8,0.1,3.01c0.07,1.21,0.22,2.37,0.47,3.47c0.24,1.11,0.59,2.05,1.04,2.83
				c0.45,0.78,1.02,1.13,1.71,1.06v4.87c-1.45,0.07-2.71-0.29-3.77-1.06c-1.06-0.78-1.93-1.87-2.61-3.27
				c-0.68-1.4-1.19-3.03-1.52-4.9c-0.33-1.87-0.51-3.85-0.55-5.96c-0.03-1.69,0.16-3.45,0.57-5.26c0.42-1.81,1.09-3.47,2.02-4.98
				c0.93-1.5,2.13-2.75,3.6-3.73c1.47-0.99,3.24-1.48,5.31-1.48c1.87,0,3.54,0.35,5.03,1.06c1.49,0.71,2.74,1.75,3.76,3.11
				c1.02,1.37,1.8,3.03,2.33,4.98C104.67,34.55,104.93,36.77,104.93,39.26z M99.28,43.92c0.07-1.56-0.07-2.86-0.42-3.91
				c-0.35-1.05-0.86-1.58-1.55-1.58c-0.42,0-0.74,0.16-0.99,0.49c-0.24,0.33-0.42,0.75-0.54,1.27c-0.12,0.52-0.21,1.11-0.26,1.76
				c-0.05,0.66-0.08,1.33-0.08,2.02c0,0.66,0.03,1.31,0.08,1.97c0.05,0.66,0.15,1.24,0.29,1.76c0.14,0.52,0.34,0.94,0.6,1.27
				c0.26,0.33,0.58,0.49,0.96,0.49c0.35,0,0.63-0.15,0.86-0.44c0.22-0.29,0.41-0.7,0.57-1.22c0.16-0.52,0.27-1.11,0.34-1.79
				C99.2,45.35,99.25,44.65,99.28,43.92z"/>
		</g>
	</g>
	<g>
		<g>
			<path d="M122.98,45.43c-0.04,2.59-0.62,4.73-1.76,6.4c-1.14,1.68-2.82,2.53-5.03,2.57c-2.07,0.03-3.81-0.7-5.21-2.2
				c-1.4-1.5-2.17-3.67-2.31-6.51c-0.07-1.38,0.04-2.64,0.34-3.78c0.29-1.14,0.74-2.13,1.35-2.96s1.34-1.49,2.2-1.97
				c0.86-0.48,1.83-0.76,2.9-0.83c1.17-0.03,2.23,0.17,3.16,0.62c0.93,0.45,1.73,1.09,2.39,1.92c0.66,0.83,1.15,1.81,1.48,2.96
				C122.81,42.78,122.98,44.05,122.98,45.43z M117.53,42.47c-0.14-0.42-0.36-0.73-0.65-0.93c-0.29-0.21-0.61-0.33-0.96-0.36
				c-0.35-0.03-0.67,0.02-0.99,0.16c-0.31,0.14-0.55,0.38-0.73,0.73c-0.21,0.35-0.36,0.76-0.47,1.24c-0.1,0.48-0.16,1-0.16,1.56
				c0,0.55,0.05,1.11,0.16,1.66c0.1,0.55,0.26,1.06,0.47,1.5c0.35,0.8,0.86,1.22,1.53,1.27c0.67,0.05,1.2-0.22,1.58-0.8
				c0.38-0.69,0.6-1.62,0.65-2.8C118.02,44.51,117.88,43.44,117.53,42.47z"/>
		</g>
	</g>
</g>
<g>
</g>
<g>
	<path d="M72.71,103.33c-0.21,2.74-0.72,5.12-1.53,7.16c-0.81,2.04-1.89,3.88-3.26,5.53c-1.37,1.65-2.97,3.14-4.79,4.47
		c-1.83,1.33-3.83,2.63-6,3.9c-1.26,0.77-2.33,1.47-3.21,2.11c-0.88,0.63-1.6,1.33-2.16,2.11c-0.56,0.77-0.97,1.68-1.21,2.74
		c-0.25,1.05-0.37,2.32-0.37,3.79v1.68h21.48v9.69h-31.9v-14.53c0-2.53,0.51-4.67,1.54-6.42c1.03-1.75,2.32-3.32,3.88-4.69
		s3.28-2.6,5.14-3.69c1.87-1.09,3.63-2.23,5.28-3.42c1.65-1.19,3.05-2.54,4.21-4.05c1.16-1.51,1.88-3.35,2.16-5.53
		c0.49-4.07,0.02-6.86-1.42-8.37c-1.44-1.51-3.21-2.16-5.32-1.95c-1.41,0.14-2.47,0.56-3.21,1.26c-0.74,0.7-1.27,1.6-1.58,2.68
		c-0.32,1.09-0.47,2.32-0.47,3.69s0.07,2.83,0.21,4.37H39.76c-0.28-3.3-0.08-6.26,0.59-8.9c0.67-2.63,1.72-4.88,3.14-6.74
		c1.42-1.86,3.2-3.3,5.36-4.32c2.15-1.02,4.6-1.56,7.34-1.63c3.02-0.07,5.6,0.46,7.74,1.58c2.14,1.12,3.9,2.6,5.26,4.42
		c1.37,1.83,2.35,3.88,2.95,6.16C72.73,98.72,72.92,101.02,72.71,103.33z"/>
	<path d="M109.77,128.07c-0.28,5.97-1.83,10.7-4.63,14.21c-2.81,3.51-6.53,5.33-11.16,5.47c-5.47,0.14-9.7-1.35-12.69-4.47
		c-2.98-3.12-4.54-7.74-4.68-13.84h10.42c-0.28,2.6,0.11,4.63,1.16,6.11s2.49,2.25,4.32,2.32c1.19,0,2.21-0.3,3.05-0.9
		c0.84-0.6,1.53-1.42,2.05-2.47s0.89-2.28,1.11-3.69c0.21-1.4,0.32-2.91,0.32-4.53c-0.07-2.46-0.46-4.65-1.16-6.58
		c-0.7-1.93-2-3.04-3.9-3.32c-0.7-0.07-1.46-0.05-2.26,0.05c-0.81,0.11-1.58,0.37-2.32,0.79c-0.74,0.42-1.37,1.02-1.89,1.79
		c-0.53,0.77-0.86,1.79-1,3.05h-10l4.42-36.95h26.32v9.79H89.55c-0.14,1.05-0.28,2.25-0.42,3.58c-0.14,1.33-0.3,2.65-0.47,3.95
		c-0.18,1.3-0.37,2.54-0.58,3.74c-0.21,1.19-0.42,2.14-0.63,2.84c0.63-0.77,1.54-1.4,2.74-1.9c1.19-0.49,2.49-0.81,3.9-0.95
		c1.4-0.14,2.81-0.09,4.21,0.16c1.4,0.25,2.63,0.72,3.68,1.42c1.96,1.33,3.49,2.95,4.58,4.84c1.09,1.9,1.88,3.81,2.37,5.74
		c0.49,1.93,0.77,3.77,0.84,5.53C109.84,125.62,109.84,127.02,109.77,128.07z"/>
</g>
<polyline class="st213" points="159.39,328.14 78.42,271.57 78.42,226.12 "/>
</svg>
